<svg width="280" height="209" viewBox="0 0 280 209" fill="none" xmlns="http://www.w3.org/2000/svg">
<g clip-path="url(#clip0_121_17)">
<path d="M155.704 28.7285C155.928 28.55 156.192 28.4179 156.477 28.3414C156.762 28.2649 157.061 28.2458 157.355 28.2853C157.643 28.3227 157.918 28.4188 158.161 28.5668C158.403 28.7147 158.606 28.9107 158.755 29.1402C158.928 29.4569 159.026 29.8034 159.043 30.1572C159.169 31.5414 158.878 32.9306 158.202 34.1731C157.883 34.8014 157.419 35.3589 156.843 35.8077C156.376 36.155 155.819 36.3855 155.226 36.4767L154.949 36.5158C154.816 36.9732 154.667 37.3562 154.594 37.5599C154.157 38.6485 151.859 42.2203 148.881 43.913C148.905 44.9885 149.021 46.0605 149.227 47.1194C149.425 48.1551 149.363 49.0811 150.932 49.6013C151.036 49.6354 151.908 49.9514 152.143 50.0462C152.143 50.0462 152.732 56.2235 142.262 56.2235C131.792 56.2235 131.847 49.9614 131.847 49.9614C132.039 49.8857 132.69 49.6354 132.794 49.6013C134.363 49.0811 134.301 48.1551 134.498 47.1194C134.707 46.0546 134.822 44.9763 134.844 43.8948C133.649 43.2098 132.585 42.3486 131.696 41.3458C130.447 39.9384 129.535 38.3045 129.021 36.5511L128.494 36.4767C127.901 36.3858 127.344 36.1553 126.877 35.8077C126.301 35.359 125.838 34.8015 125.518 34.1731C124.842 32.9306 124.551 31.5414 124.677 30.1572C124.694 29.8034 124.792 29.4569 124.965 29.1402C125.114 28.9107 125.317 28.7147 125.56 28.5668C125.802 28.4188 126.078 28.3227 126.366 28.2853C126.66 28.2453 126.96 28.2642 127.246 28.3407C127.531 28.4172 127.796 28.5495 128.02 28.7285C128.02 28.7285 129.08 18.246 141.36 18.246C153.64 18.246 155.704 28.7285 155.704 28.7285Z" fill="white"/>
<path d="M153.439 187.099C153.767 186.913 154.024 186.636 154.172 186.309C153.92 185.739 153.713 185.154 153.554 184.556C150.599 184.63 147.642 184.517 144.703 184.22L144.695 185.343C146.628 186.755 149.03 187.518 151.501 187.505C152.175 187.53 152.844 187.39 153.439 187.099Z" fill="white"/>
<path d="M130.56 184.558C130.401 185.154 130.194 185.739 129.943 186.308C130.091 186.635 130.347 186.911 130.676 187.098C131.271 187.388 131.94 187.526 132.613 187.499C135.084 187.513 137.486 186.75 139.419 185.337L139.411 184.202C136.473 184.507 133.516 184.626 130.56 184.558Z" fill="white"/>
<path d="M162.237 103.86C161.49 111.04 160.914 125.232 160.15 136.885C159.499 146.806 158.87 165.447 158.637 176.168C158.546 180.274 160.57 183.256 158.423 184.069C156.142 184.767 147.13 184.803 141.994 183.832C136.858 184.803 127.851 184.767 125.57 184.069C123.424 183.258 125.446 180.276 125.357 176.168C125.124 165.447 124.751 146.806 124.101 136.885C123.336 125.234 122.504 111.04 121.757 103.86" fill="white"/>
<path d="M120.716 199.312C120.663 199.249 120.613 199.183 120.567 199.116C120.283 198.653 120.112 198.139 120.066 197.609C120.021 197.079 120.101 196.546 120.303 196.048C120.713 195.054 121.292 194.127 122.018 193.3C123.674 191.225 125.423 189.216 127.267 187.275C127.985 186.519 128.798 185.73 129.872 185.544C129.813 185.847 129.859 186.161 130.003 186.439C130.147 186.718 130.382 186.949 130.676 187.099C131.271 187.389 131.94 187.528 132.613 187.501C135.417 187.52 138.118 186.534 140.141 184.751C140.129 186.83 140.151 187.522 140.141 189.601C140.17 190.108 140.103 190.615 139.942 191.101C139.477 192.257 138.096 192.814 136.988 193.51C134.106 195.32 132.588 198.624 129.568 200.233C128.476 200.803 127.251 201.122 125.996 201.163C124.741 201.204 123.493 200.967 122.36 200.471C121.722 200.206 121.159 199.809 120.716 199.312Z" fill="white"/>
<path d="M163.399 199.312C163.451 199.249 163.501 199.183 163.548 199.116C163.832 198.653 164.002 198.139 164.048 197.609C164.093 197.079 164.013 196.546 163.812 196.048C163.402 195.054 162.823 194.127 162.096 193.3C160.441 191.225 158.692 189.216 156.848 187.275C156.129 186.519 155.317 185.73 154.242 185.544C154.301 185.847 154.256 186.16 154.112 186.439C153.968 186.718 153.733 186.949 153.439 187.099C152.844 187.389 152.175 187.528 151.501 187.501C148.697 187.52 145.996 186.533 143.973 184.751C143.986 186.83 143.963 187.522 143.973 189.601C143.944 190.108 144.011 190.615 144.172 191.101C144.637 192.257 146.018 192.814 147.125 193.51C150.008 195.32 151.526 198.624 154.546 200.233C155.638 200.803 156.863 201.122 158.118 201.163C159.373 201.204 160.621 200.967 161.754 200.471C162.392 200.206 162.955 199.809 163.399 199.312Z" fill="white"/>
<path d="M169.468 92.2409C171.349 89.5406 173.839 87.1215 174.708 84.0337C175.117 82.2961 175.208 80.5082 174.977 78.7433C174.28 70.8493 171.767 63.1808 167.605 56.2435C167.085 55.6429 166.489 55.1009 165.83 54.6289C165.322 54.2546 159.622 51.6172 154.705 49.5473C153.682 47.884 153.143 46.4495 151.625 45.1684C149.193 47.4012 146.349 49.2205 143.225 50.5419C143.052 50.6142 142.858 50.7028 142.802 50.8704H141.192C141.136 50.7041 140.942 50.6142 140.768 50.5419C137.645 49.2202 134.801 47.4007 132.369 45.168C130.851 46.4491 130.312 47.8836 129.289 49.5469C124.371 51.6168 118.672 54.2559 118.163 54.6285C117.504 55.1006 116.908 55.6426 116.388 56.2431C112.226 63.1804 109.714 70.849 109.017 78.7429C108.786 80.5078 108.877 82.2957 109.285 84.0332C110.155 87.121 112.645 89.5402 114.526 92.2405L120.356 96.4942C120.356 98.2406 120.356 107.34 120.356 110.964C121.855 110.964 162.004 111.104 163.637 111.104C163.637 108.277 163.637 97.9936 163.637 95.6435L169.468 92.2409Z" fill="white"/>
<path d="M136.149 56.6214C133.451 54.1607 131.817 51.6093 129.824 48.6321C130.549 47.3493 131.138 46.2079 132.369 45.168C134.801 47.4006 137.645 49.2199 140.768 50.5415C140.942 50.6138 141.136 50.7024 141.192 50.87C141.22 51.0211 141.185 51.1762 141.095 51.3053C140.556 52.0191 139.976 52.7066 139.358 53.3648C138.176 54.6933 136.944 55.7241 136.149 56.6214Z" fill="white"/>
<path d="M147.845 56.6214C150.542 54.1607 152.177 51.6093 154.17 48.6321C153.445 47.3493 152.856 46.2079 151.625 45.168C149.193 47.4008 146.349 49.2201 143.225 50.5415C143.052 50.6138 142.858 50.7024 142.802 50.87C142.774 51.0211 142.809 51.1763 142.899 51.3053C143.438 52.0193 144.018 52.7067 144.636 53.3648C145.818 54.6933 147.052 55.7241 147.845 56.6214Z" fill="white"/>
<path d="M147.507 60.7001C147.507 61.4689 147.636 65.257 147.584 65.3222C147.533 65.3875 137.141 65.3335 137.078 65.2973C136.957 65.2287 136.942 61.9018 136.942 60.7001" fill="white"/>
<path d="M122.155 89.8837C122.6 89.5872 124.054 88.5493 124.5 88.2529C124.805 88.0884 125.051 87.8456 125.207 87.5543C125.273 87.3411 125.267 87.1146 125.189 86.9046C125.112 86.6947 124.967 86.5112 124.774 86.3784C124.39 86.1053 123.926 85.943 123.441 85.9119C120.613 85.6807 115.866 85.864 114.113 88.4429C114.175 90.4567 113.9 92.8305 115.489 94.189L116.148 94.7528L116.592 94.9748C118.413 95.8721 120.417 96.4089 122.478 96.5506C124.538 96.6922 126.607 96.4356 128.553 95.7973C128.926 95.6685 129.28 95.4962 129.606 95.2846C130.93 94.438 131.352 93.8958 131.991 92.4796C131.998 92.464 132.001 92.4472 131.999 92.4305C131.836 91.0425 130.435 91.087 129.351 91.2455L126.958 91.5951C125.685 91.781 122.03 90.7436 120.985 90.0521" fill="white"/>
<path d="M162.146 89.8837C161.7 89.5872 160.246 88.5493 159.801 88.2529C159.496 88.0882 159.25 87.8455 159.093 87.5543C159.028 87.341 159.034 87.1145 159.111 86.9046C159.189 86.6947 159.333 86.5112 159.527 86.3784C159.911 86.1053 160.375 85.943 160.86 85.9119C163.688 85.6807 168.434 85.864 170.187 88.4429C170.126 90.4567 170.401 92.8305 168.812 94.189L168.152 94.7528L167.708 94.9748C165.888 95.8719 163.884 96.4085 161.824 96.5502C159.764 96.6919 157.695 96.4354 155.75 95.7973C155.377 95.6685 155.023 95.4962 154.698 95.2846C153.374 94.438 152.951 93.8958 152.312 92.4796C152.305 92.464 152.303 92.4472 152.304 92.4305C152.468 91.0425 153.868 91.087 154.952 91.2454L157.346 91.5951C158.619 91.781 162.273 90.7436 163.318 90.0521" fill="white"/>
<path d="M141.697 32.86C138.945 32.9472 136.201 33.1861 133.481 33.5756C133.049 33.6334 131.98 33.7195 131.699 34.011C131.175 34.5515 131.374 35.7091 131.306 36.3657C131.232 37.4169 131.266 38.4722 131.408 39.5175C131.565 40.9026 131.641 42.3783 132.676 43.459C134.588 45.4549 139.018 46.5194 141.929 46.5198C143.871 46.4947 145.795 46.1748 147.624 45.573C149.209 45.0503 150.695 44.1742 151.526 42.9143C152.309 41.7263 152.278 40.535 152.446 39.1816C152.573 38.2303 152.593 37.2696 152.507 36.3146C152.435 35.6597 152.617 34.5889 152.087 34.0409C151.806 33.7498 150.925 33.633 150.493 33.5798C147.578 33.186 144.641 32.9457 141.697 32.86Z" fill="white"/>
<path d="M152.31 92.4796C152.303 92.464 152.301 92.4472 152.303 92.4305C152.466 91.0425 153.867 91.087 154.951 91.2455L157.344 91.5952C158.617 91.781 162.272 90.7436 163.316 90.0521L162.146 89.8837C161.7 89.5872 160.246 88.5494 159.801 88.2529C159.496 88.0882 159.25 87.8455 159.093 87.5543C159.028 87.3411 159.034 87.1145 159.111 86.9046C159.189 86.6947 159.333 86.5112 159.527 86.3784C159.911 86.1053 160.375 85.943 160.86 85.9119C162.796 85.7535 165.63 85.7905 167.79 86.6562V60.7928C165.956 60.7928 157.327 60.7488 147.522 60.6872C147.553 62.3122 147.628 65.2524 147.586 65.3152C147.531 65.3983 137.144 65.3285 137.08 65.2852C136.979 65.2171 136.953 62.4394 136.948 60.6881C127.202 60.7492 118.653 60.7928 116.828 60.7928C116.812 63.6619 116.778 76.977 116.763 86.5655C118.887 85.7913 121.579 85.7589 123.443 85.911C123.928 85.9421 124.392 86.1045 124.776 86.3776C124.97 86.5104 125.114 86.6939 125.192 86.9038C125.269 87.1138 125.275 87.3403 125.209 87.5535C125.053 87.8448 124.807 88.0876 124.502 88.252C124.057 88.5485 122.603 89.5864 122.157 89.8829L120.986 90.0513C122.031 90.7427 125.686 91.7802 126.959 91.5943L129.353 91.2446C130.436 91.0862 131.837 91.0417 132 92.4297C132.002 92.4464 132 92.4632 131.993 92.4788C131.724 93.1864 131.308 93.8398 130.77 94.4031C137.818 94.4031 146.416 94.4106 153.553 94.4189C153.005 93.8534 152.582 93.1945 152.31 92.4796Z" fill="#4DD0E1"/>
<path d="M144.815 20.0797C143.057 20.8186 139.878 22.414 139.599 22.3047C139.408 22.2294 139.062 21.4955 138.815 20.7945C138.682 20.4453 138.587 20.0848 138.531 19.7183C134.884 22.4614 131.398 25.3807 128.089 28.4641C127.863 28.2647 127.59 28.1156 127.292 28.0281C126.994 27.9406 126.677 27.917 126.368 27.9593C126.204 27.9821 126.045 28.024 125.893 28.084C124.827 24.0324 125.092 20.6036 125.984 18.1956C126.876 15.7877 128.999 13.0246 131.639 12.1377L129.257 11.6924C132.731 8.48359 137.295 7.74844 141.259 7.86029C145.491 7.9788 148.796 9.50814 150.78 12.0026L153.061 13.7361C154.93 14.6247 156.685 16.4559 157.595 18.7932C158.89 22.1196 158.74 25.6224 157.714 28.0399C157.598 28.0022 157.477 27.9743 157.355 27.9568C157.044 27.9145 156.727 27.9383 156.428 28.0263C156.129 28.1143 155.856 28.2642 155.63 28.4645C154.028 25.1075 151.209 22.3631 147.652 20.6972L144.815 20.0797Z" fill="#4DD0E1"/>
<path d="M129.687 184.334C129.53 184.935 129.324 185.525 129.071 186.097C129.039 186.204 129.03 186.316 129.045 186.426C129.061 186.536 129.1 186.642 129.161 186.738C129.221 186.832 129.301 186.915 129.396 186.981C129.491 187.047 129.599 187.096 129.714 187.123C129.829 187.151 129.949 187.158 130.067 187.143C130.185 187.128 130.298 187.092 130.401 187.037L130.582 186.907C130.693 186.805 130.774 186.678 130.816 186.539C131.069 185.967 131.275 185.377 131.432 184.776C131.491 184.56 131.459 184.331 131.341 184.136C131.251 183.994 131.118 183.881 130.958 183.808C130.798 183.736 130.618 183.709 130.441 183.731C130.265 183.752 130.099 183.82 129.964 183.928C129.83 184.035 129.733 184.177 129.685 184.334H129.687Z" fill="black"/>
<path d="M140.326 185.337C140.321 184.96 140.321 184.583 140.317 184.206C140.313 183.986 140.218 183.776 140.051 183.618C139.876 183.47 139.649 183.383 139.411 183.375C139.171 183.376 138.941 183.463 138.77 183.618C138.603 183.776 138.508 183.986 138.505 184.206C138.509 184.583 138.509 184.96 138.514 185.337C138.517 185.557 138.612 185.767 138.779 185.925C138.955 186.074 139.182 186.16 139.42 186.169C139.66 186.168 139.89 186.081 140.06 185.925C140.228 185.768 140.323 185.557 140.326 185.337Z" fill="black"/>
<path d="M155.042 186.097C154.791 185.523 154.587 184.932 154.43 184.33C154.398 184.225 154.345 184.126 154.271 184.04C154.198 183.954 154.107 183.882 154.004 183.828C153.901 183.774 153.787 183.739 153.668 183.726C153.55 183.712 153.431 183.72 153.316 183.749C153.201 183.778 153.094 183.828 153 183.895C152.906 183.962 152.827 184.045 152.769 184.14C152.71 184.235 152.672 184.34 152.657 184.448C152.643 184.557 152.651 184.667 152.683 184.772C152.84 185.374 153.044 185.965 153.295 186.539C153.366 186.745 153.513 186.921 153.711 187.038C153.922 187.15 154.173 187.18 154.409 187.122C154.636 187.063 154.83 186.926 154.95 186.739C155.012 186.644 155.053 186.538 155.068 186.428C155.084 186.317 155.074 186.205 155.041 186.099L155.042 186.097Z" fill="black"/>
<path d="M143.795 184.218C143.795 184.592 143.791 184.963 143.786 185.336C143.789 185.556 143.884 185.767 144.052 185.924C144.227 186.073 144.454 186.159 144.692 186.168C144.932 186.167 145.162 186.08 145.333 185.924C145.499 185.766 145.594 185.556 145.598 185.336C145.603 184.962 145.607 184.59 145.607 184.218C145.604 183.998 145.509 183.787 145.342 183.63C145.166 183.481 144.939 183.395 144.701 183.386C144.461 183.387 144.231 183.475 144.061 183.63C143.894 183.788 143.799 183.998 143.795 184.218Z" fill="black"/>
<path d="M121.42 110.97C121.892 118.048 122.229 125.133 122.647 132.214C122.987 137.944 123.337 143.67 123.581 149.405C123.844 155.586 124.063 161.77 124.239 167.956C124.316 170.614 124.385 173.271 124.445 175.929C124.436 177.482 124.261 179.03 123.924 180.551C123.721 181.62 123.415 182.898 124.033 183.903C124.557 184.754 125.575 184.975 126.547 185.109C127.785 185.267 129.032 185.359 130.282 185.385C133.441 185.488 136.603 185.36 139.74 185.003C140.468 184.917 141.194 184.819 141.916 184.694C143.061 184.496 142.576 182.893 141.435 183.09C138.464 183.559 135.452 183.778 132.438 183.747C131.058 183.753 129.675 183.724 128.301 183.625C127.795 183.589 127.229 183.536 126.837 183.478C126.639 183.449 126.441 183.416 126.245 183.374C126.161 183.357 126.079 183.338 125.996 183.317C125.8 183.267 125.992 183.337 125.843 183.269C125.809 183.254 125.623 183.136 125.723 183.205C125.598 183.119 125.627 183.109 125.62 183.099C125.516 182.962 125.591 183.087 125.553 182.969C125.536 182.916 125.488 182.672 125.499 182.761C125.464 182.257 125.506 181.752 125.622 181.259C125.955 179.763 126.169 178.247 126.262 176.723C126.319 174.104 126.151 171.466 126.076 168.848C125.905 162.834 125.697 156.821 125.452 150.809C125.225 145.318 124.926 139.832 124.588 134.346C124.155 127.312 123.818 120.274 123.378 113.241C123.33 112.485 123.281 111.728 123.231 110.972C123.16 109.908 121.348 109.901 121.42 110.972V110.97Z" fill="black"/>
<path d="M142.078 184.692C145.181 185.19 148.326 185.429 151.475 185.408C152.88 185.415 154.29 185.388 155.692 185.287C156.687 185.262 157.675 185.124 158.633 184.875C161.466 183.975 159.958 180.358 159.689 178.455C159.537 177.014 159.504 175.564 159.591 174.118C159.621 172.797 159.655 171.475 159.693 170.154C159.862 164.019 160.069 157.885 160.316 151.752C160.541 146.189 160.826 140.63 161.173 135.073C161.622 127.87 161.968 120.661 162.411 113.458C162.459 112.67 162.509 111.882 162.561 111.095C162.631 110.025 160.819 110.029 160.749 111.095C160.296 118.004 159.963 124.921 159.557 131.833C159.228 137.433 158.878 143.03 158.635 148.634C158.373 154.671 158.155 160.711 157.979 166.751C157.899 169.44 157.827 172.129 157.763 174.818C157.701 176.295 157.779 177.774 157.995 179.239C158.18 180.364 158.638 181.609 158.493 182.757C158.496 182.871 158.46 182.984 158.39 183.079C158.32 183.173 158.219 183.246 158.102 183.286C158.057 183.306 158.144 183.277 157.993 183.313C157.911 183.332 157.828 183.352 157.745 183.37C157.534 183.415 157.32 183.449 157.107 183.481C155.98 183.621 154.846 183.7 153.709 183.717C150.628 183.816 147.543 183.697 144.481 183.362C143.837 183.29 143.196 183.198 142.558 183.086C141.418 182.889 140.93 184.492 142.076 184.69L142.078 184.692Z" fill="black"/>
<path d="M141.151 124.144C140.908 126.593 140.939 129.071 140.941 131.527C140.941 134.479 140.992 137.435 141.021 140.389C141.055 143.728 141.03 147.067 141.021 150.406C141.011 154.983 141.002 159.561 140.993 164.138C140.986 168.507 140.984 172.876 140.987 177.246C140.989 178.743 140.995 180.238 141.004 181.733C141.01 182.412 140.98 183.105 141.042 183.784C141.044 183.937 141.087 184.088 141.167 184.223C141.247 184.359 141.361 184.474 141.5 184.56C141.708 184.67 141.955 184.701 142.188 184.645C142.42 184.588 142.619 184.45 142.741 184.26C142.857 184.068 142.887 183.843 142.827 183.631C142.766 183.419 142.619 183.237 142.416 183.122L142.742 183.42C142.795 183.511 142.852 183.993 142.851 183.695C142.851 183.584 142.843 183.473 142.84 183.362C142.831 182.973 142.827 182.585 142.823 182.196C142.81 180.829 142.806 179.461 142.803 178.094C142.794 173.867 142.794 169.64 142.806 165.412C142.813 160.807 142.822 156.201 142.833 151.596C142.84 148.386 142.863 145.176 142.846 141.966C142.818 136.488 142.575 130.989 142.864 125.515C142.888 125.058 142.919 124.6 142.964 124.143C142.962 123.923 142.866 123.713 142.697 123.557C142.527 123.401 142.298 123.313 142.058 123.311C141.819 123.316 141.592 123.405 141.423 123.56C141.254 123.715 141.157 123.924 141.152 124.143L141.151 124.144Z" fill="black"/>
<path d="M121.498 198.891C120.698 197.889 120.909 196.626 121.493 195.575C122.245 194.359 123.115 193.208 124.092 192.136C125.051 190.988 126.041 189.864 127.064 188.763C127.892 187.867 128.788 186.616 130.113 186.345L128.999 185.322C128.885 185.896 129.001 186.487 129.324 186.989C129.647 187.49 130.156 187.868 130.758 188.053C131.95 188.482 133.376 188.369 134.613 188.188C136.938 187.839 139.091 186.845 140.782 185.339L139.235 184.751C139.225 186.522 139.31 188.307 139.225 190.077C139.183 190.966 138.692 191.494 137.916 191.975C137.101 192.436 136.315 192.937 135.56 193.476C132.821 195.609 131.197 199.238 127.473 200.129C125.449 200.614 122.745 200.3 121.358 198.723C121.188 198.568 120.958 198.481 120.718 198.481C120.478 198.481 120.248 198.568 120.077 198.723C119.913 198.881 119.82 199.092 119.82 199.311C119.82 199.53 119.913 199.741 120.077 199.899C121.486 201.499 124.118 202.12 126.272 201.98C128.505 201.813 130.595 200.905 132.151 199.426C133.601 198.113 134.723 196.532 136.172 195.218C136.901 194.595 137.701 194.045 138.556 193.577C139.443 193.133 140.175 192.466 140.667 191.656C141.237 190.524 141.054 189.143 141.051 187.928C141.048 186.869 141.043 185.808 141.051 184.75C141.046 184.588 140.99 184.43 140.89 184.296C140.79 184.162 140.649 184.057 140.486 183.995C140.322 183.933 140.142 183.915 139.968 183.945C139.794 183.975 139.633 184.05 139.504 184.162C138.313 185.217 136.847 185.975 135.247 186.363C134.331 186.595 133.382 186.697 132.432 186.664C131.917 186.645 130.593 186.498 130.748 185.764C130.787 185.623 130.785 185.474 130.743 185.334C130.7 185.193 130.619 185.065 130.507 184.962C130.395 184.859 130.255 184.785 130.102 184.746C129.949 184.707 129.788 184.705 129.634 184.741C128.013 185.074 126.947 186.335 125.925 187.435C124.709 188.744 123.533 190.083 122.399 191.453C120.57 193.657 117.694 196.918 119.936 199.731C120.062 199.916 120.26 200.05 120.491 200.106C120.721 200.161 120.966 200.134 121.175 200.029C121.381 199.916 121.53 199.734 121.59 199.521C121.651 199.308 121.617 199.082 121.498 198.891Z" fill="black"/>
<path d="M164.181 199.731C166.423 196.918 163.547 193.656 161.717 191.454C160.581 190.086 159.406 188.747 158.192 187.436C157.17 186.335 156.104 185.073 154.483 184.741C154.329 184.706 154.168 184.708 154.015 184.746C153.862 184.785 153.722 184.86 153.61 184.963C153.498 185.066 153.417 185.194 153.374 185.334C153.332 185.475 153.33 185.623 153.369 185.764C153.524 186.499 152.197 186.646 151.684 186.665C150.735 186.697 149.786 186.596 148.87 186.363C147.27 185.975 145.804 185.218 144.612 184.163C144.484 184.051 144.323 183.975 144.149 183.946C143.974 183.916 143.795 183.933 143.631 183.996C143.467 184.058 143.327 184.162 143.226 184.296C143.126 184.43 143.07 184.588 143.066 184.751C143.071 185.694 143.068 186.637 143.066 187.581C143.001 188.645 143.03 189.712 143.151 190.772C143.519 192.885 145.854 193.511 147.398 194.752C148.934 195.986 150.07 197.564 151.447 198.934C152.912 200.389 154.708 201.542 156.876 201.873C159.308 202.245 162.405 201.756 164.038 199.899C164.202 199.74 164.293 199.53 164.293 199.311C164.293 199.092 164.202 198.882 164.038 198.723C163.867 198.569 163.637 198.482 163.398 198.482C163.158 198.482 162.928 198.569 162.757 198.723C161.542 200.104 159.252 200.519 157.418 200.278C155.476 200.022 153.964 198.997 152.672 197.702C151.429 196.454 150.382 195.051 149.048 193.883C148.366 193.303 147.622 192.787 146.826 192.345C146.176 191.971 145.364 191.563 145.047 190.88C144.867 190.311 144.81 189.714 144.878 189.124C144.876 188.633 144.876 188.141 144.878 187.649C144.881 186.683 144.884 185.717 144.878 184.751L143.333 185.341C145.024 186.847 147.177 187.841 149.502 188.19C150.709 188.367 152.101 188.481 153.272 188.085C153.894 187.911 154.425 187.535 154.765 187.026C155.104 186.517 155.229 185.912 155.116 185.324L154.002 186.347C155.298 186.613 156.169 187.813 156.981 188.69C158.025 189.816 159.039 190.965 160.022 192.138C160.977 193.189 161.832 194.313 162.578 195.499C163.186 196.568 163.438 197.861 162.617 198.894C162.497 199.084 162.464 199.311 162.525 199.524C162.586 199.737 162.735 199.919 162.941 200.032C163.151 200.138 163.396 200.166 163.627 200.11C163.858 200.054 164.056 199.918 164.181 199.731Z" fill="black"/>
<path d="M133.889 44.9185C133.857 45.3534 133.81 45.7871 133.747 46.2196L133.779 45.9984C133.742 46.2478 133.701 46.4961 133.655 46.7431C133.597 46.9596 133.63 47.1879 133.745 47.3838C133.805 47.4782 133.885 47.5608 133.98 47.6269C134.075 47.6929 134.183 47.7412 134.298 47.7689C134.413 47.7967 134.533 47.8033 134.651 47.7884C134.769 47.7736 134.882 47.7375 134.985 47.6824C135.087 47.6288 135.176 47.5571 135.248 47.4714C135.319 47.3857 135.371 47.2878 135.401 47.1834C135.543 46.433 135.643 45.6765 135.701 44.9168C135.701 44.7524 135.647 44.5916 135.548 44.4549C135.448 44.3182 135.307 44.2116 135.141 44.1487C134.976 44.0858 134.794 44.0693 134.618 44.1014C134.442 44.1334 134.281 44.2126 134.154 44.3289C133.992 44.4894 133.898 44.698 133.889 44.9168L133.889 44.9185Z" fill="black"/>
<path d="M148.035 45.0391C148.065 45.3994 148.106 45.7598 148.159 46.1202C148.193 46.3568 148.227 46.5938 148.266 46.83C148.295 47.0038 148.315 47.1842 148.362 47.3547C148.428 47.5664 148.581 47.746 148.789 47.8549C148.998 47.9638 149.244 47.9932 149.476 47.9368C149.705 47.8748 149.9 47.7335 150.018 47.5428C150.136 47.352 150.169 47.1266 150.11 46.9139C150.037 46.5994 149.983 46.2814 149.948 45.9613L149.98 46.1825C149.926 45.8025 149.882 45.4215 149.848 45.0395C149.842 44.8201 149.747 44.6105 149.583 44.4515C149.413 44.2956 149.182 44.208 148.942 44.208C148.702 44.208 148.472 44.2956 148.302 44.4515C148.217 44.5283 148.15 44.6199 148.104 44.7209C148.059 44.8218 148.035 44.9302 148.036 45.0395L148.035 45.0391Z" fill="black"/>
<path d="M162.733 96.3158V111.102L163.639 110.27C162.04 110.27 160.441 110.262 158.841 110.257L148.728 110.224L136.646 110.184C133.143 110.173 129.639 110.161 126.133 110.15C124.28 110.144 122.385 110.033 120.534 110.133C120.475 110.136 120.414 110.133 120.355 110.133L121.261 110.965V96.4946C121.261 95.4243 119.449 95.4227 119.449 96.4946V110.965C119.453 111.184 119.549 111.394 119.718 111.549C119.888 111.705 120.116 111.793 120.355 111.796C121.934 111.796 123.512 111.805 125.091 111.81C128.452 111.821 131.812 111.831 135.172 111.843L147.253 111.884L157.793 111.918C159.677 111.924 161.567 111.969 163.451 111.935C163.514 111.935 163.576 111.935 163.639 111.935C163.878 111.932 164.107 111.843 164.276 111.688C164.445 111.532 164.541 111.323 164.545 111.103V96.3158C164.545 95.2455 162.733 95.2439 162.733 96.3158Z" fill="black"/>
<path d="M115.066 91.4808C112.958 88.5701 110.185 85.8433 109.862 82.1937C109.755 80.2664 109.861 78.3341 110.179 76.4264C110.428 74.5883 110.781 72.7632 111.236 70.9585C112.145 67.3004 113.458 63.7371 115.157 60.3242C115.579 59.4774 116.026 58.6406 116.496 57.814C116.687 57.4349 116.9 57.0655 117.135 56.7075C117.436 56.3406 117.782 56.0069 118.167 55.7129C118.826 55.2122 119.554 54.7936 120.332 54.468C123.716 52.8492 127.164 51.3344 130.64 49.8903C130.846 49.7778 130.995 49.5953 131.056 49.3824C131.117 49.1694 131.084 48.9431 130.965 48.7522C130.839 48.5657 130.641 48.4306 130.41 48.3751C130.179 48.3196 129.934 48.3479 129.725 48.4541C126.437 49.8205 123.184 51.2593 119.967 52.7706C119.192 53.0983 118.442 53.4744 117.723 53.8962C116.934 54.4035 116.242 55.0269 115.674 55.7412C115.11 56.5591 114.617 57.4167 114.2 58.3059C112.323 61.8347 110.848 65.5318 109.798 69.3386C109.284 71.2065 108.876 73.0977 108.575 75.0044C108.223 76.992 108.031 79.0006 108 81.0141C107.991 83.1826 108.592 85.3165 109.744 87.2096C110.834 89.0088 112.265 90.608 113.504 92.3191C114.146 93.2068 115.716 92.3748 115.068 91.4796L115.066 91.4808Z" fill="black"/>
<path d="M153.348 49.8903C156.496 51.1954 159.61 52.5683 162.69 54.0089C163.551 54.3789 164.39 54.7902 165.204 55.241C165.735 55.5871 166.213 55.9962 166.627 56.4576C167.249 57.1055 167.633 58.0402 168.049 58.8107C171.683 65.4465 173.765 72.7062 174.164 80.1242C174.321 82.1557 173.883 84.1888 172.895 86.0125C171.894 87.7726 170.533 89.3315 169.309 90.9606C168.646 91.8442 170.215 92.6771 170.874 91.8002C171.992 90.3112 173.22 88.8841 174.19 87.3061C175.227 85.6537 175.834 83.8038 175.964 81.9006C176.033 79.9148 175.898 77.9274 175.56 75.9649C175.289 74.0422 174.913 72.1332 174.433 70.245C173.474 66.514 172.108 62.8811 170.357 59.4011C169.504 57.703 168.694 55.8896 167.178 54.5994C166.456 54.0099 165.648 53.5151 164.778 53.1291C161.331 51.4687 157.81 49.9273 154.264 48.455C154.055 48.35 153.81 48.3225 153.579 48.3779C153.349 48.4333 153.15 48.5676 153.024 48.7531C152.905 48.944 152.872 49.1704 152.933 49.3833C152.994 49.5962 153.143 49.7786 153.349 49.8912L153.348 49.8903Z" fill="black"/>
<path d="M142.903 110.267V94.4081C142.903 93.3378 141.091 93.3362 141.091 94.4081V110.267C141.091 111.337 142.903 111.339 142.903 110.267Z" fill="black"/>
<path d="M142.903 60.6569V51.5132C142.903 50.4429 141.091 50.4413 141.091 51.5132V60.6569C141.091 61.7272 142.903 61.7288 142.903 60.6569Z" fill="black"/>
<path d="M136.789 56.0335C134.28 53.7261 132.454 50.9739 130.607 48.2125V49.052C131.28 47.857 131.93 46.6898 133.01 45.7559H131.728C133.038 46.9581 134.467 48.0461 135.996 49.0059C136.732 49.4708 137.49 49.9049 138.27 50.3082C138.662 50.5103 139.06 50.7043 139.462 50.8903C139.631 50.9677 139.801 51.0433 139.972 51.1174C140.085 51.166 140.199 51.2142 140.311 51.2612C140.448 51.3369 140.481 51.347 140.41 51.2916L140.286 50.8716C140.303 51.072 139.881 51.4508 139.73 51.6255C139.244 52.1906 138.753 52.7552 138.238 53.2987C137.353 54.2314 136.365 55.0804 135.508 56.0351C134.772 56.8547 136.047 58.0381 136.789 57.211C137.897 55.9769 139.177 54.8825 140.277 53.6409C140.977 52.8509 142.869 51.2708 141.767 50.1718C141.459 49.9242 141.103 49.7326 140.717 49.6071C140.344 49.4408 139.975 49.268 139.61 49.0886C138.828 48.7005 138.067 48.2807 137.326 47.8291C135.771 46.8835 134.325 45.7952 133.01 44.5812C132.838 44.429 132.608 44.3439 132.369 44.3439C132.13 44.3439 131.9 44.429 131.728 44.5812C130.766 45.4617 129.973 46.4855 129.383 47.6092C129.21 47.863 129.065 48.1323 128.951 48.4129C128.926 48.5991 128.945 48.788 129.006 48.9669C129.068 49.1457 129.17 49.3103 129.307 49.4495C129.683 50.013 130.059 50.5768 130.44 51.1369C131.874 53.3306 133.574 55.3682 135.507 57.211C136.333 57.9678 137.614 56.7919 136.789 56.0335Z" fill="black"/>
<path d="M148.486 57.2094C150.419 55.3665 152.119 53.3289 153.553 51.1352C153.916 50.6013 154.278 50.0637 154.634 49.5269C154.901 49.2485 155.052 48.8922 155.059 48.5215C154.965 48.1962 154.814 47.8872 154.611 47.6067C154.021 46.4829 153.228 45.4591 152.265 44.5788C152.094 44.4263 151.864 44.3411 151.625 44.3411C151.386 44.3411 151.156 44.4263 150.984 44.5788C149.669 45.7924 148.223 46.8806 146.668 47.8266C145.954 48.2616 145.221 48.6673 144.469 49.0437C144.076 49.2397 143.679 49.4267 143.277 49.6046C142.891 49.7301 142.535 49.9218 142.227 50.1693C141.125 51.2662 143.016 52.8463 143.717 53.6384C144.818 54.8817 146.096 55.9744 147.205 57.2086C147.947 58.0352 149.223 56.8526 148.486 56.0326C147.629 55.0763 146.64 54.2289 145.756 53.2962C145.26 52.7731 144.788 52.2297 144.318 51.6862C144.157 51.4991 143.689 51.0858 143.708 50.8691L143.584 51.2891C143.513 51.3445 143.546 51.3344 143.683 51.2587C143.796 51.2118 143.909 51.1635 144.022 51.1149C144.193 51.0409 144.363 50.9652 144.531 50.8878C144.934 50.7038 145.332 50.5097 145.724 50.3057C146.503 49.9035 147.261 49.4694 147.998 49.0034C149.527 48.0436 150.956 46.9556 152.265 45.7534H150.985C152.064 46.6873 152.714 47.8545 153.386 49.0495V48.2125C151.538 50.9739 149.713 53.7261 147.203 56.0335C146.38 56.7919 147.661 57.9682 148.486 57.2094Z" fill="black"/>
<path d="M130.768 95.2347C138.363 95.2347 145.958 95.2403 153.552 95.2514C154.718 95.2514 154.72 93.5881 153.552 93.5881C145.958 93.5795 138.363 93.574 130.768 93.5715C129.603 93.5715 129.601 95.2347 130.768 95.2347Z" fill="black"/>
<path d="M117.665 86.5618C117.679 79.06 117.697 71.5585 117.719 64.0573C117.723 62.9696 117.727 61.8818 117.733 60.7941L116.827 61.6257C122.772 61.6257 128.718 61.57 134.663 61.5334C143.206 61.4806 151.746 61.5479 160.289 61.5933C162.789 61.6066 165.289 61.6253 167.788 61.6257L166.882 60.7941V86.6574C166.882 87.7277 168.694 87.7294 168.694 86.6574V60.7941C168.691 60.5745 168.594 60.3647 168.425 60.2094C168.256 60.0541 168.027 59.9655 167.788 59.9625C161.842 59.9625 155.895 59.9067 149.949 59.8701C141.407 59.8173 132.867 59.8847 124.326 59.93C121.826 59.9433 119.326 59.962 116.827 59.9625C116.587 59.9657 116.359 60.0543 116.19 60.2096C116.021 60.3649 115.924 60.5745 115.921 60.7941C115.881 67.1414 115.88 73.4896 115.866 79.8381L115.853 86.5626C115.853 87.6329 117.665 87.6346 117.665 86.5626V86.5618Z" fill="black"/>
<path d="M146.598 60.7001C146.598 61.5404 146.633 62.3812 146.654 63.2216C146.666 63.6752 146.676 64.1284 146.683 64.5821C146.683 64.7401 146.688 64.8985 146.687 65.0565C146.687 65.2337 146.599 65.3825 146.707 65.101L147.124 64.6041C147.212 64.5559 147.728 64.5056 147.459 64.5018C147.38 64.5018 147.301 64.5073 147.222 64.5089C146.959 64.5152 146.695 64.5164 146.431 64.5185C145.607 64.5243 144.783 64.5235 143.959 64.5222C142.121 64.5192 140.283 64.5089 138.445 64.4915C138.123 64.4881 137.8 64.4848 137.479 64.479C137.388 64.479 137.3 64.4715 137.211 64.4727C137.005 64.4756 137.189 64.4611 137.315 64.4952L137.715 64.7093L137.708 64.7019L137.941 65.0686C137.868 64.9073 137.945 65.2985 137.929 65.027C137.921 64.884 137.909 64.7409 137.902 64.5979C137.882 64.1688 137.873 63.7397 137.866 63.3089C137.851 62.4394 137.846 61.5696 137.846 60.7001C137.846 59.6298 136.034 59.6281 136.034 60.7001C136.034 61.6269 136.039 62.5538 136.057 63.4806C136.069 64.1168 135.948 65.012 136.238 65.61C136.514 66.1742 137.114 66.1368 137.672 66.1451C138.339 66.1555 139.005 66.1605 139.672 66.1659C141.459 66.1792 143.246 66.186 145.033 66.1863C145.683 66.1863 146.333 66.1863 146.983 66.1763C147.562 66.168 148.257 66.1867 148.454 65.5401C148.509 65.2629 148.523 64.98 148.495 64.6994C148.49 64.242 148.478 63.7846 148.467 63.3272C148.446 62.4515 148.41 61.575 148.408 60.6988C148.405 59.629 146.594 59.6269 146.596 60.6988L146.598 60.7001Z" fill="black"/>
<path d="M122.612 90.6018C123.263 90.1652 123.895 89.7057 124.537 89.2591C125.402 88.6579 126.375 88.0483 126.126 86.9065C125.679 84.8516 122.72 84.9613 120.966 85.0175C119.086 85.0782 117.116 85.3572 115.456 86.2092C114.628 86.6145 113.923 87.2023 113.404 87.9198C113.117 88.3419 113.217 88.867 113.22 89.3456C113.223 89.8583 113.223 90.3714 113.256 90.8841C113.385 92.8351 114.128 94.6971 116.097 95.6746C118.266 96.7506 120.678 97.3467 123.142 97.4152C125.452 97.4797 128.275 97.1736 130.205 95.9104C130.993 95.431 131.661 94.8032 132.164 94.0688C132.436 93.6626 132.659 93.2304 132.829 92.7798C132.891 92.537 132.898 92.2853 132.85 92.0399C132.802 91.7945 132.701 91.5606 132.552 91.3523C131.279 89.4076 128.302 90.8421 126.468 90.7851C125.548 90.7187 124.642 90.5406 123.774 90.2554C122.951 90.0577 122.164 89.7479 121.441 89.3365C120.481 88.7248 119.574 90.1681 120.527 90.7727C121.3 91.2135 122.137 91.5517 123.013 91.7773C123.992 92.0847 125.003 92.2987 126.029 92.416C127.219 92.5382 128.419 92.1989 129.591 92.0496C129.947 91.987 130.311 91.9819 130.668 92.0346C131.014 92.1107 131.067 92.2841 131.125 92.6542V92.2118C130.97 92.7379 130.689 93.2256 130.302 93.6393C129.882 94.0926 129.378 94.4742 128.813 94.7665C127.416 95.522 125.495 95.7266 123.902 95.757C122.205 95.7888 120.516 95.5404 118.915 95.0235C117.64 94.6131 116.178 94.0418 115.538 92.8708C114.817 91.5531 115.057 89.8691 115.019 88.4454L114.896 88.8649C116.209 86.9988 119.186 86.7002 121.387 86.674C121.795 86.6695 124.731 86.63 124.274 87.3605C124.183 87.5082 123.908 87.6279 123.759 87.7306C123.519 87.8969 123.28 88.0633 123.041 88.2329C122.594 88.546 122.152 88.8637 121.698 89.1681C121.495 89.2837 121.349 89.466 121.289 89.6776C121.228 89.8891 121.258 90.1139 121.373 90.3057C121.495 90.495 121.694 90.6325 121.926 90.6883C122.158 90.7442 122.404 90.714 122.612 90.6043V90.6018Z" fill="black"/>
<path d="M162.603 89.1639C162.15 88.8595 161.706 88.5402 161.26 88.2288C161.035 88.071 160.811 87.9139 160.586 87.7572C160.379 87.6493 160.191 87.5143 160.027 87.3564C159.529 86.657 162.534 86.6653 162.914 86.6699C165.115 86.6961 168.091 86.9942 169.405 88.8608L169.281 88.4412C169.247 89.7552 169.388 91.139 168.958 92.4118C168.539 93.6501 167.324 94.2938 166.095 94.7711C162.937 95.9858 159.402 96.0861 156.168 95.0526C155.39 94.7811 154.693 94.3434 154.136 93.7757C153.676 93.3359 153.346 92.7964 153.176 92.2076V92.6501C153.232 92.2846 153.286 92.1066 153.632 92.0305C153.99 91.978 154.354 91.9831 154.71 92.0455C155.882 92.1931 157.082 92.5353 158.271 92.4118C159.298 92.2942 160.308 92.0802 161.287 91.7731C162.164 91.5473 163.001 91.2091 163.774 90.7685C164.725 90.1623 163.819 88.7198 162.859 89.3323C162.243 89.6886 161.575 89.9632 160.875 90.1481C160.048 90.4161 159.196 90.6149 158.33 90.7419C156.485 90.981 154.508 89.825 152.717 90.5718C151.909 90.9091 151.201 91.8509 151.437 92.6987C151.726 93.5791 152.243 94.3821 152.944 95.0389C154.643 96.6398 157.097 97.1895 159.45 97.3707C161.878 97.5544 164.319 97.2126 166.577 96.3728C167.636 96.0223 168.609 95.4824 169.439 94.7844C170.179 94.1055 170.674 93.2347 170.857 92.2896C171.034 91.3154 171.109 90.3279 171.081 89.3406C171.084 88.8616 171.182 88.3373 170.897 87.9148C170.641 87.5465 170.327 87.2148 169.965 86.9306C168.503 85.7663 166.584 85.3056 164.701 85.106C163.708 85.0044 162.709 84.9766 161.711 85.0229C160.515 85.0744 159.185 85.2125 158.476 86.2287C158.29 86.4822 158.177 86.775 158.149 87.0794C158.12 87.3839 158.177 87.69 158.313 87.9689C158.616 88.4339 159.04 88.8233 159.546 89.1024C160.265 89.5951 160.965 90.1107 161.69 90.5968C161.898 90.7064 162.144 90.7366 162.376 90.6807C162.608 90.6248 162.807 90.4875 162.929 90.2982C163.045 90.1067 163.076 89.8815 163.016 89.6696C162.955 89.4576 162.808 89.2753 162.604 89.1606L162.603 89.1639Z" fill="black"/>
<path d="M152.604 14.455C157.337 16.7657 158.542 23.002 157.023 27.3543C156.666 28.3759 158.415 28.8134 158.77 27.7967C160.53 22.7546 158.951 15.6709 153.518 13.0188C152.489 12.5165 151.571 13.9515 152.604 14.455Z" fill="black"/>
<path d="M131.4 11.334C128.235 12.4429 126.017 15.3299 125.025 18.2165C123.912 21.4535 124.174 25.0137 125.012 28.2736C125.28 29.3152 127.028 28.8741 126.76 27.8316C126.014 24.9309 125.77 21.8024 126.689 18.9088C127.441 16.5387 129.262 13.8559 131.881 12.9378C132.11 12.8742 132.303 12.7327 132.421 12.5424C132.538 12.3521 132.572 12.1275 132.515 11.9149C132.45 11.7029 132.297 11.5229 132.088 11.414C131.88 11.305 131.633 11.2758 131.401 11.3327L131.4 11.334Z" fill="black"/>
<path d="M151.562 11.5831C149.607 9.21408 146.712 7.64925 143.507 7.2287C140.216 6.73018 136.841 7.02461 133.711 8.08319C131.804 8.75573 130.07 9.7839 128.617 11.1028C127.789 11.8579 129.07 13.0338 129.899 12.2787C132.101 10.3261 134.952 9.10637 137.997 8.81377C140.847 8.49692 143.939 8.62831 146.546 9.82293C147.902 10.4286 149.084 11.319 149.996 12.4222C150.122 12.6077 150.321 12.7419 150.551 12.7974C150.782 12.8529 151.026 12.8255 151.235 12.7207C151.442 12.6083 151.591 12.4259 151.652 12.213C151.713 12.0001 151.68 11.7738 151.56 11.5831H151.562Z" fill="black"/>
<path d="M144.358 19.3616C143.064 19.9092 141.807 20.5284 140.522 21.0943C140.285 21.1987 140.048 21.3051 139.804 21.3978C139.944 21.3446 139.668 21.4423 139.642 21.4527C139.432 21.5359 139.509 21.4082 139.648 21.4781C140.479 21.8939 140.241 21.7841 140.08 21.4976C139.98 21.3114 139.893 21.1196 139.819 20.9234C139.643 20.5357 139.515 20.1313 139.437 19.7175C139.431 19.5557 139.374 19.399 139.273 19.266C139.173 19.1329 139.033 19.0293 138.87 18.9673C138.707 18.9054 138.528 18.8877 138.354 18.9165C138.181 18.9453 138.02 19.0192 137.891 19.1296C134.373 21.8149 131.01 24.6303 127.764 27.588C126.935 28.3431 128.217 29.519 129.045 28.7639C132.292 25.8058 135.654 22.9908 139.172 20.3059L137.625 19.718C137.735 20.7544 138.106 21.7531 138.71 22.6344C139.236 23.318 139.926 23.1455 140.633 22.8673C142.214 22.2436 143.713 21.4581 145.273 20.7974C145.479 20.6848 145.628 20.5024 145.689 20.2894C145.75 20.0765 145.717 19.8502 145.598 19.6593C145.473 19.4726 145.274 19.3374 145.043 19.2819C144.812 19.2263 144.567 19.2547 144.358 19.3612V19.3616Z" fill="black"/>
<path d="M147.195 21.4153C150.534 22.9866 153.198 25.5467 154.755 28.6811C154.877 28.8703 155.076 29.0077 155.308 29.0636C155.54 29.1194 155.786 29.0893 155.994 28.9797C156.197 28.8648 156.345 28.6825 156.405 28.4705C156.466 28.2585 156.435 28.0333 156.319 27.8416C154.614 24.4538 151.724 21.6863 148.109 19.9791C147.9 19.8728 147.655 19.8445 147.424 19.9001C147.194 19.9556 146.995 20.0907 146.87 20.2772C146.751 20.4682 146.718 20.6943 146.779 20.9071C146.84 21.1199 146.989 21.3023 147.195 21.4153Z" fill="black"/>
<path d="M156.345 29.3169C156.462 29.2315 156.597 29.1686 156.742 29.1319C156.887 29.0953 157.038 29.0857 157.186 29.1036C157.335 29.1216 157.478 29.1667 157.608 29.2364C157.737 29.3062 157.85 29.399 157.94 29.5094C158.117 29.8481 158.195 30.2235 158.166 30.5984C158.183 31.04 158.15 31.482 158.067 31.9174C157.756 33.485 156.886 35.3624 154.987 35.6746C154.756 35.7347 154.56 35.8756 154.442 36.0671C154.323 36.2585 154.291 36.4851 154.353 36.6979C154.421 36.9082 154.575 37.0862 154.783 37.1947C154.99 37.3032 155.236 37.3338 155.467 37.2801C158.355 36.8052 159.732 33.8118 159.949 31.4093C160.061 30.1768 159.953 28.7676 158.792 27.9689C158.241 27.604 157.571 27.4223 156.893 27.4539C156.215 27.4854 155.569 27.7282 155.061 28.1423C154.893 28.2991 154.799 28.5103 154.799 28.7304C154.799 28.9505 154.893 29.1618 155.061 29.3186C155.234 29.4702 155.463 29.5548 155.702 29.5548C155.941 29.5548 156.17 29.4702 156.343 29.3186L156.345 29.3169Z" fill="black"/>
<path d="M152.861 41.6602C154.502 39.7724 156.031 37.5628 156.111 35.0679C156.111 34.8474 156.016 34.6359 155.846 34.4799C155.676 34.3239 155.445 34.2363 155.205 34.2363C154.965 34.2363 154.734 34.3239 154.565 34.4799C154.395 34.6359 154.299 34.8474 154.299 35.0679C154.264 35.6201 154.148 36.1655 153.956 36.6896C153.891 36.8836 153.822 37.0777 153.749 37.2717C153.713 37.3657 153.652 37.4871 153.738 37.3166C153.693 37.4056 153.651 37.4959 153.604 37.5844C153.049 38.6171 152.37 39.5898 151.58 40.4847C151.416 40.6437 151.325 40.8541 151.325 41.0727C151.325 41.2912 151.416 41.5016 151.58 41.6606C151.75 41.8152 151.98 41.9019 152.22 41.9019C152.46 41.9019 152.69 41.8152 152.861 41.6606V41.6602Z" fill="black"/>
<path d="M128.659 28.1406C128.151 27.7266 127.505 27.4838 126.827 27.4523C126.149 27.4208 125.48 27.6024 124.929 27.9672C123.767 28.7639 123.661 30.1772 123.772 31.4076C123.989 33.8101 125.366 36.8036 128.253 37.2784C128.485 37.3309 128.73 37.2997 128.937 37.1914C129.144 37.0831 129.299 36.9059 129.368 36.6963C129.43 36.4834 129.398 36.2569 129.279 36.0655C129.16 35.8741 128.965 35.7331 128.734 35.673C126.836 35.3607 125.967 33.4829 125.654 31.9157C125.576 31.5046 125.543 31.0875 125.554 30.6704C125.524 30.2909 125.59 29.9103 125.747 29.5581C125.832 29.4385 125.943 29.3365 126.073 29.2586C126.203 29.1807 126.349 29.1287 126.503 29.1058C126.656 29.0829 126.813 29.0898 126.963 29.1258C127.113 29.1619 127.254 29.2264 127.375 29.3152C127.548 29.4658 127.778 29.5497 128.016 29.5497C128.254 29.5497 128.483 29.4658 128.656 29.3152C128.825 29.1584 128.919 28.9472 128.919 28.7271C128.919 28.507 128.825 28.2957 128.656 28.1389L128.659 28.1406Z" fill="black"/>
<path d="M127.703 34.9561C128.133 37.4833 129.27 39.865 131.003 41.8681C131.173 42.0227 131.403 42.1094 131.643 42.1094C131.883 42.1094 132.113 42.0227 132.284 41.8681C132.449 41.7098 132.541 41.4992 132.541 41.2802C132.541 41.0611 132.449 40.8505 132.284 40.6922C130.773 38.8925 129.796 36.7638 129.45 34.5141C129.385 34.3022 129.231 34.1224 129.023 34.0135C128.814 33.9046 128.567 33.8753 128.336 33.932C128.107 33.9946 127.913 34.1359 127.795 34.3265C127.677 34.5171 127.643 34.7422 127.701 34.9549L127.703 34.9561Z" fill="black"/>
<path d="M152.516 34.2567C153.053 33.2925 153.642 32.354 154.283 31.445C154.977 30.4064 155.776 29.4296 156.669 28.5273C156.838 28.3713 156.934 28.1598 156.934 27.9392C156.934 27.7186 156.838 27.5071 156.668 27.3512C156.498 27.1952 156.268 27.1077 156.028 27.1077C155.787 27.1077 155.557 27.1954 155.387 27.3514C153.609 29.1739 152.116 31.2156 150.953 33.4172C150.838 33.6088 150.807 33.8339 150.867 34.0458C150.928 34.2576 151.075 34.44 151.278 34.5549C151.486 34.664 151.732 34.6939 151.964 34.6382C152.196 34.5824 152.395 34.4455 152.518 34.2567H152.516Z" fill="black"/>
<path d="M126.936 28.7926C127.808 29.6837 128.596 30.641 129.292 31.6542C129.918 32.5232 130.511 33.4122 131.087 34.3095C131.679 35.231 133.246 34.3952 132.651 33.47C131.344 31.4325 129.97 29.3593 128.217 27.6162C128.047 27.4603 127.817 27.3726 127.577 27.3726C127.336 27.3726 127.106 27.4603 126.936 27.6162C126.766 27.7722 126.671 27.9838 126.671 28.2044C126.671 28.425 126.766 28.6366 126.936 28.7926H126.936Z" fill="black"/>
<path d="M141.697 32.0284C139.504 32.0724 137.317 32.2415 135.147 32.5344C134.098 32.6592 133.206 32.7195 132.221 32.9174C131.122 33.1378 130.588 33.7977 130.459 34.8043C130.404 35.2305 130.428 35.6547 130.414 36.0825C130.398 36.601 130.345 37.1142 130.358 37.6343C130.394 38.6963 130.492 39.7556 130.653 40.8078C130.741 41.8625 131.128 42.8777 131.776 43.7521C132.385 44.4521 133.139 45.0338 133.996 45.4632C137.809 47.4886 142.561 47.7917 146.744 46.7035C148.957 46.1281 151.249 45.1043 152.406 43.1787C152.926 42.1995 153.217 41.1315 153.261 40.0431C153.427 38.8653 153.484 37.6767 153.431 36.49C153.348 35.4638 153.567 34.1656 152.654 33.3885C151.872 32.7232 150.446 32.7394 149.457 32.6238C146.886 32.2797 144.295 32.0808 141.699 32.0284C140.533 32.0246 140.531 33.6879 141.699 33.6916C143.706 33.7246 145.709 33.8584 147.7 34.0925C148.627 34.1889 149.557 34.2825 150.48 34.411C150.735 34.4467 151.271 34.4588 151.462 34.6363C151.595 34.7611 151.574 35.3058 151.578 35.507C151.616 37.3819 151.707 39.2739 151.297 41.1288C150.892 42.955 149.304 44.1197 147.469 44.7422C143.847 45.9994 139.842 45.9596 136.25 44.6307C134.778 44.0831 133.18 43.2486 132.697 41.7675C132.467 40.9287 132.328 40.0714 132.28 39.2078C132.18 38.2274 132.161 37.2415 132.221 36.2584C132.243 35.8655 132.204 35.4684 132.242 35.0763C132.235 34.9198 132.268 34.764 132.338 34.6214C132.311 34.6538 132.362 34.5952 132.497 34.5673C133.367 34.3885 134.264 34.3025 135.147 34.1981C137.317 33.9051 139.504 33.7361 141.697 33.692C142.862 33.6875 142.864 32.0242 141.697 32.0284Z" fill="black"/>
<path d="M134.617 29.6907C134.39 30.3614 134.538 31.9045 135.923 32.0355C137.752 32.0255 137.849 30.1602 137.233 29.2832C136.729 28.5651 135.247 28.2666 134.617 29.6907Z" fill="black"/>
<path d="M149.266 29.6907C149.493 30.3614 149.345 31.9045 147.961 32.0355C146.131 32.0255 146.034 30.1602 146.649 29.2832C147.154 28.5651 148.636 28.2666 149.266 29.6907Z" fill="black"/>
</g>
<defs>
<clipPath id="clip0_121_17">
<rect width="68" height="195" fill="white" transform="translate(108 7)"/>
</clipPath>
</defs>
</svg>
