<svg width="294" height="209" viewBox="0 0 294 209" fill="none" xmlns="http://www.w3.org/2000/svg">
<g clip-path="url(#clip0_121_16)">
<path d="M214.428 43.4347C218.717 47.6038 219.439 53.0027 219.439 53.0027C219.394 54.3633 219.677 55.7169 220.271 56.9732C222.536 61.7179 208.842 76.0263 207.55 73.1131L205.569 69.9112C204.315 67.8844 201.551 66.0533 201.21 65.7915C201.001 65.6306 200.734 65.5424 200.457 65.5435C200.18 65.5445 199.914 65.6348 199.707 65.7972C197.936 67.2012 194.615 68.3444 191.872 68.6299C190.473 68.7755 188.908 68.5387 187.16 67.447C185.103 66.1614 182.751 63.0947 181.827 61.6742C181.268 61.1059 180.558 60.6674 179.762 60.3969C178.505 59.9859 176.851 59.9676 176.751 58.3247C176.741 57.7022 176.966 57.0944 177.39 56.5969C179.422 54.0135 177.395 50.2172 175.941 47.4793C175.017 46.0571 174.273 44.5499 173.721 42.9847C173.085 41.2489 172.662 39.4582 172.459 37.643C172.459 37.643 171.006 32.585 186.501 33.578C202.627 34.611 209.113 38.2679 214.428 43.4347Z" fill="white"/>
<path d="M216.83 137.971C216.397 137.974 215.964 137.947 215.537 137.888C214.207 137.595 215.504 123.989 214.681 119.792C214.244 116.235 213.091 114.431 211.195 110.458C209.046 107.989 204.684 102.545 203.333 96.4379C202.896 94.4644 204.126 90.492 204.819 88.0435C205.819 84.5154 206.305 77.9296 206.968 73.9659C210.367 68.89 216.095 62.3306 220.695 56.4331L221.288 56.3948C224.856 56.162 237.31 66.1041 240.755 70.2314C245.04 75.4604 248.914 83.7342 250.574 89.1406C253.166 97.5825 255.445 110.174 255.794 118.303C255.941 124.689 255.941 129.819 255.425 135.487C249.51 135.898 243.116 136.331 236.947 136.769L216.83 137.971Z" fill="white"/>
<path d="M173.597 114.651L173.31 114.728C172.296 114.951 171.398 115.356 169.648 115.801C167.907 116.211 166.135 116.511 164.345 116.697C162.544 116.915 161.448 117.002 159.973 118.024C158.814 118.827 157.651 119.627 156.487 120.425C155.438 121.148 152.95 122.202 153.72 123.597C153.72 123.597 153.776 123.7 153.878 123.883C155.304 123.883 156.714 123.88 157.972 123.88C157.01 124.611 156.439 125.444 157.188 126.266C158.627 127.848 162.803 126.17 164.21 125.369C164.556 125.173 165.119 124.491 165.426 124.404C166.05 124.229 167.031 124.683 167.701 124.819C169.149 125.095 170.632 125.195 172.109 125.116C174.601 125.033 176.694 123.191 178.372 121.655L178.59 121.512C176.845 119.701 174.35 116.798 173.597 114.651Z" fill="white"/>
<path d="M180.36 123.461C184.104 122.12 204.011 118.074 205.908 116.679C206.482 116.257 208.917 113.799 211.247 110.566C211.23 110.531 211.213 110.495 211.195 110.459C209.047 107.991 204.685 102.546 203.334 96.4393C202.841 94.2136 204.469 89.4457 205.055 87.1889C203.278 90.6566 198.867 99.1321 197.688 102.907C192.362 105.336 178.264 108.841 173.874 112.375C171.223 114.509 179.86 122.929 180.36 123.201" fill="white"/>
<path d="M221.525 108.793C221.685 107.94 221.715 105.267 220.832 104.094C220.311 102.511 217.755 98.1381 217.053 96.5255C213.533 88.4466 214.132 75.5838 223.211 73.6504C234.88 71.1654 238.726 80.6851 241.251 89.2654C241.888 91.4303 243.655 96.9626 244.228 98.7998C244.734 101.147 245.657 103.405 245.409 106.022C245.221 108.018 243.648 111.519 242.996 113.248C241.908 116.503 241.006 120.415 239.793 125.754C238.621 130.924 235.487 139.409 234.315 141.929C229.884 141.349 222.217 140.581 216.834 139.131C217.262 136.82 217.573 135.571 217.874 134.546C219.174 127.009 220.489 115.516 221.619 108.29" fill="white"/>
<path d="M218.736 139.594L218.614 139.975C218.56 140.482 216.709 141.599 216.269 142.232C215.608 143.178 213.524 146.252 213.057 147.318C212.26 149.138 212.071 149.926 212.327 150.66C212.903 152.298 214.456 151.447 216.05 150.742C215.604 152.476 215.248 153.834 215.047 154.584C214.732 155.758 213.771 157.736 213.496 158.882C213.475 159.199 213.558 159.515 213.734 159.791C213.911 160.068 214.174 160.294 214.492 160.442C215.116 160.639 216.5 160.442 216.977 159.862L217.223 159.564C216.939 160.3 216.657 160.969 216.467 161.37L216.462 161.379L216.408 161.46C215.699 162.516 216.02 163.372 216.633 163.795C217.447 164.355 218.739 164.28 219.498 163.235C219.891 162.571 220.242 161.888 220.549 161.19L220.575 161.134L220.538 161.321C220.388 162.081 220.781 162.831 221.458 163.053C222.402 163.363 223.301 163.11 223.911 162.024C224.146 161.688 224.818 159.788 225.236 158.474C225.306 158.491 225.349 158.501 225.349 158.501C225.364 158.644 225.412 158.783 225.488 158.91C225.565 159.038 225.669 159.15 225.795 159.241C225.921 159.333 226.066 159.401 226.222 159.443C226.378 159.485 226.541 159.499 226.704 159.484C227.296 159.493 228.849 159.446 229.293 157.654C229.62 156.33 230.045 155.009 230.425 153.29C230.668 152.187 230.984 151.33 231.155 150.119C231.544 147.368 231.084 144.459 231.925 141.781L231.965 141.633C228.096 141.16 222.98 140.543 218.736 139.594Z" fill="white"/>
<path d="M217.543 25.2902C219.008 27.1547 220.171 29.1908 220.998 31.3394C222.589 34.5087 223.21 39.209 222.238 42.3211C221.354 45.1545 220.729 46.4552 220.147 48.9237C219.85 49.9138 219.638 50.9222 219.511 51.9403C215.321 52.2222 211.499 51.3347 209.354 49.4495C209.354 49.4495 207.051 47.2185 207.09 46.8794C207.271 45.4357 207 43.9758 206.307 42.6584C205.717 41.5767 204.641 40.7268 203.283 40.6631C202.82 40.6489 202.358 40.7165 201.924 40.8621C201.491 41.0077 201.095 41.2283 200.76 41.5109C200.506 41.7256 200.284 41.9677 200.098 42.2313C194.677 41.8067 189.72 40.6989 185.958 38.7834C185.365 38.9866 184.822 39.1743 184.822 39.1743C182.092 39.9838 176.414 39.7782 173.882 38.2085L172.43 37.3075C172.024 32.5499 173.6 28.8258 176.017 25.2212C181.505 17.0361 198.33 13.1159 205.51 18.0158C210.471 18.771 214.601 21.5779 217.543 25.2902Z" fill="#4DD0E1"/>
<path d="M260.185 129.016C263.316 129.016 282.735 129.008 286.06 129.008V124.244C282.736 124.244 263.317 124.253 260.185 124.253V129.016Z" fill="#4DD0E1"/>
<path d="M210.275 123.576C207.032 123.576 181.201 123.584 178.147 123.584L176.015 123.618C174.848 124.439 173.545 125.072 172.11 125.121C170.632 125.2 169.149 125.1 167.702 124.824C167.032 124.688 166.051 124.234 165.427 124.408C165.119 124.494 164.556 125.176 164.211 125.374C162.803 126.174 158.627 127.852 157.188 126.271C156.448 125.457 156.999 124.635 157.942 123.91L157.722 123.914C154.479 123.914 139.994 123.922 136.941 123.922V128.68C139.994 128.68 207.092 128.672 210.334 128.672L210.275 123.576Z" fill="#4DD0E1"/>
<path d="M221.287 57.2533C222.539 57.2533 222.541 55.5363 221.287 55.5363C220.033 55.5363 220.033 57.2533 221.287 57.2533Z" fill="black"/>
<path d="M216.83 137.113C216.607 137.11 216.363 137.079 216.14 137.096C215.997 137.107 216.437 137.135 216.171 137.092C216.002 137.046 215.826 137.027 215.65 137.036C215.887 136.95 216.144 137.251 216.217 137.342C216.192 137.306 216.168 137.269 216.148 137.231C216.319 137.514 216.189 137.321 216.16 137.225C216.113 137.056 216.075 136.89 216.041 136.719C216.029 136.663 216.008 136.479 216.043 136.741C216.035 136.685 216.026 136.63 216.02 136.575C216.009 136.475 215.997 136.376 215.988 136.276C215.96 135.993 215.94 135.709 215.925 135.424C215.891 134.775 215.879 134.125 215.874 133.476C215.849 130.313 215.984 127.151 215.945 123.988C215.962 122.534 215.859 121.082 215.634 119.642C215.564 119.423 215.399 119.238 215.175 119.126C214.951 119.013 214.686 118.983 214.438 119.042C214.192 119.107 213.985 119.253 213.858 119.45C213.731 119.647 213.696 119.879 213.758 120.098C213.768 120.156 213.779 120.214 213.788 120.273C213.822 120.484 213.762 120.073 213.791 120.292C213.808 120.425 213.826 120.559 213.84 120.692C213.875 121.017 213.901 121.343 213.921 121.669C213.966 122.377 213.986 123.086 213.996 123.796C214.022 125.481 213.994 127.166 213.968 128.851C213.944 130.452 213.913 132.055 213.93 133.656C213.905 134.865 213.989 136.074 214.181 137.271C214.229 137.698 214.421 138.103 214.734 138.431C214.875 138.559 215.051 138.653 215.244 138.705C215.281 138.715 216.078 138.819 215.654 138.748C216.042 138.806 216.436 138.833 216.83 138.83C218.082 138.843 218.083 137.126 216.83 137.113Z" fill="black"/>
<path d="M203.055 89.014C201.829 91.4106 200.621 93.8166 199.468 96.2429C198.411 98.3357 197.503 100.485 196.75 102.677L197.195 102.164C194.731 103.282 192.12 104.077 189.462 104.96C186.238 106.029 183.007 107.09 179.86 108.327C178.488 108.853 177.15 109.445 175.851 110.098C174.878 110.599 173.725 111.171 173 111.946C171.555 113.49 172.959 115.837 173.905 117.278C175.168 119.137 176.628 120.884 178.267 122.498C178.676 122.937 179.116 123.354 179.586 123.744C179.776 123.929 180.023 124.062 180.296 124.128C180.57 124.194 180.859 124.191 181.13 124.118C181.491 124.005 181.857 123.901 182.224 123.8C187.275 122.412 192.44 121.337 197.534 120.085C199.793 119.53 202.067 118.98 204.273 118.276C204.956 118.09 205.615 117.838 206.236 117.525C207.168 116.998 207.886 116.079 208.566 115.331C209.258 114.57 209.926 113.791 210.567 112.995C210.695 112.798 210.73 112.564 210.665 112.345C210.6 112.125 210.439 111.937 210.218 111.82C209.993 111.71 209.73 111.681 209.482 111.738C209.234 111.796 209.021 111.936 208.887 112.128C207.944 113.32 206.92 114.459 205.82 115.541C205.685 115.67 205.549 115.8 205.406 115.922C205.356 115.965 205.299 116.005 205.252 116.05C205.112 116.183 205.476 115.94 205.307 116.012C205.119 116.091 204.945 116.196 204.754 116.274C204.694 116.299 204.633 116.321 204.573 116.345C204.424 116.407 204.78 116.274 204.581 116.343C204.421 116.398 204.262 116.455 204.102 116.509C203.745 116.628 203.384 116.74 203.022 116.847C202.097 117.123 201.163 117.375 200.227 117.62C195.516 118.853 190.749 119.914 186.009 121.058C184.132 121.512 182.227 121.939 180.398 122.532L181.147 122.619C181.092 122.589 180.921 122.455 180.852 122.459C180.749 122.463 181.055 122.537 181.007 122.566C180.967 122.539 180.93 122.509 180.896 122.477C180.774 122.37 180.65 122.262 180.531 122.15C180.137 121.783 179.758 121.403 179.385 121.019C178.34 119.958 177.371 118.841 176.483 117.673C176.002 117.05 175.562 116.403 175.164 115.735C175.079 115.589 174.996 115.442 174.917 115.293C174.879 115.222 174.842 115.148 174.804 115.076C174.791 115.049 174.731 114.923 174.798 115.067C174.776 115.02 174.754 114.973 174.734 114.926C174.61 114.652 174.508 114.371 174.427 114.085C174.409 114.022 174.395 113.958 174.38 113.895C174.372 113.863 174.339 113.664 174.358 113.795C174.376 113.926 174.352 113.735 174.35 113.702C174.347 113.636 174.343 113.57 174.343 113.503C174.343 113.45 174.355 113.393 174.351 113.34C174.343 113.212 174.288 113.505 174.354 113.337C174.373 113.29 174.387 113.241 174.396 113.192C174.42 113.026 174.321 113.287 174.388 113.192C174.419 113.152 174.446 113.11 174.469 113.066C174.528 112.945 174.338 113.176 174.448 113.086C174.557 112.995 174.667 112.898 174.784 112.81C174.851 112.76 174.917 112.711 174.985 112.663C175.019 112.639 175.054 112.614 175.089 112.59C175.074 112.6 174.981 112.661 175.071 112.602C175.247 112.485 175.427 112.371 175.609 112.261C177.249 111.317 178.982 110.505 180.786 109.834C182.894 109.003 185.043 108.266 187.199 107.542C189.317 106.831 191.445 106.143 193.555 105.413C194.479 105.094 195.399 104.765 196.312 104.418C197.054 104.135 198.367 103.82 198.643 103.094C199.351 101.234 200.084 99.4044 200.931 97.5886C201.922 95.4645 202.971 93.3619 204.035 91.2661C204.269 90.8044 204.504 90.343 204.74 89.8818C204.863 89.6836 204.895 89.4516 204.83 89.2332C204.765 89.0148 204.608 88.8266 204.391 88.7071C204.168 88.594 203.903 88.5629 203.654 88.6205C203.405 88.6781 203.192 88.8198 203.06 89.015L203.055 89.014Z" fill="black"/>
<path d="M255.064 138.417C255.064 139.557 255.113 140.697 255.07 141.837C255.059 142.109 255.044 142.381 255.02 142.653C254.997 142.899 254.973 143.118 254.939 143.304C254.896 143.547 254.842 143.788 254.772 144.026C254.738 144.147 254.698 144.266 254.654 144.384C254.643 144.414 254.517 144.71 254.573 144.598C254.451 144.797 254.419 145.028 254.484 145.247C254.549 145.465 254.706 145.653 254.922 145.773C255.145 145.886 255.41 145.918 255.659 145.86C255.908 145.802 256.122 145.661 256.253 145.465C257.319 143.266 257.007 140.749 257.011 138.418C257.011 137.313 255.065 137.312 255.065 138.418L255.064 138.417Z" fill="black"/>
<path d="M222.463 109.021C222.608 108.149 222.629 107.264 222.525 106.387C222.477 105.846 222.374 105.31 222.217 104.786C222.138 104.546 222.04 104.31 221.924 104.082C221.881 103.992 221.833 103.904 221.78 103.818C221.679 103.661 221.792 103.885 221.717 103.714C220.958 101.976 220.067 100.295 219.17 98.6085C218.953 98.2007 218.736 97.7925 218.524 97.3826C218.429 97.1975 218.334 97.0119 218.241 96.8256C218.2 96.7484 218.164 96.6707 218.126 96.5931C218.08 96.499 218.13 96.6031 218.137 96.6174C218.116 96.5727 218.097 96.5277 218.074 96.4826C217.71 95.6733 217.399 94.8464 217.142 94.0058C216.582 92.2065 216.231 90.3614 216.095 88.4992C215.839 84.9937 216.206 81.1812 218.183 78.1443C218.983 76.8397 220.196 75.7687 221.674 75.0619C222.03 74.8904 222.404 74.7515 222.792 74.6473C224.368 74.2188 226.019 74.0453 227.664 74.1351C229.48 74.2591 231.216 74.8452 232.662 75.8224C234.141 76.8843 235.366 78.1952 236.265 79.6788C238.355 82.9168 239.423 86.5608 240.505 90.1361C241.072 92.0148 241.668 93.8874 242.259 95.7607C242.523 96.5973 242.787 97.434 243.052 98.2708C243.368 99.2742 243.598 100.296 243.863 101.311C244.245 102.603 244.451 103.93 244.477 105.264C244.433 106.301 244.225 107.328 243.859 108.315C243.213 110.266 242.315 112.142 241.711 114.105C240.301 118.663 239.523 123.343 238.245 127.925C237.102 131.99 235.728 136.001 234.128 139.944C233.891 140.533 233.648 141.122 233.379 141.701L234.576 141.101C228.73 140.339 222.773 139.821 217.096 138.303L217.776 139.359C217.968 138.325 218.172 137.293 218.418 136.267C218.595 135.53 218.811 134.81 218.936 134.064C219.274 132.047 219.575 130.025 219.865 128.001C220.488 123.648 221.048 119.287 221.641 114.931C221.932 112.792 222.227 110.653 222.56 108.518C222.62 108.299 222.583 108.068 222.457 107.872C222.331 107.676 222.125 107.529 221.881 107.462C221.632 107.404 221.367 107.433 221.143 107.546C220.919 107.658 220.754 107.843 220.684 108.062C219.392 116.34 218.52 124.666 217.17 132.938C216.844 134.941 216.272 136.904 215.9 138.903C215.838 139.122 215.874 139.354 216.001 139.55C216.127 139.747 216.334 139.893 216.579 139.959C222.255 141.477 228.214 141.995 234.059 142.757C234.308 142.808 234.568 142.774 234.79 142.663C235.012 142.552 235.178 142.372 235.256 142.157C236.835 138.582 238.178 134.929 239.276 131.217C240.75 126.538 241.609 121.742 242.88 117.021C243.156 115.995 243.451 114.973 243.778 113.959C244.079 113.024 244.478 112.116 244.841 111.199C245.717 108.984 246.574 106.741 246.396 104.363C246.246 102.948 245.967 101.546 245.561 100.171C245.32 99.2548 245.097 98.3434 244.811 97.4373C244.203 95.5057 243.588 93.5741 242.987 91.6392C241.835 87.9383 240.839 84.191 239.026 80.6836C237.318 77.3763 234.719 74.2231 230.703 72.9571C228.506 72.3276 226.161 72.2197 223.902 72.6445C221.889 72.9339 220.017 73.743 218.524 74.9696C215.528 77.4947 214.443 81.3522 214.158 84.8781C213.846 88.7939 214.464 92.7241 215.975 96.4164C216.699 98.1606 217.688 99.82 218.569 101.504C219 102.327 219.39 103.058 219.724 103.863C220.054 104.662 220.425 105.276 220.554 106.149C220.622 106.641 220.651 107.137 220.643 107.632C220.643 107.826 220.635 108.021 220.622 108.214C220.615 108.309 220.604 108.404 220.597 108.5C220.58 108.712 220.611 108.442 220.59 108.565C220.529 108.784 220.566 109.015 220.692 109.212C220.819 109.408 221.025 109.554 221.269 109.621C221.518 109.68 221.783 109.65 222.007 109.537C222.231 109.425 222.396 109.24 222.466 109.021L222.463 109.021Z" fill="black"/>
<path d="M217.678 139.746C217.65 139.886 217.704 139.686 217.721 139.689C217.721 139.689 217.657 139.789 217.646 139.802C217.759 139.678 217.541 139.904 217.496 139.945C217.263 140.159 217.009 140.36 216.761 140.56C216.26 140.922 215.813 141.337 215.43 141.797C214.767 142.682 214.182 143.624 213.589 144.546C212.911 145.554 212.332 146.612 211.857 147.706C211.407 148.799 210.983 150.001 211.496 151.136C211.635 151.508 211.899 151.834 212.253 152.071C212.607 152.308 213.035 152.443 213.479 152.459C214.366 152.473 215.212 152.076 215.982 151.734C217.1 151.236 216.116 149.755 215 150.251C214.523 150.481 214.011 150.647 213.479 150.742C213.551 150.733 213.467 150.742 213.458 150.739C213.43 150.725 213.423 150.72 213.395 150.68C213.334 150.592 213.288 150.497 213.257 150.397C213.241 150.35 213.186 150.111 213.201 150.203C213.216 150.296 213.195 150.075 213.195 150.024C213.195 149.932 213.201 149.839 213.211 149.746C213.211 149.741 213.219 149.697 213.247 149.574C213.279 149.437 213.318 149.301 213.36 149.166C213.451 148.875 213.563 148.588 213.676 148.303C213.757 148.103 213.84 147.904 213.926 147.705C213.953 147.642 213.98 147.579 214.007 147.516C214.053 147.411 213.902 147.714 214.007 147.514C214.478 146.619 215.033 145.763 215.591 144.91C215.896 144.444 216.206 143.98 216.52 143.517C216.703 143.248 216.99 142.795 217.128 142.632C217.541 142.232 217.985 141.858 218.458 141.513C218.88 141.165 219.446 140.728 219.552 140.2C219.613 139.981 219.577 139.749 219.451 139.553C219.324 139.356 219.117 139.21 218.872 139.144C218.624 139.085 218.359 139.115 218.135 139.228C217.911 139.34 217.746 139.525 217.676 139.744L217.678 139.746Z" fill="black"/>
<path d="M215.741 147.334C215.487 148.501 215.332 149.677 215.033 150.838C214.736 151.986 214.445 153.136 214.134 154.282C213.828 155.406 213.317 156.478 212.91 157.575C212.664 158.086 212.532 158.634 212.521 159.189C212.596 159.85 212.952 160.461 213.517 160.899C214.612 161.727 216.776 161.444 217.67 160.47C217.846 160.305 217.943 160.088 217.943 159.863C217.943 159.637 217.846 159.42 217.67 159.256C217.487 159.096 217.239 159.007 216.982 159.007C216.724 159.007 216.477 159.096 216.294 159.256C215.962 159.618 215.42 159.631 214.882 159.652C214.932 159.649 214.868 159.668 214.792 159.613C214.727 159.553 214.668 159.488 214.618 159.417C214.521 159.301 214.467 159.161 214.463 159.017C214.61 158.38 214.831 157.759 215.124 157.163C215.367 156.555 215.62 155.947 215.831 155.329C216.226 154.166 216.479 152.956 216.785 151.774C217.127 150.452 217.328 149.12 217.618 147.791C217.679 147.572 217.643 147.34 217.517 147.144C217.39 146.947 217.183 146.801 216.938 146.735C216.689 146.677 216.424 146.707 216.201 146.819C215.977 146.931 215.812 147.116 215.741 147.335V147.334Z" fill="black"/>
<path d="M219.602 161.093C219.49 161.582 219.532 162.09 219.724 162.559C219.921 163.049 220.305 163.463 220.81 163.73C221.238 163.94 221.721 164.045 222.21 164.033C222.699 164.021 223.175 163.894 223.589 163.663C224.086 163.354 224.487 162.939 224.754 162.457C224.882 162.261 224.917 162.027 224.851 161.808C224.785 161.589 224.623 161.402 224.402 161.288C224.18 161.174 223.916 161.141 223.667 161.198C223.419 161.255 223.205 161.396 223.074 161.591C223.027 161.673 222.977 161.755 222.923 161.834C222.904 161.863 222.798 162.046 222.761 162.049C222.777 162.049 222.923 161.87 222.805 161.995C222.779 162.022 222.753 162.048 222.726 162.074C222.669 162.127 222.604 162.172 222.546 162.225C222.477 162.286 222.759 162.094 222.623 162.172C222.594 162.188 222.566 162.207 222.536 162.222C222.507 162.237 222.355 162.287 222.34 162.315C222.35 162.297 222.599 162.232 222.444 162.274C222.413 162.282 222.382 162.292 222.351 162.299C222.276 162.317 222.199 162.33 222.122 162.339L222.381 162.309C222.237 162.322 222.092 162.321 221.948 162.305L222.207 162.336C222.055 162.315 221.906 162.283 221.761 162.24C221.599 162.196 221.97 162.337 221.831 162.267L221.717 162.209C221.585 162.144 221.866 162.331 221.789 162.262C221.758 162.235 221.722 162.211 221.69 162.183C221.659 162.155 221.64 162.134 221.614 162.111C221.498 162.004 221.741 162.287 221.655 162.157C221.612 162.09 221.568 162.026 221.529 161.958C221.476 161.868 221.613 162.161 221.563 162.027C221.548 161.986 221.532 161.945 221.518 161.904C221.492 161.819 221.473 161.732 221.46 161.645L221.495 161.873C221.476 161.721 221.476 161.569 221.495 161.417L221.46 161.645C221.465 161.614 221.47 161.583 221.476 161.552C221.537 161.329 221.502 161.093 221.378 160.891C221.282 160.745 221.138 160.627 220.966 160.553C220.795 160.478 220.602 160.45 220.412 160.472C220.222 160.494 220.043 160.565 219.899 160.676C219.755 160.787 219.65 160.933 219.6 161.096L219.602 161.093Z" fill="black"/>
<path d="M215.57 161.027C215.206 161.539 215.022 162.135 215.039 162.739C215.074 163.294 215.323 163.822 215.745 164.235C216.116 164.577 216.591 164.818 217.113 164.929C217.635 165.041 218.182 165.017 218.689 164.862C219.373 164.635 219.954 164.216 220.341 163.669C220.469 163.472 220.504 163.238 220.439 163.018C220.374 162.798 220.213 162.61 219.992 162.494C219.767 162.384 219.504 162.355 219.256 162.412C219.008 162.469 218.794 162.609 218.66 162.802C218.616 162.861 218.571 162.918 218.523 162.974L218.675 162.8C218.549 162.943 218.404 163.071 218.242 163.182L218.439 163.048C218.301 163.139 218.152 163.215 217.993 163.274L218.226 163.188C218.075 163.241 217.919 163.279 217.758 163.299L218.017 163.268C217.85 163.286 217.68 163.286 217.513 163.266L217.772 163.296C217.619 163.276 217.469 163.24 217.326 163.189L217.558 163.275C217.404 163.218 217.259 163.143 217.127 163.053L217.324 163.188C217.214 163.111 217.116 163.023 217.031 162.925L217.183 163.099C217.103 163.004 217.036 162.901 216.983 162.793L217.081 162.998C217.021 162.871 216.981 162.738 216.959 162.602L216.994 162.83C216.974 162.679 216.976 162.526 216.999 162.375L216.964 162.603C216.997 162.414 217.056 162.229 217.139 162.053L217.041 162.258C217.102 162.133 217.172 162.011 217.249 161.894C217.38 161.697 217.416 161.463 217.351 161.243C217.285 161.022 217.123 160.834 216.9 160.719C216.677 160.604 216.412 160.572 216.162 160.63C215.913 160.688 215.699 160.831 215.569 161.027L215.57 161.027Z" fill="black"/>
<path d="M230.991 141.555C230.064 144.605 230.729 147.786 230.043 150.858C229.726 152.277 229.363 153.698 228.982 155.105C228.802 155.768 228.613 156.429 228.441 157.094C228.315 157.584 228.204 158.065 227.807 158.371C227.8 158.377 227.721 158.422 227.604 158.484C227.582 158.496 227.408 158.564 227.516 158.525C227.61 158.491 227.446 158.544 227.429 158.548C227.323 158.572 227.219 158.594 227.113 158.615C226.972 158.644 227.289 158.602 227.152 158.611C227.107 158.615 227.061 158.62 227.016 158.621C226.849 158.633 226.68 158.629 226.514 158.608C226.486 158.603 226.352 158.528 226.414 158.587C226.35 158.49 226.307 158.384 226.288 158.273C226.012 157.196 224.136 157.652 224.411 158.729C224.763 160.107 226.208 160.503 227.63 160.271C229.094 160.032 229.953 158.968 230.265 157.75C231.099 154.497 232.192 151.262 232.301 147.91C232.365 145.935 232.281 143.936 232.866 142.011C233.19 140.943 231.314 140.487 230.99 141.555H230.991Z" fill="black"/>
<path d="M225.629 152.589C225.255 154.258 224.98 155.956 224.498 157.604C224.268 158.385 224.007 159.16 223.734 159.929C223.6 160.306 223.464 160.68 223.316 161.054C223.259 161.195 223.199 161.335 223.14 161.475C223.063 161.658 223.162 161.434 223.14 161.473C223.118 161.511 223.097 161.551 223.072 161.589C222.441 162.546 224.122 163.411 224.752 162.455C225.097 161.844 225.366 161.202 225.554 160.539C225.838 159.743 226.111 158.941 226.351 158.134C226.848 156.462 227.125 154.738 227.504 153.044C227.566 152.824 227.53 152.592 227.404 152.395C227.277 152.199 227.07 152.053 226.825 151.987C226.576 151.929 226.311 151.959 226.087 152.071C225.863 152.183 225.698 152.369 225.628 152.587L225.629 152.589Z" fill="black"/>
<path d="M222.212 152.198C221.796 153.971 221.301 155.73 220.883 157.502C220.425 159.352 219.676 161.135 218.66 162.802C218.071 163.777 219.75 164.645 220.34 163.669C222.401 160.257 223.207 156.402 224.089 152.655C224.342 151.577 222.467 151.117 222.212 152.198H222.212Z" fill="black"/>
<path d="M218.747 151.395C218.395 153.228 217.655 155.003 217.155 156.807C216.739 158.286 216.197 159.734 215.533 161.14C215.466 161.359 215.5 161.594 215.627 161.791C215.754 161.989 215.964 162.135 216.213 162.196C216.461 162.251 216.724 162.219 216.947 162.107C217.17 161.996 217.335 161.813 217.409 161.596C218.074 160.191 218.616 158.742 219.031 157.264C219.531 155.46 220.271 153.687 220.623 151.851C220.684 151.632 220.648 151.4 220.521 151.204C220.395 151.007 220.188 150.861 219.944 150.795C219.695 150.736 219.43 150.766 219.206 150.878C218.982 150.991 218.817 151.176 218.747 151.395Z" fill="black"/>
<path d="M176.599 124.443C180.535 124.443 184.471 124.442 188.407 124.44L205.186 124.435H210.246C211.498 124.435 211.5 122.718 210.246 122.718C206.265 122.718 202.285 122.719 198.305 122.721L181.562 122.726H176.598C175.346 122.726 175.344 124.443 176.598 124.443L176.599 124.443Z" fill="black"/>
<path d="M136.94 129.539H145.129L162.224 129.536L182.529 129.534L200.342 129.532H209.961H210.3C211.553 129.532 211.555 127.815 210.3 127.815H202.022H184.882L164.576 127.821L146.803 127.824H137.266H136.94C135.688 127.824 135.686 129.541 136.94 129.541V129.539Z" fill="black"/>
<path d="M260.14 125.112C263.205 125.112 266.27 125.111 269.336 125.109L281.909 125.105H286.06C287.312 125.105 287.314 123.388 286.06 123.388C282.952 123.388 279.842 123.389 276.732 123.391L264.196 123.395H260.14C258.888 123.395 258.886 125.112 260.14 125.112Z" fill="black"/>
<path d="M260.14 129.874C263.205 129.874 266.27 129.873 269.336 129.872L281.909 129.867H286.06C287.312 129.867 287.314 128.15 286.06 128.15C282.952 128.15 279.842 128.151 276.732 128.153L264.196 128.157H260.14C258.888 128.157 258.886 129.874 260.14 129.874Z" fill="black"/>
<path d="M139.392 131.191C139.337 131.633 139.354 132.08 139.445 132.518C139.556 132.893 139.762 133.241 140.049 133.536C140.335 133.831 140.693 134.064 141.097 134.218C142.489 134.703 144.015 134.806 145.475 134.514C146.448 134.346 147.444 133.889 147.896 133.072C148.178 132.459 148.289 131.795 148.22 131.136C148.22 130.909 148.118 130.69 147.935 130.529C147.753 130.368 147.505 130.278 147.247 130.278C146.989 130.278 146.742 130.368 146.559 130.529C146.377 130.69 146.274 130.909 146.274 131.136C146.274 131.32 146.291 131.503 146.289 131.687C146.289 131.794 146.279 131.897 146.272 132.002C146.261 132.181 146.33 131.772 146.274 131.974C146.258 132.035 146.245 132.097 146.225 132.157C146.21 132.203 146.114 132.382 146.202 132.236C146.294 132.081 146.171 132.283 146.152 132.312C146.134 132.341 146.044 132.429 146.051 132.45C146.029 132.381 146.217 132.291 146.097 132.393C146.06 132.424 146.026 132.457 145.991 132.49C145.969 132.51 145.929 132.527 145.913 132.551C145.86 132.63 146.116 132.444 145.958 132.521C145.89 132.555 145.826 132.598 145.757 132.631C145.721 132.649 145.453 132.755 145.58 132.711C145.734 132.658 145.51 132.73 145.499 132.734C145.427 132.755 145.354 132.775 145.28 132.793C145.174 132.818 145.066 132.84 144.958 132.859C144.885 132.872 144.811 132.882 144.737 132.893C144.58 132.915 144.878 132.88 144.711 132.893C144.363 132.923 144.013 132.937 143.664 132.934C143.501 132.932 143.337 132.926 143.174 132.916C143.09 132.911 143.007 132.903 142.923 132.898C142.891 132.896 142.727 132.875 142.9 132.898C142.643 132.866 142.39 132.815 142.143 132.745C142.051 132.719 141.809 132.593 142.021 132.71C141.943 132.667 141.853 132.638 141.774 132.595C141.74 132.578 141.709 132.56 141.676 132.541C141.541 132.473 141.626 132.565 141.716 132.577C141.66 132.571 141.567 132.461 141.526 132.424C141.504 132.404 141.484 132.38 141.461 132.36C141.343 132.264 141.538 132.439 141.525 132.436C141.491 132.43 141.422 132.293 141.403 132.269C141.27 132.08 141.435 132.292 141.409 132.302C141.406 132.302 141.347 132.144 141.343 132.129C141.322 132.067 141.311 132.004 141.294 131.941C141.251 131.778 141.308 132.191 141.302 131.969C141.299 131.862 141.292 131.755 141.297 131.647C141.304 131.494 141.332 131.343 141.337 131.191C141.337 130.963 141.235 130.745 141.052 130.584C140.87 130.423 140.623 130.332 140.364 130.332C140.106 130.332 139.859 130.423 139.676 130.584C139.494 130.745 139.392 130.963 139.392 131.191L139.392 131.191Z" fill="black"/>
<path d="M188.429 131.08C188.374 131.522 188.391 131.968 188.482 132.406C188.593 132.781 188.799 133.13 189.085 133.424C189.371 133.719 189.73 133.952 190.134 134.107C191.525 134.591 193.05 134.694 194.509 134.403C195.482 134.234 196.479 133.777 196.931 132.961C197.213 132.348 197.324 131.684 197.255 131.025C197.255 130.797 197.153 130.579 196.97 130.418C196.788 130.257 196.54 130.166 196.282 130.166C196.024 130.166 195.777 130.257 195.594 130.418C195.412 130.579 195.309 130.797 195.309 131.025C195.309 131.208 195.326 131.392 195.325 131.575C195.325 131.683 195.314 131.786 195.307 131.891C195.296 132.07 195.365 131.661 195.31 131.863C195.293 131.924 195.28 131.985 195.261 132.046C195.246 132.091 195.149 132.271 195.237 132.125C195.329 131.969 195.206 132.171 195.187 132.201C195.168 132.23 195.08 132.317 195.086 132.339C195.065 132.27 195.252 132.18 195.132 132.282C195.096 132.312 195.061 132.346 195.026 132.378C195.004 132.399 194.965 132.416 194.948 132.44C194.896 132.519 195.151 132.333 194.993 132.409C194.924 132.443 194.862 132.486 194.793 132.52C194.757 132.538 194.488 132.644 194.616 132.6C194.77 132.547 194.545 132.619 194.534 132.622C194.462 132.644 194.389 132.663 194.316 132.681C194.209 132.707 194.102 132.729 193.992 132.747C193.919 132.76 193.845 132.771 193.771 132.781C193.614 132.803 193.912 132.769 193.745 132.783C193.397 132.813 193.047 132.827 192.698 132.824C192.535 132.822 192.372 132.816 192.208 132.807C192.124 132.802 192.04 132.794 191.957 132.788C191.925 132.786 191.761 132.765 191.934 132.788C191.677 132.756 191.424 132.705 191.177 132.635C191.085 132.609 190.843 132.483 191.055 132.599C190.978 132.556 190.888 132.528 190.808 132.485C190.775 132.468 190.743 132.45 190.71 132.431C190.576 132.363 190.661 132.455 190.75 132.467C190.694 132.461 190.601 132.352 190.56 132.314C190.538 132.294 190.52 132.27 190.495 132.25C190.378 132.154 190.573 132.329 190.559 132.326C190.525 132.32 190.456 132.183 190.437 132.158C190.304 131.97 190.469 132.182 190.443 132.192C190.44 132.192 190.381 132.034 190.376 132.019C190.356 131.957 190.345 131.894 190.329 131.831C190.286 131.668 190.342 132.081 190.335 131.859C190.333 131.752 190.326 131.645 190.331 131.537C190.338 131.385 190.366 131.234 190.371 131.081C190.371 130.853 190.269 130.635 190.086 130.474C189.904 130.313 189.657 130.222 189.399 130.222C189.14 130.222 188.893 130.313 188.711 130.474C188.528 130.635 188.426 130.853 188.426 131.081L188.429 131.08Z" fill="black"/>
<path d="M276.368 131.526C276.312 131.968 276.33 132.415 276.42 132.852C276.531 133.228 276.738 133.576 277.024 133.87C277.31 134.165 277.669 134.398 278.072 134.553C279.465 135.038 280.99 135.141 282.45 134.849C283.423 134.68 284.42 134.224 284.872 133.407C285.153 132.794 285.265 132.13 285.196 131.471C285.196 131.243 285.093 131.025 284.911 130.864C284.729 130.703 284.481 130.612 284.223 130.612C283.965 130.612 283.718 130.703 283.535 130.864C283.353 131.025 283.25 131.243 283.25 131.471C283.25 131.655 283.267 131.838 283.266 132.021C283.266 132.129 283.255 132.232 283.248 132.337C283.237 132.516 283.306 132.107 283.251 132.309C283.233 132.37 283.221 132.431 283.201 132.492C283.186 132.537 283.09 132.717 283.178 132.571C283.27 132.416 283.147 132.617 283.128 132.647C283.109 132.676 283.02 132.764 283.027 132.785C283.006 132.716 283.193 132.626 283.073 132.728C283.036 132.758 283.002 132.792 282.967 132.824C282.944 132.845 282.905 132.862 282.889 132.886C282.837 132.965 283.092 132.779 282.934 132.856C282.865 132.89 282.802 132.932 282.734 132.966C282.698 132.984 282.429 133.09 282.556 133.046C282.71 132.993 282.486 133.065 282.475 133.069C282.403 133.09 282.33 133.11 282.256 133.127C282.15 133.153 282.042 133.175 281.932 133.193C281.859 133.206 281.785 133.217 281.711 133.229C281.554 133.251 281.852 133.217 281.686 133.231C281.338 133.261 280.988 133.275 280.638 133.272C280.476 133.27 280.313 133.264 280.148 133.255C280.065 133.25 279.981 133.242 279.897 133.236C279.865 133.234 279.702 133.213 279.875 133.236C279.618 133.204 279.364 133.153 279.117 133.083C279.025 133.057 278.783 132.931 278.995 133.048C278.918 133.004 278.828 132.976 278.749 132.934C278.715 132.916 278.684 132.896 278.65 132.879C278.516 132.81 278.601 132.903 278.691 132.915C278.635 132.908 278.541 132.799 278.501 132.762C278.479 132.742 278.46 132.717 278.436 132.698C278.318 132.601 278.513 132.776 278.5 132.774C278.466 132.768 278.397 132.631 278.378 132.606C278.246 132.418 278.41 132.629 278.384 132.639C278.381 132.639 278.323 132.482 278.318 132.467C278.298 132.404 278.286 132.341 278.27 132.278C278.226 132.115 278.283 132.529 278.277 132.307C278.274 132.199 278.267 132.092 278.272 131.985C278.28 131.832 278.307 131.681 278.313 131.528C278.313 131.3 278.21 131.082 278.028 130.921C277.845 130.76 277.598 130.67 277.34 130.67C277.082 130.67 276.834 130.76 276.652 130.921C276.469 131.082 276.367 131.3 276.367 131.528L276.368 131.526Z" fill="black"/>
<path d="M173.053 113.9C171.558 114.241 170.147 114.816 168.644 115.149C166.761 115.567 164.839 115.746 162.925 116.016C162.187 116.112 161.469 116.297 160.789 116.567C159.995 116.938 159.252 117.389 158.575 117.91C157.286 118.8 155.989 119.663 154.662 120.508C153.318 121.362 152.112 122.496 152.883 124.032C153.014 124.227 153.228 124.369 153.477 124.427C153.726 124.484 153.991 124.453 154.214 124.34C154.432 124.221 154.59 124.033 154.655 123.814C154.72 123.595 154.687 123.363 154.563 123.165C154.557 123.141 154.554 123.116 154.552 123.092C154.543 123.004 154.543 123.069 154.537 123.099C154.547 123.041 154.564 122.984 154.587 122.928C154.546 123.018 154.67 122.799 154.696 122.763C154.745 122.701 154.799 122.643 154.859 122.588C155.248 122.244 155.681 121.94 156.148 121.682C157.494 120.877 158.75 119.954 160.03 119.071C160.563 118.662 161.155 118.316 161.79 118.043C162.392 117.841 163.02 117.707 163.66 117.644C165.407 117.413 167.159 117.229 168.881 116.867C170.484 116.529 171.981 115.919 173.57 115.557C174.782 115.281 174.268 113.625 173.053 113.901V113.9Z" fill="black"/>
<path d="M167.732 118.557C166.909 118.766 166.066 118.912 165.214 118.992C164.341 119.116 163.514 119.422 162.802 119.884C162.19 120.286 161.642 120.77 161.007 121.143C160.678 121.337 160.326 121.501 159.983 121.675C158.359 122.494 155.367 123.897 155.935 125.944C156.248 127.073 157.466 127.663 158.694 127.765C159.971 127.872 161.308 127.509 162.478 127.089C163.575 126.761 164.582 126.232 165.432 125.536C165.534 125.442 165.634 125.348 165.739 125.257C166.008 125.023 165.78 125.221 165.782 125.211C165.836 125.039 166.034 125.482 165.661 125.227C165.774 125.244 165.889 125.254 166.004 125.257C166.222 125.302 166.435 125.364 166.647 125.428C167.465 125.665 168.31 125.824 169.167 125.903C171.09 126.099 173.083 126.096 174.845 125.318C176.478 124.596 177.807 123.41 179.061 122.264C179.931 121.468 178.557 120.253 177.685 121.05C176.752 121.976 175.694 122.798 174.536 123.5C173.968 123.828 173.338 124.065 172.676 124.199C171.935 124.3 171.183 124.324 170.437 124.268C169.603 124.252 168.773 124.16 167.961 123.994C167.335 123.804 166.696 123.65 166.047 123.532C165.72 123.494 165.388 123.527 165.079 123.63C164.771 123.732 164.495 123.9 164.277 124.118C163.997 124.413 163.662 124.663 163.286 124.858C162.378 125.318 161.405 125.668 160.391 125.898C159.911 126.018 159.414 126.073 158.915 126.061C158.718 126.061 158.521 126.03 158.336 125.968C158.217 125.927 158.107 125.866 158.012 125.789C157.898 125.691 158.007 125.803 157.917 125.694C157.883 125.65 157.853 125.604 157.827 125.556C157.839 125.577 157.903 125.655 157.846 125.589C157.829 125.556 157.818 125.521 157.813 125.485C157.85 125.664 157.822 125.555 157.82 125.507C157.817 125.473 157.818 125.439 157.823 125.404C157.847 125.279 157.782 125.553 157.823 125.428C157.842 125.368 157.925 125.187 157.849 125.33C157.894 125.25 157.944 125.172 158 125.097C158.023 125.063 158.05 125.03 158.076 124.998C158.064 125.013 157.995 125.086 158.068 125.009C158.152 124.92 158.241 124.835 158.335 124.753C159.036 124.185 159.819 123.699 160.663 123.31C161.053 123.11 161.451 122.922 161.834 122.712C162.407 122.372 162.953 121.997 163.468 121.591C164.062 121.127 164.785 120.81 165.564 120.673C166.463 120.518 167.382 120.487 168.251 120.211C168.496 120.145 168.704 119.999 168.83 119.803C168.957 119.606 168.993 119.374 168.931 119.155C168.86 118.936 168.695 118.751 168.471 118.639C168.247 118.527 167.983 118.497 167.734 118.555L167.732 118.557Z" fill="black"/>
<path d="M136.94 124.777C142.577 124.777 148.213 124.775 153.85 124.77C154.996 124.77 156.142 124.77 157.288 124.77C158.54 124.77 158.542 123.053 157.288 123.053C151.62 123.053 145.951 123.056 140.283 123.06C139.168 123.06 138.054 123.06 136.94 123.06C135.688 123.06 135.686 124.777 136.94 124.777Z" fill="black"/>
<path d="M215.703 120.222C215.467 118.041 214.861 115.903 213.903 113.882C213.363 112.722 212.783 111.578 212.227 110.424C211.859 109.659 211.162 109.007 210.62 108.327C209.217 106.581 207.968 104.743 206.885 102.829C206.278 101.751 205.746 100.642 205.294 99.5063C205.058 98.9101 204.848 98.3069 204.662 97.6967C204.573 97.4019 204.49 97.1057 204.414 96.8081C204.376 96.6591 204.34 96.5095 204.306 96.3595C204.291 96.2955 204.276 96.2311 204.265 96.1667C204.249 96.088 204.265 96.2254 204.25 96.0805C204.175 95.1512 204.245 94.2173 204.457 93.3047C204.67 92.2005 204.958 91.108 205.262 90.0209C205.824 88.0792 206.266 86.1118 206.586 84.1277C206.936 81.8269 207.194 79.5168 207.485 77.2099C207.552 76.6817 207.621 76.1534 207.693 75.6249C207.71 75.1772 207.774 74.7319 207.887 74.295C208.142 73.8141 208.455 73.3591 208.821 72.9378C209.173 72.4449 209.53 71.9553 209.894 71.4691C213.195 67.0417 216.819 62.8082 220.272 58.4724C220.697 57.9387 221.119 57.4034 221.538 56.8666L220.698 57.292C220.955 57.2751 221.212 57.2526 221.47 57.2501C221.534 57.2501 221.598 57.2623 221.662 57.2619C221.419 57.2619 221.574 57.2505 221.715 57.2773C221.87 57.3071 222.023 57.3441 222.174 57.3882C222.267 57.415 222.36 57.4443 222.452 57.4751C222.506 57.4926 222.559 57.5109 222.614 57.5302C222.786 57.5885 222.499 57.4848 222.614 57.5302C223.566 57.9198 224.481 58.3769 225.349 58.897C227.623 60.2571 229.786 61.7553 231.823 63.3805C233.933 65.0068 235.948 66.7267 237.86 68.5333C238.254 68.9096 238.641 69.292 239.02 69.6805C239.169 69.8348 239.316 69.9905 239.462 70.1477C239.538 70.2303 239.613 70.3137 239.689 70.3981L239.785 70.5054C239.833 70.5601 239.688 70.3881 239.814 70.5412C240.83 71.7853 241.766 73.079 242.617 74.4162C246.139 79.9562 248.767 85.9028 250.425 92.0838C252.195 98.6026 253.48 105.216 254.274 111.883C254.669 115.165 254.847 118.435 254.891 121.736C254.94 125.414 254.907 129.095 254.669 132.769C254.611 133.677 254.54 134.584 254.458 135.49L255.431 134.631C249.272 135.059 243.111 135.475 236.952 135.913C236.696 135.918 236.453 136.011 236.271 136.17C236.09 136.33 235.986 136.545 235.98 136.771C235.982 136.999 236.085 137.216 236.267 137.376C236.449 137.537 236.695 137.628 236.952 137.63C243.111 137.192 249.272 136.776 255.431 136.348C255.686 136.341 255.929 136.249 256.11 136.089C256.291 135.93 256.396 135.715 256.404 135.49C256.687 132.332 256.824 129.166 256.85 125.999C256.876 122.851 256.89 119.685 256.67 116.542C256.217 110.765 255.371 105.018 254.137 99.3303C253.017 93.9597 251.684 88.6048 249.495 83.4863C248.308 80.6902 246.932 77.9591 245.375 75.3076C244.104 73.0413 242.572 70.8958 240.806 68.9046C239.419 67.4446 237.937 66.0571 236.367 64.7495C234.518 63.1734 232.597 61.6596 230.603 60.2288C228.848 58.9229 226.979 57.7408 225.014 56.6935C224.279 56.3026 223.499 55.9807 222.688 55.7331C221.975 55.5285 220.737 55.3428 220.105 55.7595C219.767 56.0573 219.48 56.3969 219.253 56.7676C218.981 57.1126 218.708 57.4569 218.434 57.8003C217.894 58.4766 217.351 59.1512 216.807 59.8242C215.723 61.163 214.636 62.4998 213.546 63.8348C211.469 66.3921 209.395 68.9561 207.474 71.6078C207.066 72.1711 206.667 72.7394 206.277 73.3127C205.89 73.885 205.89 74.6119 205.797 75.264C205.609 76.5847 205.451 77.9089 205.29 79.2321C205.034 81.8781 204.626 84.5108 204.065 87.1199C203.451 89.6621 202.519 92.1468 202.303 94.7556C202.249 96.0574 202.46 97.3572 202.925 98.5934C203.426 100.097 204.059 101.564 204.818 102.981C206.074 105.325 207.579 107.558 209.311 109.652C209.618 110.028 209.948 110.389 210.25 110.767C210.713 111.349 210.974 112.166 211.298 112.827C211.91 114.016 212.452 115.233 212.919 116.472C213.347 117.693 213.628 118.95 213.757 120.222C213.763 120.448 213.868 120.663 214.049 120.822C214.23 120.982 214.474 121.074 214.73 121.08C214.987 121.079 215.233 120.988 215.416 120.827C215.598 120.667 215.701 120.449 215.703 120.222V120.222Z" fill="black"/>
<path d="M208.665 50.0555C211.619 52.6045 216.231 53.1046 220.163 52.7448C220.419 52.7385 220.663 52.646 220.844 52.4863C221.024 52.3267 221.129 52.112 221.136 51.8863C221.135 51.659 221.032 51.4415 220.85 51.2809C220.667 51.1202 220.421 51.0293 220.163 51.0278C216.764 51.339 212.623 51.07 210.041 48.8414C209.145 48.0681 207.768 49.2814 208.665 50.0555Z" fill="black"/>
<path d="M183.811 64.0963C185.424 63.5955 187.116 62.6948 187.783 61.2346C187.818 61.1242 187.827 61.0088 187.81 60.8952C187.793 60.7816 187.751 60.6721 187.685 60.5732C187.621 60.4758 187.535 60.3906 187.433 60.3225C187.332 60.2543 187.216 60.2045 187.092 60.1759C186.968 60.1473 186.84 60.1404 186.713 60.1558C186.586 60.1711 186.464 60.2083 186.354 60.2652C186.145 60.3882 185.989 60.5685 185.908 60.7782C185.863 60.8769 186.036 60.5278 185.975 60.638C185.965 60.6562 185.956 60.6737 185.945 60.6927C185.926 60.7285 185.905 60.7607 185.884 60.7943C185.831 60.8768 185.773 60.9567 185.709 61.0336C185.694 61.0533 185.655 61.084 185.649 61.1051C185.655 61.0819 185.832 60.9048 185.724 61.0171C185.681 61.0619 185.639 61.1069 185.594 61.1506C185.486 61.2568 185.372 61.3579 185.251 61.4535C185.19 61.5026 185.126 61.5505 185.062 61.5966C185.029 61.621 184.994 61.6442 184.96 61.6682C185.206 61.4865 185.056 61.6031 184.994 61.6431C184.827 61.7504 184.654 61.8506 184.476 61.9436C184.266 62.0534 184.05 62.1536 183.83 62.2452C183.774 62.268 183.719 62.2902 183.664 62.3121L183.579 62.3446C183.511 62.3707 183.542 62.3589 183.672 62.3088C183.542 62.342 183.415 62.3846 183.293 62.4362C183.17 62.4661 183.054 62.5172 182.954 62.5865C182.853 62.6558 182.768 62.742 182.705 62.84C182.642 62.9381 182.601 63.0462 182.586 63.1581C182.57 63.27 182.579 63.3836 182.613 63.4923C182.647 63.601 182.705 63.7028 182.784 63.7918C182.862 63.8807 182.96 63.9552 183.071 64.0109C183.182 64.0666 183.305 64.1024 183.431 64.1163C183.558 64.1302 183.687 64.122 183.81 64.092L183.811 64.0963Z" fill="black"/>
<path d="M172.783 43.2125C173.116 44.1574 173.518 45.0826 173.985 45.9823C174.448 46.8805 175.011 47.7322 175.479 48.6275C176.259 50.1192 177.077 51.7264 177.244 53.3822C177.354 54.1338 177.242 54.8976 176.92 55.6C176.721 55.9885 176.405 56.3154 176.196 56.7003C175.923 57.1803 175.779 57.7098 175.776 58.247C175.769 58.652 175.871 59.0527 176.072 59.4167C176.273 59.7807 176.569 60.0976 176.935 60.3418C177.561 60.6903 178.252 60.9382 178.977 61.074C179.772 61.2499 180.489 61.6341 181.032 62.1761C181.473 62.6687 181.799 63.2779 182.204 63.798C183.217 65.177 184.417 66.4417 185.778 67.5639C187.274 68.7294 189.176 69.5467 191.204 69.5263C193.239 69.5063 195.328 68.8982 197.171 68.1778C198.137 67.8083 199.049 67.3366 199.887 66.773C200.149 66.5942 200.3 66.3438 200.607 66.4565C200.463 66.4039 200.617 66.4668 200.676 66.5101C200.773 66.5817 200.871 66.6489 200.968 66.719C202.398 67.7532 203.819 68.9064 204.729 70.3441C205.341 71.3099 207.022 70.4439 206.41 69.4777C205.473 68.1071 204.271 66.8918 202.86 65.8866C202.483 65.6005 202.102 65.3089 201.701 65.0496C201.304 64.79 200.816 64.6632 200.323 64.6919C199.755 64.7555 199.227 64.984 198.823 65.3415C197.404 66.3789 195.55 67.0113 193.788 67.4266C192.019 67.8437 190.295 68.0175 188.618 67.232C187.023 66.4847 185.803 65.2256 184.73 63.9668C184.219 63.3666 183.734 62.7499 183.275 62.1167C182.871 61.4689 182.341 60.8889 181.709 60.4037C180.986 59.918 180.16 59.5644 179.281 59.3635C179.029 59.2998 178.595 59.1914 178.461 59.1413C178.298 59.0833 178.144 59.0069 178.003 58.9142C178.048 58.9457 178.071 58.9721 177.962 58.8713C177.81 58.7282 177.969 58.9271 177.857 58.7489C177.437 58.0836 178.035 57.3538 178.431 56.7518C178.906 56.002 179.174 55.1636 179.213 54.3051C179.339 52.2962 178.448 50.3163 177.547 48.5131C176.582 46.5814 175.371 44.7857 174.661 42.7557C174.293 41.703 172.414 42.1523 172.785 43.2122L172.783 43.2125Z" fill="black"/>
<path d="M181.668 36.9669C186.243 41.0623 193.186 42.4678 199.443 43.0355C199.701 43.0339 199.947 42.9429 200.129 42.7822C200.311 42.6216 200.415 42.4042 200.416 42.177C200.411 41.9508 200.307 41.7352 200.125 41.5753C199.944 41.4153 199.7 41.3233 199.443 41.3185C193.71 40.7983 187.237 39.5063 183.045 35.7529C182.164 34.9659 180.788 36.1789 181.668 36.9669Z" fill="black"/>
<path d="M174.66 42.7554C173.49 39.4408 172.914 35.9289 173.702 32.492C174.366 29.6636 175.695 26.9897 177.604 24.6431C180.999 20.4976 187.012 18.009 192.643 17.0808C195.351 16.594 198.141 16.5956 200.848 17.0854C202.012 17.2997 203.126 17.6867 204.144 18.2301C204.392 18.3628 204.623 18.5163 204.865 18.6565C205.273 18.8431 205.717 18.9632 206.174 19.011C207 19.1802 207.808 19.4094 208.591 19.6964C211.773 20.8747 214.469 22.9927 216.476 25.4451C217.555 26.7686 218.475 28.1867 219.224 29.6768C219.591 30.403 219.87 31.1574 220.215 31.89C220.556 32.6248 220.835 33.3805 221.051 34.151C221.525 35.788 221.752 37.4731 221.726 39.1625C221.695 40.8659 221.218 42.4206 220.66 44.0417C220.145 45.538 219.632 47.0246 219.244 48.5517C218.768 50.4254 218.308 52.3023 218.519 54.2357C218.621 55.2553 218.895 56.2559 219.33 57.2047C219.405 57.4203 219.571 57.6024 219.794 57.7138C220.016 57.8252 220.278 57.8575 220.527 57.8042C220.775 57.7425 220.985 57.597 221.112 57.3993C221.24 57.2017 221.273 56.9678 221.207 56.7482C220.385 54.8839 220.193 52.8498 220.652 50.8911C221.009 49.1953 221.479 47.5195 222.059 45.8724C222.64 44.188 223.313 42.5118 223.552 40.7572C223.76 39.0034 223.69 37.2326 223.346 35.4957C222.99 33.8269 222.451 32.1926 221.736 30.6162C221.077 29.0082 220.237 27.4624 219.229 26.0017C217.269 23.1819 214.622 20.664 211.354 19.0035C209.773 18.1916 208.056 17.6069 206.267 17.2715C205.983 17.2242 205.717 17.1146 205.493 16.9527C205.223 16.7932 204.945 16.6462 204.659 16.511C204.067 16.2339 203.452 15.9971 202.82 15.8027C200.09 14.9521 197.062 14.8569 194.209 15.1502C187.982 15.7895 181.52 18.1775 177.25 22.3284C175.015 24.5008 173.412 27.2941 172.404 30.0757C171.271 33.3498 171.097 36.8241 171.898 40.1738C172.131 41.1998 172.426 42.214 172.783 43.2118C173.155 44.2635 175.034 43.8145 174.66 42.7554H174.66Z" fill="black"/>
<path d="M173.387 38.9483C175.057 39.9602 177.227 40.2904 179.204 40.4367C181.175 40.6334 183.171 40.4864 185.078 40.0039C186.263 39.6619 185.755 38.0032 184.561 38.3484C182.867 38.7748 181.095 38.905 179.344 38.7315C177.632 38.6167 175.785 38.3251 174.37 37.4677C173.335 36.8403 172.361 38.3262 173.387 38.9501V38.9483Z" fill="black"/>
<path d="M182.958 52.2654C182.987 52.2429 183.016 52.2211 183.046 52.2003L182.849 52.3345C183.032 52.2154 183.232 52.1175 183.443 52.0429L183.211 52.1295C183.605 51.9879 184.018 51.89 184.439 51.8383L184.181 51.8687C184.45 51.8325 184.723 51.826 184.994 51.8494L184.736 51.8187C184.845 51.8306 184.952 51.8546 185.054 51.8902L184.821 51.8036C184.85 51.8147 184.877 51.8269 184.902 51.8394C185.125 51.9543 185.391 51.9864 185.64 51.9286C185.89 51.8708 186.103 51.7279 186.233 51.5312C186.364 51.3346 186.4 51.1004 186.334 50.8801C186.269 50.6599 186.107 50.4716 185.884 50.3567C185.21 50.0119 184.334 50.0995 183.606 50.2304C182.86 50.3415 182.16 50.6254 181.579 51.0532C181.399 51.2149 181.297 51.433 181.297 51.6602C181.297 51.8874 181.399 52.1054 181.579 52.2672C181.764 52.4236 182.011 52.5109 182.267 52.5109C182.524 52.5109 182.77 52.4236 182.955 52.2672L182.958 52.2654Z" fill="black"/>
<path d="M189.535 58.3569C189.619 58.3805 189.701 58.4069 189.783 58.4366L189.55 58.3501C189.844 58.4634 190.12 58.609 190.373 58.7833L190.176 58.6491C190.476 58.8546 190.745 59.092 190.978 59.3559L190.826 59.1825C190.92 59.2906 191.006 59.4044 191.083 59.523C191.213 59.7196 191.427 59.8624 191.676 59.9202C191.926 59.978 192.191 59.9459 192.414 59.831C192.633 59.7131 192.792 59.5248 192.857 59.3057C192.922 59.0867 192.888 58.8539 192.763 58.6563C192.491 58.2418 192.141 57.8717 191.727 57.562C191.241 57.1785 190.671 56.8863 190.052 56.7035C189.804 56.645 189.539 56.6751 189.315 56.7874C189.091 56.8996 188.926 57.0849 188.856 57.3034C188.793 57.5228 188.828 57.7551 188.955 57.9518C189.082 58.1486 189.289 58.2946 189.535 58.3594V58.3569Z" fill="black"/>
<path d="M200.598 43.621C200.786 42.4613 201.858 41.4211 203.281 41.5216C204.56 41.6118 205.335 42.6663 205.718 43.6403C206.701 46.1443 206.002 48.947 204.223 51.0353C204.095 51.2322 204.059 51.466 204.125 51.6858C204.19 51.9057 204.351 52.094 204.572 52.21C204.797 52.3195 205.06 52.3486 205.308 52.2912C205.556 52.2339 205.769 52.0945 205.903 51.902C206.801 50.8322 207.444 49.6133 207.794 48.3185C208.144 47.0238 208.193 45.68 207.939 44.3679C207.735 43.0784 207.088 41.875 206.085 40.9196C205.557 40.4493 204.897 40.1116 204.172 39.941C203.447 39.7705 202.683 39.7733 201.96 39.9491C201.13 40.1595 200.385 40.5736 199.812 41.1432C199.238 41.7128 198.86 42.4144 198.721 43.1664C198.661 43.3857 198.698 43.6169 198.824 43.8132C198.95 44.0094 199.157 44.1558 199.401 44.2227C199.65 44.2816 199.915 44.2516 200.139 44.1394C200.363 44.0271 200.527 43.8415 200.598 43.6228V43.621Z" fill="black"/>
</g>
<path d="M89.8999 150.081H81.2914C80.9725 150.081 80.6568 150.139 80.3622 150.252C80.0677 150.364 79.8 150.53 79.5745 150.738C79.3491 150.946 79.1702 151.193 79.0482 151.465C78.9262 151.737 78.8634 152.028 78.8634 152.323V154.055C78.8637 154.51 79.014 154.954 79.2944 155.329C79.5749 155.703 79.9721 155.989 80.4332 156.15C80.0773 156.545 79.8827 157.042 79.8834 157.555V158.052C79.8833 158.407 79.9761 158.756 80.1537 159.07C80.3313 159.384 80.5885 159.653 80.9035 159.856V166.468H90.2878V159.856C90.6027 159.653 90.86 159.384 91.0376 159.07C91.2152 158.756 91.3079 158.407 91.3078 158.052V157.555C91.3086 157.042 91.114 156.545 90.7581 156.15C91.2192 155.989 91.6164 155.703 91.8968 155.329C92.1773 154.954 92.3276 154.51 92.3279 154.055V152.323C92.3279 152.028 92.2651 151.737 92.1431 151.465C92.021 151.193 91.8422 150.946 91.6167 150.738C91.3913 150.53 91.1236 150.364 90.829 150.252C90.5345 150.139 90.2187 150.081 89.8999 150.081Z" fill="#4DD0E1"/>
<path d="M77.3421 165.505C76.9805 165.505 76.6338 165.647 76.3781 165.9C76.1224 166.153 75.9786 166.495 75.9781 166.853V177.652C75.9785 178.009 76.1224 178.352 76.3781 178.605C76.6338 178.857 76.9805 179 77.3421 179H93.8493C94.2109 179 94.5576 178.857 94.8133 178.605C95.0689 178.352 95.2127 178.009 95.2131 177.652V166.853C95.2127 166.495 95.0689 166.153 94.8132 165.9C94.5575 165.647 94.2109 165.505 93.8493 165.505H77.3421Z" fill="#4DD0E1"/>
<path d="M102.45 146.225C102.922 146.225 103.131 146.819 102.763 147.115L96.8179 151.899C96.7291 151.97 96.6185 152.009 96.5045 152.009H74.3016C74.1829 152.009 74.068 151.967 73.9775 151.89L68.3572 147.106C68.003 146.805 68.2162 146.225 68.6813 146.225H73.6736C73.9104 146.225 74.1147 146.059 74.163 145.827L74.3752 144.81C74.4618 144.394 74.6956 144.019 75.0371 143.75C75.3785 143.481 75.8064 143.334 76.248 143.333H95.1144C95.556 143.334 95.9839 143.481 96.3253 143.75C96.6667 144.019 96.9006 144.394 96.9871 144.81L97.1993 145.827C97.2477 146.059 97.452 146.225 97.6888 146.225H102.45Z" fill="#4DD0E1"/>
<path d="M85.5956 175.144C87.1891 175.144 88.4809 173.849 88.4809 172.252C88.4809 170.655 87.1891 169.36 85.5956 169.36C84.0022 169.36 82.7104 170.655 82.7104 172.252C82.7104 173.849 84.0022 175.144 85.5956 175.144Z" fill="white"/>
<path d="M122.216 170.632H110.508V172.922H122.216V170.632Z" fill="white"/>
<rect x="48.1257" y="136.622" width="73.9781" height="42.3423" rx="1" stroke="black" stroke-width="2"/>
<rect x="78.8634" y="146.225" width="13.4645" height="2.89189" fill="white"/>
<line x1="22.998" y1="180.5" x2="145.002" y2="180.5" stroke="black" stroke-width="2"/>
<defs>
<clipPath id="clip0_121_16">
<rect width="151" height="150" fill="white" transform="translate(136 15)"/>
</clipPath>
</defs>
</svg>
