<svg width="280" height="209" viewBox="0 0 280 209" fill="none" xmlns="http://www.w3.org/2000/svg">
<g clip-path="url(#clip0_121_14)">
<path d="M190.167 122.284C191.107 121.876 192.025 121.445 192.921 120.992L192.492 120.651C190.507 119.381 187.03 116.748 186.366 115.477C185.13 113.206 184.185 110.807 183.551 108.328L183.35 107.402C180.263 109.731 176.64 111.355 172.765 112.149C168.891 112.942 164.872 112.881 161.027 111.972C160.159 113.658 159.035 115.765 158.755 116.2C158.069 117.162 157.362 118.057 156.296 118.495C153.026 119.849 151.876 120.325 149.438 121.307C149.531 121.416 149.626 121.521 149.725 121.623C152.729 124.657 156.701 126.704 161.049 127.46C165.475 128.143 169.998 128.041 174.383 127.159C179.807 126.035 185.095 124.401 190.167 122.284Z" fill="white"/>
<path d="M148.4 72.0943C151.743 69.5161 155.519 66.9708 158.47 65.7272C159.017 65.4999 159.694 65.8408 159.886 66.6192C160.274 68.1918 159.489 70.4024 160.775 70.0013C163.006 69.3059 169.758 65.3897 174.955 63.6484L179.989 65.5891C180.78 65.998 181.528 66.4759 182.223 67.0163C183.316 67.9165 184.287 68.9386 185.113 70.0598C186.741 72.2034 188.783 75.7185 191.259 81.3771L192.972 80.3715C194.698 78.7949 197.668 78.791 199.638 80.096C200.593 80.7905 201.353 81.6926 201.851 82.7241C202.349 83.7555 202.57 84.8849 202.495 86.0143C202.315 88.28 201.42 90.4449 199.923 92.2348C198.001 94.5997 195.434 96.4376 192.49 97.556C190.686 100.54 188.383 103.234 185.668 105.538C182.63 108.303 178.956 110.382 174.927 111.615C170.295 112.963 165.348 113.056 160.662 111.882C158.138 111.267 155.731 110.29 153.526 108.988C150.987 107.402 148.788 105.386 147.043 103.044C144.855 100.261 143.179 97.1566 142.085 93.858C141.044 90.8692 140.358 87.7828 140.037 84.6542C139.824 82.9327 139.733 81.4726 139.694 80.3931C139.694 80.3931 139.689 80.263 139.68 80.0449C141.059 78.6353 143.306 76.3412 143.306 76.3412C144.699 75.0714 146.477 73.5755 148.4 72.0943Z" fill="white"/>
<path d="M224.47 160.457C224.47 151.714 223.806 145.725 219.12 139.095C215.97 134.632 211.394 131.188 206.594 128.279C202.547 125.822 199.802 124.136 197.327 122.678C195.848 121.809 194.887 121.3 193.619 120.633C187.84 123.686 180.914 125.728 174.383 127.157C169.998 128.04 165.475 128.142 161.049 127.458C156.701 126.703 152.729 124.655 149.725 121.621C149.538 121.428 149.365 121.224 149.186 121.003C144.746 122.678 140.407 124.578 136.19 126.696C134.983 127.32 133.811 128.001 132.678 128.737L112.163 162.546C110.674 163.385 109.519 164.656 108.875 166.166C109.099 169.479 113.731 180.259 115.191 183.574C116.237 185.887 117.621 188.054 119.305 190.011C120.864 191.736 123.18 193.065 125.671 193.028C129.119 192.978 133.782 189.397 135.113 186.404C134.992 192.154 134.829 198.178 134.643 204.173H212.163C216.953 203.018 220.542 197.139 221.012 195.557C224.626 183.385 224.804 170.426 224.374 156.04" fill="white"/>
<path d="M177.375 157.085C177.09 156.77 176.823 156.442 176.572 156.108C175.149 154.215 174.175 152.061 173.092 149.972C171.592 147.078 169.871 144.289 167.942 141.625C167.28 140.624 166.464 139.718 165.522 138.937C164.577 138.31 163.567 137.775 162.506 137.34C158.022 135.203 153.039 133.075 148.872 131.509C146.831 130.742 145.201 130.106 143.576 130.446C143.124 130.551 142.713 130.777 142.396 131.097C142.079 131.416 141.868 131.816 141.79 132.245C141.773 132.625 141.858 133.003 142.038 133.343C142.218 133.684 142.486 133.977 142.819 134.196C143.474 134.704 144.19 135.138 144.953 135.489C147.806 136.93 152.076 139.028 154.868 140.682C153.018 141.963 151.235 143.323 149.519 144.761C148.648 145.489 147.817 146.264 147.709 147.352C147.541 149.038 148.524 150.184 151.029 151.257C150.815 152.094 150.721 152.59 151.2 153.331C151.799 154.26 152.798 154.845 154.735 154.975C154.684 155.886 154.955 156.787 155.506 157.54C157.222 160.033 159.325 161.631 162.476 161.649C162.853 161.666 163.227 161.585 163.556 161.415L163.866 161.594C164.709 162.033 165.582 162.493 166.101 162.724C166.532 162.889 166.934 163.117 167.291 163.398C167.606 163.715 167.872 164.071 168.081 164.456C169.164 166.156 170.828 167.481 172.252 168.934C175.926 165.786 179.243 162.731 181.061 159.833C179.635 159.176 178.377 158.239 177.375 157.085Z" fill="white"/>
<path d="M118.62 164.849C117.379 165.234 116.06 165.353 114.762 165.196C114.158 165.148 113.584 164.926 113.121 164.559C112.415 163.907 112.458 162.855 112.42 161.927C112.232 157.225 109.118 154.577 106.383 150.621C105.836 149.618 103.712 147.42 103.217 145.078C103.101 143.34 103.147 141.597 103.356 139.867C103.382 138.925 103.536 137.989 103.814 137.083C104.094 136.497 104.42 135.932 104.791 135.392C107.067 132.156 109.655 129.121 112.521 126.324C113.203 125.677 114.127 125.302 115.098 125.279C115.617 125.309 116.104 125.52 116.464 125.869C116.824 126.219 117.031 126.682 117.044 127.167C116.988 127.915 116.725 128.637 116.28 129.262C113.923 132.522 111.478 135.971 109.289 138.866C113.311 136.513 118.578 133.615 122.867 131.24C124.24 130.481 125.384 129.847 126.957 130.088C127.376 130.159 127.768 130.332 128.092 130.59C128.417 130.847 128.663 131.18 128.807 131.555C129.536 133.912 127.097 134.327 126.936 134.786C129.139 134.242 130.367 134.753 130.827 136.215C130.961 136.707 130.943 137.224 130.774 137.706C130.606 138.188 130.293 138.616 129.874 138.938L126.557 141.385L127.323 141.234C128.454 141.012 129.182 141.131 129.733 142.096C129.95 142.522 130.031 142.998 129.968 143.466C129.905 143.934 129.699 144.375 129.376 144.738C128.012 146.466 125.874 148.249 123.874 149.908C125.546 154.047 125.648 156.384 124.876 160.242C124.818 160.704 124.641 161.147 124.36 161.532C122.773 163.068 120.8 164.208 118.62 164.849Z" fill="white"/>
<path d="M202.622 65.296C201.789 59.2419 199.56 53.1378 195.266 49.8545L191.321 46.5679C189.923 45.2611 184.882 39.8973 173.548 38.9173C160.113 37.7549 150.091 41.7523 145.793 46.1861L145.446 50.4159C139.654 55.2928 136.427 64.1347 138.126 76.336C138.18 77.1115 138.248 77.8768 138.324 78.6273C138.412 79.4761 138.516 80.3062 138.632 81.1112C138.733 81.0061 143.308 76.3343 143.308 76.3343C147.122 72.8761 153.825 67.6861 158.472 65.7272C159.019 65.4999 159.696 65.8408 159.888 66.6192C160.276 68.1918 159.491 70.4024 160.777 70.0013C163.008 69.3059 169.76 65.3897 174.957 63.6484L179.991 65.5891C180.782 65.998 181.53 66.4758 182.225 67.0163C183.318 67.9165 184.288 68.9386 185.115 70.0598C186.743 72.2034 188.785 75.7185 191.261 81.3771L192.974 80.3715C194.7 78.7949 197.67 78.791 199.639 80.096C200.198 80.4693 200.687 80.9266 201.086 81.4493C202.268 78.7489 203.008 73.547 203.015 71.1722C203.02 69.2076 202.889 67.2447 202.622 65.296Z" fill="#4DD0E1"/>
<path d="M137.937 145.145C136.71 141.212 130.861 121.717 128.502 113.727C128.281 112.977 127.758 112.337 127.042 111.94C126.327 111.544 125.475 111.422 124.665 111.601C120.032 112.617 113.063 114.161 108.252 115.269C107.838 115.364 107.449 115.535 107.106 115.772C106.764 116.009 106.475 116.306 106.257 116.648C106.038 116.99 105.895 117.369 105.834 117.763C105.774 118.157 105.798 118.558 105.904 118.944C106.665 121.688 107.574 124.822 108.518 127.775L109.126 129.905C110.147 128.75 111.244 127.593 112.524 126.325C113.206 125.678 114.13 125.304 115.101 125.281C115.62 125.311 116.107 125.521 116.467 125.871C116.827 126.22 117.034 126.683 117.047 127.169C116.991 127.917 116.728 128.639 116.283 129.264C114.53 131.688 112.729 134.216 111.021 136.545L111.346 137.681C115.004 135.584 119.277 133.231 122.871 131.241C124.243 130.481 125.387 129.847 126.961 130.089C127.38 130.16 127.771 130.333 128.096 130.59C128.421 130.848 128.667 131.18 128.81 131.555C129.54 133.913 127.1 134.328 126.94 134.786C129.142 134.242 130.371 134.754 130.83 136.216C130.965 136.707 130.947 137.224 130.778 137.707C130.609 138.189 130.297 138.616 129.878 138.939L126.561 141.386L127.326 141.235C128.457 141.013 129.186 141.131 129.736 142.097C129.953 142.523 130.035 142.998 129.972 143.466C129.909 143.935 129.703 144.376 129.379 144.738C127.913 146.439 126.273 148.002 124.482 149.404C127.473 148.609 134.999 146.662 137.407 146.038C137.505 146.013 137.597 145.969 137.677 145.91C137.757 145.852 137.823 145.778 137.872 145.695C137.922 145.612 137.953 145.521 137.964 145.426C137.975 145.332 137.966 145.236 137.937 145.145Z" fill="#4DD0E1"/>
<path d="M194.003 81.3357C195.345 80.171 197.566 80.2999 198.963 81.3169C200.639 82.5361 201.244 84.7087 200.994 86.6108C200.386 91.2128 196.059 94.6256 191.786 96.3663C191.454 96.5504 191.213 96.8495 191.115 97.1988C191.017 97.548 191.07 97.9193 191.263 98.2321C191.465 98.5376 191.785 98.7588 192.156 98.8499C192.528 98.9409 192.923 98.8949 193.259 98.7213C197.693 96.9146 201.475 93.7097 203.213 89.4248C204.86 85.3655 203.667 80.0073 199 78.2524C197.826 77.805 196.541 77.6761 195.292 77.8804C194.043 78.0847 192.882 78.614 191.94 79.4074C190.562 80.6045 192.628 82.5322 194.003 81.3357Z" fill="black"/>
<path d="M138.235 80.3863C138.367 85.6464 139.393 90.8534 141.275 95.8124C143.23 100.755 146.45 105.606 150.924 108.9C159.663 115.334 172.52 115.697 181.82 110.098C186.753 107.081 190.848 103.011 193.766 98.2236C194.7 96.6975 192.179 95.3221 191.246 96.847C188.88 100.72 185.686 104.095 181.862 106.762C177.619 109.739 172.455 111.344 167.15 111.334C162.602 111.321 158.151 110.108 154.307 107.835C149.894 105.17 146.576 100.768 144.586 96.2788C142.439 91.2146 141.277 85.8325 141.155 80.3863C141.088 78.6364 138.169 78.6279 138.237 80.3863H138.235Z" fill="black"/>
<path d="M202.759 81.138C204.169 76.9609 204.718 72.5719 204.377 68.2037C204.064 63.5382 203.091 58.8112 200.893 54.5832C199.809 52.4029 198.242 50.4626 196.296 48.8904C196.017 48.6435 195.648 48.5059 195.264 48.5059C194.88 48.5059 194.511 48.6435 194.233 48.8904C193.962 49.1476 193.81 49.4938 193.81 49.8545C193.81 50.2153 193.962 50.5615 194.233 50.8187C197.581 53.4162 199.307 57.342 200.33 61.1991C201.419 65.1775 201.786 69.2983 201.417 73.3902C201.21 75.7753 200.716 78.131 199.945 80.413C199.351 82.0816 202.168 82.7992 202.759 81.138Z" fill="black"/>
<path d="M136.665 76.336C136.771 77.8302 136.925 79.3205 137.128 80.8067C137.141 81.1659 137.292 81.5087 137.553 81.7725C137.827 82.0282 138.198 82.1719 138.585 82.1719C138.972 82.1719 139.343 82.0282 139.617 81.7725C139.755 81.6476 139.864 81.4973 139.937 81.3311C140.01 81.1649 140.046 80.9864 140.042 80.8067C139.836 79.3216 139.682 77.8314 139.579 76.336C139.571 75.9758 139.419 75.6314 139.154 75.3702C138.95 75.1788 138.69 75.0484 138.406 74.9955C138.123 74.9426 137.829 74.9696 137.562 75.0731C137.295 75.1766 137.067 75.3519 136.906 75.5767C136.746 75.8016 136.661 76.0659 136.662 76.336H136.665Z" fill="black"/>
<path d="M144.413 49.4517C138.728 54.2809 136.527 61.6269 136.257 68.598C136.172 71.2001 136.314 73.8044 136.683 76.3849C136.695 76.7431 136.852 77.0835 137.123 77.3369C137.394 77.5903 137.759 77.7375 138.142 77.7484C138.528 77.7464 138.898 77.602 139.171 77.3468C139.444 77.0915 139.598 76.7459 139.601 76.3849C138.618 69.1985 138.948 61.2554 143.234 54.9661C144.136 53.6395 145.227 52.4334 146.476 51.3806C147.868 50.1971 145.8 48.2734 144.412 49.4523L144.413 49.4517Z" fill="black"/>
<path d="M192.351 45.6037C191.097 44.3929 189.734 43.2849 188.278 42.292C185.526 40.5064 182.45 39.203 179.2 38.4452C174.665 37.4195 169.98 37.0921 165.332 37.4759C161.259 37.7228 157.253 38.5574 153.454 39.9502C150.25 41.1683 147.119 42.8136 144.761 45.2219C143.495 46.5145 145.551 48.4484 146.824 47.1502C148.711 45.3092 150.985 43.8531 153.504 42.8733C156.824 41.5144 160.352 40.653 163.96 40.3206C171.437 39.5678 179.572 40.2314 186.012 44.1453C186.975 44.7106 187.878 45.3609 188.708 46.0872C189.255 46.5502 189.766 47.044 190.289 47.532C191.616 48.7768 193.679 46.8502 192.352 45.6037H192.351Z" fill="black"/>
<path d="M144.338 77.2985C148.45 73.5806 153.031 69.8979 158.119 67.4021C158.379 67.2959 158.632 67.1771 158.879 67.0464C159.167 66.8663 159.011 67.0583 158.854 67.0027C158.849 67.0027 158.368 67.0186 158.477 66.9271C158.485 67.1003 158.506 67.2728 158.538 67.4435C158.556 67.7844 158.547 68.1253 158.538 68.4662C158.516 69.6513 158.646 71.1813 160.223 71.3841C161.206 71.5108 162.229 70.9296 163.087 70.5376C164.211 70.0263 165.312 69.4695 166.417 68.9235C169.291 67.4141 172.272 66.0915 175.34 64.9653C175.708 64.8614 176.019 64.6293 176.208 64.3171C176.398 64.0049 176.452 63.6365 176.359 63.2882C176.253 62.9411 176.006 62.6468 175.67 62.4687C175.335 62.2906 174.937 62.2429 174.564 62.336C171.663 63.3761 168.84 64.5979 166.115 65.9931C164.91 66.5834 163.713 67.1862 162.502 67.7662C162.035 67.9901 161.566 68.2117 161.09 68.4185L160.846 68.5213C160.846 68.5213 160.467 68.6701 160.688 68.5866C160.897 68.5077 160.572 68.6219 160.563 68.6298C160.301 68.84 160.554 68.5497 160.519 68.6866L161.393 69.1565C161.46 69.3129 161.479 69.3387 161.45 69.2337L161.437 69.1769C161.464 69.3246 161.469 69.3087 161.452 69.1292C161.452 68.8451 161.452 68.5679 161.459 68.2867C161.498 67.6067 161.441 66.925 161.29 66.259C161.195 65.8824 161.012 65.5303 160.754 65.2282C160.496 64.926 160.169 64.6815 159.797 64.5125C159.411 64.3636 158.992 64.3023 158.576 64.3338C158.16 64.3654 157.758 64.4887 157.403 64.6937C154.784 65.9354 152.311 67.431 150.027 69.1559C147.317 71.0885 144.728 73.1641 142.271 75.3725C140.919 76.5945 142.983 78.5217 144.334 77.3007L144.338 77.2985Z" fill="black"/>
<path d="M179.253 66.7663C181.813 68.1088 183.596 70.203 185.089 72.5261C186.923 75.4806 188.515 78.5605 189.852 81.7396C189.965 82.082 190.214 82.3712 190.547 82.5482C190.881 82.7251 191.274 82.7765 191.647 82.6918C192.018 82.5936 192.334 82.3626 192.524 82.0486C192.715 81.7347 192.766 81.3633 192.665 81.0147C191.232 77.5629 189.513 74.2209 187.524 71.0188C185.793 68.3526 183.668 65.9533 180.725 64.4102C179.084 63.5512 177.612 65.9056 179.252 66.7652L179.253 66.7663Z" fill="black"/>
<path d="M182.144 108.686C182.505 110.209 183.014 111.697 183.664 113.133C184.151 114.501 184.843 115.797 185.72 116.984C187.348 118.89 189.624 120.449 191.758 121.824C192.093 122.003 192.49 122.052 192.863 121.961C193.237 121.869 193.557 121.645 193.754 121.335C193.942 121.021 193.992 120.651 193.895 120.304C193.797 119.956 193.559 119.657 193.231 119.47C191.234 118.272 189.427 116.819 187.863 115.152C187.718 114.981 188.026 115.397 187.835 115.11C187.789 115.04 187.739 114.973 187.695 114.903C187.527 114.63 187.391 114.335 187.248 114.051C186.928 113.412 186.626 112.766 186.348 112.11C185.758 110.769 185.293 109.382 184.96 107.966C184.857 107.617 184.61 107.321 184.273 107.143C183.937 106.964 183.538 106.918 183.165 107.014C182.792 107.11 182.475 107.341 182.284 107.655C182.093 107.97 182.043 108.342 182.146 108.691L182.144 108.686Z" fill="black"/>
<path d="M150.222 122.461C151.735 121.852 153.245 121.236 154.751 120.613C155.736 120.279 156.687 119.865 157.595 119.377C158.568 118.703 159.39 117.856 160.015 116.886C160.208 116.573 160.261 116.202 160.163 115.853C160.065 115.503 159.824 115.204 159.491 115.02C159.155 114.846 158.76 114.799 158.389 114.891C158.017 114.982 157.697 115.203 157.496 115.509C157.269 115.849 157.015 116.172 156.735 116.475C156.573 116.642 156.402 116.801 156.223 116.951C156.04 117.104 156.243 116.951 156.123 117.021C156.023 117.081 155.923 117.142 155.819 117.195C154.935 117.643 153.961 117.976 153.04 118.356C151.613 118.945 150.183 119.528 148.75 120.106C148.416 120.289 148.174 120.588 148.076 120.938C147.978 121.287 148.032 121.659 148.226 121.971C148.43 122.275 148.75 122.495 149.121 122.586C149.492 122.677 149.886 122.632 150.223 122.46L150.222 122.461Z" fill="black"/>
<path d="M133.779 165.635C133.927 175.417 133.709 185.202 133.449 194.98C133.368 198.045 133.28 201.109 133.184 204.174C133.129 205.93 136.047 205.928 136.102 204.174C136.423 193.797 136.71 183.416 136.737 173.034C136.744 170.567 136.731 168.101 136.697 165.635C136.67 163.882 133.752 163.874 133.779 165.635Z" fill="black"/>
<path d="M169.053 166.318C168.29 167.116 167.658 168.014 167.174 168.984C166.598 170.102 166.136 171.265 166.498 172.516C166.846 173.714 167.899 174.764 168.698 175.731C170.716 178.177 172.831 180.552 174.977 182.902C179.665 188.041 184.465 193.136 189.606 197.885C192.391 200.457 195.422 202.898 199.043 204.376C203.143 206.006 207.678 206.431 212.043 205.594C215.771 204.934 218.687 202 220.675 199.157C222.754 196.183 223.386 192.654 224.065 189.21C225.962 179.583 226.137 169.75 225.935 159.99C225.908 158.674 225.874 157.358 225.834 156.041C225.782 154.289 222.864 154.282 222.916 156.041C223.194 165.428 223.3 174.888 221.978 184.216C221.667 186.404 221.265 188.579 220.772 190.741C220.529 191.803 220.263 192.861 219.973 193.913C219.852 194.361 219.734 194.815 219.587 195.257C219.548 195.375 219.322 195.877 219.48 195.552C218.271 198.039 216.343 200.516 213.847 201.99C212.311 202.899 210.591 203.137 208.793 203.25C206.886 203.387 204.967 203.244 203.107 202.825C199.231 201.916 195.934 199.732 193.056 197.207C188.259 192.996 183.88 188.335 179.56 183.703C177.333 181.317 175.135 178.904 173 176.444C172.543 175.918 172.09 175.389 171.641 174.858C171.177 174.308 171.094 174.213 170.664 173.679C170.357 173.298 170.053 172.915 169.757 172.527C169.51 172.261 169.361 171.928 169.33 171.577C169.299 171.226 169.389 170.875 169.586 170.575C169.962 169.728 170.478 168.942 171.116 168.246C172.384 166.955 170.326 165.021 169.053 166.318H169.053Z" fill="black"/>
<path d="M133.668 129.759C138.702 126.599 144.359 124.376 149.925 122.177L147.93 121.688C149.846 123.978 152.313 125.813 155.13 127.046C157.987 128.294 161.077 129.012 164.227 129.162C171.03 129.638 177.629 128.061 184.023 126.027C187.599 124.919 191.058 123.508 194.358 121.81H192.885C195.803 123.344 198.603 125.045 201.408 126.749C204.652 128.72 207.985 130.609 210.985 132.902C213.949 135.099 216.495 137.748 218.515 140.737C220.254 143.387 221.484 146.301 222.15 149.347C222.951 152.993 223.013 156.749 223.016 160.458C223.016 162.212 225.934 162.215 225.934 160.458C225.929 154.493 225.599 148.483 223.028 142.938C220.232 136.901 215.26 132.251 209.572 128.513C206.757 126.663 203.824 124.96 200.934 123.214C199.751 122.5 198.568 121.784 197.368 121.095C196.707 120.716 196.038 120.346 195.362 119.986C195.03 119.809 194.701 119.611 194.358 119.455C194.066 119.33 193.743 119.28 193.423 119.312C193.104 119.343 192.799 119.455 192.541 119.634C189.327 121.262 185.955 122.603 182.471 123.64C178.964 124.794 175.358 125.668 171.692 126.254C169.592 126.526 167.469 126.609 165.352 126.5C163.39 126.459 161.44 126.206 159.541 125.745C156.184 124.845 152.583 122.965 150.451 120.314C150.245 120.014 149.925 119.797 149.555 119.706C149.186 119.616 148.793 119.658 148.455 119.825C142.889 122.023 137.232 124.246 132.198 127.407C130.647 128.38 132.106 130.744 133.671 129.762L133.668 129.759Z" fill="black"/>
<path d="M197.817 160.374C197.952 164.379 198.054 168.384 198.121 172.39C198.151 174.143 201.069 174.151 201.039 172.39C200.971 168.384 200.87 164.379 200.735 160.374C200.674 158.624 197.756 158.616 197.817 160.374Z" fill="black"/>
<path d="M111.427 161.37C110.447 161.935 109.579 162.655 108.864 163.498C108.225 164.261 107.391 165.329 107.431 166.334C107.556 167.583 107.843 168.813 108.286 169.997C109.282 173.159 110.535 176.255 111.812 179.326C113.027 182.25 114.192 185.228 115.942 187.916C117.075 189.833 118.624 191.507 120.488 192.833C121.419 193.461 122.474 193.91 123.592 194.154C124.71 194.397 125.869 194.43 127.001 194.25C129.196 193.859 131.216 192.623 132.88 191.279C134.592 189.978 135.905 188.276 136.686 186.347C137.288 184.681 134.471 183.965 133.872 185.622C133.297 186.9 132.415 188.038 131.295 188.948C130.109 190.04 128.683 190.879 127.116 191.405C123.384 192.53 120.437 189.52 118.596 186.746C117.129 184.374 115.898 181.881 114.916 179.299C113.752 176.523 112.623 173.731 111.638 170.895C111.169 169.61 110.778 168.301 110.467 166.975C110.435 166.831 110.406 166.687 110.38 166.543C110.37 166.493 110.363 166.442 110.354 166.392C110.318 166.204 110.427 166.636 110.364 166.469C110.273 166.226 110.456 166.27 110.317 166.457C110.467 166.255 110.56 165.999 110.698 165.785C111.248 164.946 112.002 164.24 112.9 163.725C114.486 162.795 113.021 160.434 111.427 161.371V161.37Z" fill="black"/>
<path d="M163.13 162.773C163.91 163.179 164.685 163.596 165.491 163.958C165.702 164.053 165.906 164.156 166.11 164.265C166.419 164.429 166.008 164.129 166.26 164.364C166.326 164.425 166.389 164.487 166.448 164.553C166.278 164.364 166.53 164.684 166.541 164.7C166.591 164.773 166.637 164.848 166.685 164.922C166.815 165.13 166.945 165.336 167.088 165.537C168.196 167.098 169.677 168.359 171.039 169.716C171.314 169.969 171.685 170.11 172.071 170.11C172.457 170.11 172.827 169.969 173.102 169.716C173.369 169.457 173.518 169.111 173.518 168.752C173.518 168.392 173.369 168.047 173.102 167.788C172.422 167.109 171.704 166.461 171.028 165.782C170.704 165.458 170.397 165.124 170.091 164.786L170.003 164.683C170.071 164.769 170.075 164.774 170.014 164.698C169.943 164.611 169.874 164.522 169.806 164.432C169.656 164.235 169.513 164.034 169.38 163.826C169.118 163.384 168.813 162.966 168.468 162.576C168.077 162.191 167.61 161.881 167.093 161.661C166.248 161.272 165.428 160.847 164.605 160.418C164.271 160.236 163.873 160.185 163.499 160.277C163.124 160.368 162.804 160.595 162.609 160.908C162.414 161.22 162.359 161.592 162.458 161.942C162.556 162.292 162.799 162.591 163.133 162.773H163.13Z" fill="black"/>
<path d="M155.116 139.22C153.344 138.204 151.525 137.262 149.7 136.334C147.965 135.451 146.133 134.659 144.472 133.659C144.012 133.382 142.98 132.818 143.317 132.203C143.617 131.659 144.421 131.672 144.982 131.737C146.05 131.926 147.088 132.239 148.072 132.67C149.082 133.049 150.087 133.437 151.087 133.835C153.203 134.684 155.301 135.572 157.38 136.498C159.486 137.435 161.648 138.348 163.676 139.426C165.572 140.433 166.693 142.276 167.831 143.951C169.076 145.784 170.224 147.671 171.274 149.611C173.549 153.809 175.398 158.683 180.188 160.95C181.859 161.741 183.338 159.389 181.661 158.595C177.232 156.499 175.667 151.622 173.54 147.771C172.368 145.647 171.075 143.583 169.667 141.589C169.008 140.603 168.269 139.665 167.457 138.785C166.595 137.929 165.573 137.23 164.441 136.72C159.918 134.575 155.335 132.547 150.65 130.726C148.459 129.874 146.072 128.726 143.632 129.063C141.191 129.399 139.524 131.876 140.765 134.005C141.404 135.1 142.634 135.851 143.767 136.442C144.807 136.983 145.865 137.497 146.913 138.026C149.18 139.168 151.446 140.317 153.642 141.577C155.247 142.497 156.715 140.14 155.115 139.222L155.116 139.22Z" fill="black"/>
<path d="M154.324 139.366C152.967 140.306 151.634 141.281 150.339 142.296C149.124 143.145 148.026 144.132 147.069 145.233C146.666 145.769 146.399 146.384 146.287 147.031C146.175 147.678 146.221 148.34 146.423 148.967C146.918 150.223 147.893 151.264 149.159 151.889C150.769 152.802 152.237 150.444 150.632 149.535C150.216 149.319 149.841 149.041 149.521 148.712C149.349 148.542 149.527 148.741 149.454 148.63C149.397 148.542 149.342 148.452 149.285 148.363C149.217 148.26 149.228 148.229 149.275 148.357C149.233 148.243 149.204 148.125 149.168 148.008C149.131 147.891 149.149 147.869 149.161 148.005C149.152 147.899 149.147 147.793 149.148 147.686C149.144 147.575 149.15 147.464 149.166 147.353C149.135 147.52 149.211 147.246 149.226 147.198C149.26 147.087 149.19 147.219 149.291 147.048C149.352 146.941 149.421 146.836 149.495 146.733C149.616 146.587 149.747 146.446 149.885 146.314C151.721 144.638 153.697 143.103 155.795 141.723C156.12 141.533 156.356 141.234 156.453 140.887C156.55 140.54 156.502 140.172 156.318 139.857C156.121 139.547 155.801 139.322 155.427 139.23C155.054 139.138 154.657 139.188 154.322 139.368L154.324 139.366Z" fill="black"/>
<path d="M157.177 143.918C155.731 144.697 154.375 145.614 153.132 146.656C152.535 147.156 151.968 147.687 151.435 148.246C150.846 148.804 150.343 149.435 149.938 150.121C149.57 150.829 149.385 151.607 149.399 152.394C149.465 153.234 149.829 154.03 150.432 154.656C151.426 155.774 152.921 156.153 154.402 156.316C154.788 156.314 155.158 156.17 155.431 155.915C155.704 155.659 155.859 155.314 155.861 154.953C155.852 154.594 155.695 154.252 155.424 153.998C155.152 153.744 154.786 153.598 154.402 153.589C154.313 153.58 153.909 153.504 153.716 153.455C153.575 153.417 153.436 153.375 153.299 153.328C153.145 153.275 153.436 153.414 153.216 153.288C153.11 153.226 152.998 153.167 152.891 153.107C152.66 152.98 152.966 153.185 152.855 153.081C152.787 153.017 152.713 152.957 152.646 152.891C152.593 152.838 152.415 152.578 152.586 152.831C152.468 152.687 152.377 152.526 152.318 152.354C152.27 152.202 152.322 152.52 152.313 152.264C152.3 151.913 152.245 152.455 152.327 152.08C152.4 151.64 152.585 151.223 152.869 150.865C154.455 148.996 156.419 147.437 158.649 146.277C158.984 146.094 159.226 145.795 159.325 145.445C159.423 145.095 159.368 144.723 159.173 144.411C158.978 144.099 158.657 143.872 158.283 143.78C157.909 143.688 157.511 143.739 157.176 143.922L157.177 143.918Z" fill="black"/>
<path d="M160.293 147.619L157.218 150.125C156.24 150.84 155.316 151.618 154.454 152.455C152.691 154.37 153.142 156.772 154.595 158.715C155.653 160.261 157.146 161.505 158.911 162.308C160.81 163.085 163.714 163.607 165.178 161.854C165.558 161.359 165.783 160.776 165.827 160.169C165.872 159.562 165.734 158.955 165.431 158.417C165.144 157.907 164.763 157.449 164.306 157.063C164.068 156.845 163.82 156.64 163.58 156.421C163.5 156.348 163.42 156.274 163.344 156.198C163.267 156.121 163.184 156.036 163.108 155.952C162.999 155.814 162.999 155.84 163.108 156.032L162.91 156.72C163.095 156.521 163.308 156.344 163.542 156.196L164.329 155.553C164.464 155.426 164.572 155.276 164.645 155.11C164.718 154.945 164.756 154.768 164.756 154.588C164.756 154.409 164.718 154.232 164.645 154.067C164.572 153.901 164.464 153.751 164.329 153.624C164.193 153.498 164.033 153.397 163.856 153.328C163.679 153.26 163.489 153.225 163.297 153.225C163.106 153.225 162.916 153.26 162.739 153.328C162.562 153.397 162.401 153.497 162.265 153.624C161.398 154.334 160.147 155.036 160.177 156.244C160.203 157.324 161.312 158.162 162.081 158.845C162.417 159.144 163.251 159.864 162.879 160.232C162.739 160.373 161.803 160.269 161.467 160.214C160.031 159.951 158.737 159.227 157.811 158.168C156.946 157.259 155.513 155.598 156.518 154.386C157.358 153.53 158.284 152.75 159.281 152.056L162.356 149.55C162.626 149.292 162.778 148.946 162.778 148.585C162.778 148.225 162.626 147.878 162.356 147.621C162.079 147.372 161.709 147.233 161.324 147.233C160.94 147.233 160.57 147.372 160.293 147.621L160.293 147.619Z" fill="black"/>
<path d="M205.106 176.074C199.703 171.766 194.735 167.021 189.63 162.414C188.555 161.444 187.473 160.482 186.368 159.542C185.898 159.142 185.423 158.748 184.944 158.359C184.417 157.835 183.792 157.405 183.099 157.089C182.72 156.955 182.308 156.923 181.91 156.995C181.512 157.067 181.143 157.242 180.845 157.499C180.38 158.064 179.99 158.68 179.684 159.334C178.855 160.572 177.902 161.734 176.837 162.803C175.463 164.224 173.989 165.564 172.492 166.873C171.048 168.137 169.704 169.435 167.808 170.082C167.44 170.186 167.129 170.418 166.939 170.731C166.75 171.043 166.696 171.411 166.788 171.759C166.894 172.106 167.141 172.401 167.477 172.579C167.813 172.757 168.21 172.805 168.583 172.712C171.951 171.562 174.451 168.98 176.935 166.658C179.15 164.585 181.42 162.321 182.817 159.669C182.889 159.562 182.948 159.446 182.991 159.325L182.169 159.662C181.941 159.534 181.894 159.518 182.028 159.614C182.107 159.778 182.507 159.988 182.664 160.114C183.166 160.515 183.662 160.924 184.151 161.34C185.192 162.221 186.213 163.125 187.226 164.036C189.588 166.16 191.911 168.323 194.265 170.456C197.122 173.042 200.017 175.59 203.042 178.003C203.32 178.25 203.69 178.388 204.074 178.388C204.458 178.388 204.827 178.25 205.106 178.003C205.376 177.745 205.528 177.399 205.528 177.039C205.528 176.678 205.376 176.332 205.106 176.074V176.074Z" fill="black"/>
<path d="M109.92 127.412C109.404 125.793 108.909 124.167 108.434 122.535C108.214 121.782 107.996 121.028 107.781 120.272C107.537 119.621 107.361 118.949 107.257 118.266C107.193 117.203 108.086 116.712 109.05 116.49C110.485 116.161 111.921 115.835 113.357 115.512C116.337 114.842 119.318 114.179 122.3 113.524L124.246 113.095C124.778 112.907 125.356 112.86 125.915 112.959C126.902 113.243 127.091 114.088 127.334 114.912C129.946 123.744 132.59 132.569 135.266 141.387C135.514 142.207 136.101 143.31 135.763 144.154C135.298 145.317 133.523 145.465 132.423 145.777C129.648 146.564 126.869 147.336 124.086 148.094C122.288 148.587 123.053 151.219 124.862 150.724C127.571 149.982 130.277 149.23 132.981 148.469C134.452 148.052 136.088 147.767 137.268 146.79C137.873 146.265 138.32 145.601 138.563 144.864C138.807 144.127 138.84 143.343 138.657 142.591C138.162 140.478 137.392 138.39 136.765 136.309C135.985 133.719 135.206 131.129 134.429 128.538C133.002 123.778 131.581 119.017 130.167 114.255C129.765 112.896 129.266 111.682 127.944 110.869C126.533 109.999 125.032 110.124 123.47 110.467C120.243 111.177 117.018 111.893 113.793 112.615C112.022 113.012 110.251 113.413 108.482 113.818C106.666 114.234 105.152 115.143 104.551 116.886C103.943 118.64 104.834 120.56 105.323 122.251C105.89 124.221 106.484 126.185 107.103 128.144C107.638 129.823 110.454 129.11 109.917 127.419L109.92 127.412Z" fill="black"/>
<path d="M112.053 120.87C113.102 120.618 114.153 120.374 115.204 120.131C115.577 120.035 115.894 119.804 116.085 119.49C116.276 119.175 116.326 118.802 116.223 118.454C116.12 118.105 115.873 117.809 115.536 117.63C115.2 117.451 114.801 117.405 114.428 117.501C113.377 117.746 112.326 117.991 111.277 118.24C110.904 118.336 110.587 118.567 110.396 118.881C110.205 119.196 110.155 119.568 110.258 119.917C110.361 120.266 110.608 120.562 110.944 120.741C111.281 120.919 111.68 120.966 112.053 120.87Z" fill="black"/>
<path d="M110.888 139.54C115.306 136.988 119.753 134.438 124.277 132.052C125.018 131.662 126.052 131.143 126.915 131.492C127.066 131.547 127.197 131.64 127.296 131.76C127.394 131.88 127.455 132.023 127.473 132.174C127.487 132.259 127.464 132.558 127.468 132.544C127.44 132.652 127.342 132.771 127.394 132.715C127.349 132.763 126.975 133.072 127.154 132.942C127.051 133.015 126.939 133.078 126.83 133.144C126.223 133.512 125.604 133.867 124.997 134.238C123.824 134.955 122.666 135.692 121.512 136.434C118.844 138.152 116.196 139.896 113.45 141.503C111.862 142.433 113.325 144.793 114.922 143.858C117.709 142.226 120.393 140.454 123.103 138.712C124.459 137.84 125.821 136.977 127.207 136.147C128.161 135.575 129.245 135.064 129.869 134.141C130.214 133.592 130.4 132.968 130.407 132.331C130.414 131.694 130.243 131.067 129.91 130.511C129.525 129.923 128.979 129.442 128.327 129.118C127.676 128.795 126.944 128.641 126.207 128.672C124.659 128.704 123.324 129.403 122.027 130.121C120.752 130.827 119.476 131.533 118.201 132.239C115.261 133.868 112.323 135.504 109.415 137.181C107.821 138.102 109.284 140.462 110.888 139.536V139.54Z" fill="black"/>
<path d="M128.054 135.957C128.377 135.9 128.711 135.922 129.023 136.02C128.744 135.923 129.362 136.26 129.115 136.074C129.314 136.225 129.1 135.989 129.251 136.217C129.406 136.459 129.474 136.741 129.445 137.021C129.416 137.302 129.292 137.567 129.091 137.777C129.22 137.633 128.964 137.879 128.934 137.904C128.768 138.045 128.582 138.169 128.404 138.297C128.091 138.524 127.776 138.748 127.458 138.969C126.714 139.492 125.964 140.009 125.209 140.519C122.551 142.319 119.819 144.029 117.19 145.867C116.865 146.056 116.63 146.355 116.532 146.702C116.435 147.049 116.483 147.417 116.667 147.732C116.864 148.042 117.184 148.267 117.558 148.359C117.931 148.451 118.328 148.401 118.663 148.221C121.039 146.561 123.503 145.011 125.912 143.392C127.347 142.426 128.769 141.45 130.171 140.437C130.819 140.029 131.372 139.501 131.796 138.888C132.328 138.034 132.504 137.027 132.289 136.059C132.091 135.177 131.546 134.397 130.762 133.872C129.978 133.348 129.011 133.118 128.054 133.227C127.67 133.236 127.304 133.382 127.033 133.636C126.761 133.89 126.604 134.232 126.595 134.591C126.598 134.951 126.753 135.297 127.026 135.552C127.299 135.807 127.668 135.951 128.054 135.954L128.054 135.957Z" fill="black"/>
<path d="M127.711 142.55C127.737 142.545 128.198 142.493 127.902 142.515C128.032 142.506 128.157 142.507 128.288 142.506C128.102 142.506 128.136 142.465 128.304 142.52C128.407 142.551 128.378 142.537 128.216 142.48C128.332 142.548 128.347 142.552 128.261 142.491C128.186 142.345 128.344 142.572 128.382 142.615C128.209 142.424 128.461 142.76 128.474 142.786C128.519 142.889 128.551 142.998 128.57 143.109C128.554 142.93 128.537 143.321 128.56 143.166C128.579 143.035 128.514 143.36 128.505 143.393C128.477 143.482 128.338 143.744 128.46 143.529C128.369 143.693 128.268 143.852 128.156 144.004C127.842 144.394 127.507 144.768 127.15 145.124C125.265 147.056 123.083 148.709 121.021 150.467C120.751 150.724 120.601 151.069 120.602 151.429C120.604 151.789 120.757 152.133 121.03 152.388C121.302 152.642 121.67 152.786 122.055 152.787C122.44 152.789 122.81 152.648 123.085 152.396C125.614 150.239 128.351 148.231 130.44 145.673C130.949 145.116 131.279 144.436 131.392 143.711C131.506 142.986 131.397 142.246 131.08 141.577C130.723 140.826 130.061 140.239 129.24 139.945C128.489 139.74 127.692 139.732 126.937 139.923C126.566 140.022 126.252 140.253 126.061 140.567C125.871 140.88 125.819 141.251 125.918 141.6C126.027 141.945 126.275 142.236 126.61 142.414C126.944 142.592 127.34 142.641 127.712 142.553L127.711 142.55Z" fill="black"/>
<path d="M110.991 138.973C113.19 136.031 115.347 133.061 117.463 130.063C118.374 128.771 118.93 126.995 118.037 125.57C117.599 124.883 116.914 124.363 116.105 124.103C115.295 123.843 114.413 123.86 113.616 124.149C111.908 124.667 110.819 126.004 109.672 127.215C108.557 128.389 107.49 129.601 106.47 130.851C105.445 132.101 104.449 133.385 103.532 134.707C102.705 135.855 102.187 137.174 102.022 138.549C101.883 139.686 101.787 140.843 101.725 141.987C101.641 143.521 101.574 145.149 102.18 146.598C102.792 147.941 103.568 149.212 104.494 150.387C105.277 151.45 106.002 152.543 106.812 153.592C108.543 155.833 110.413 158.109 110.869 160.918C111.098 162.328 110.787 163.866 111.72 165.104C112.717 166.424 114.647 166.709 116.265 166.626C118.151 166.497 119.986 165.989 121.642 165.135C122.442 164.733 123.203 164.266 123.916 163.739C124.671 163.259 125.317 162.644 125.815 161.928C126.237 161.029 126.487 160.067 126.551 159.087C126.695 158.209 126.778 157.323 126.798 156.436C126.785 154.598 126.462 152.774 125.84 151.03C125.276 149.363 122.458 150.075 123.026 151.755C123.898 154.295 124.068 157 123.522 159.618C123.487 160.17 123.228 160.689 122.796 161.068C122.301 161.498 121.765 161.885 121.194 162.224C120.11 162.888 118.917 163.382 117.663 163.687C117.099 163.824 116.52 163.9 115.937 163.911C115.46 163.917 114.605 163.941 114.211 163.641C113.988 163.391 113.881 163.069 113.912 162.745C113.861 162.088 113.861 161.434 113.771 160.778C113.415 158.189 112.143 155.931 110.559 153.816C109.136 151.917 107.718 150.025 106.341 148.097C105.66 147.143 104.848 146.034 104.666 144.872C104.534 143.642 104.546 142.402 104.7 141.174C104.774 140.269 104.818 139.347 104.954 138.447C105.216 137.352 105.747 136.329 106.504 135.459C108.1 133.252 109.846 131.144 111.732 129.147C112.324 128.522 112.908 127.871 113.55 127.292C113.746 127.091 113.985 126.93 114.251 126.819C114.517 126.708 114.805 126.649 115.096 126.648C116.182 126.824 115.208 128.31 114.86 128.801C112.763 131.756 110.633 134.689 108.469 137.6C108.277 137.913 108.224 138.284 108.322 138.633C108.42 138.982 108.66 139.281 108.992 139.466C109.328 139.641 109.723 139.688 110.095 139.596C110.468 139.505 110.787 139.283 110.988 138.977L110.991 138.973Z" fill="black"/>
<path d="M161.234 90.2032C161.022 90.6896 160.84 91.1867 160.687 91.6923C160.429 92.5126 160.106 93.5563 160.842 94.2517C161.005 94.3977 161.189 94.5216 161.389 94.6199C161.591 94.7237 161.806 94.802 162.03 94.8528C162.334 94.9012 162.642 94.9203 162.95 94.9096C163.337 94.9065 163.707 94.764 163.984 94.5119C164.189 94.3212 164.328 94.078 164.385 93.813C164.441 93.5481 164.412 93.2734 164.302 93.0238C164.191 92.7743 164.003 92.5611 163.763 92.4113C163.522 92.2615 163.24 92.1819 162.95 92.1826C162.786 92.1908 162.621 92.1897 162.457 92.1791L162.845 92.228C162.761 92.2146 162.68 92.1932 162.601 92.1644L162.95 92.3019C162.834 92.253 162.725 92.1918 162.624 92.1195L162.919 92.3325C162.915 92.3294 162.911 92.3258 162.908 92.3217L163.136 92.5979C163.131 92.5907 163.126 92.5831 163.122 92.5751L163.27 92.9012C163.263 92.8838 163.259 92.8657 163.256 92.8473L163.308 93.2097C163.302 93.1354 163.305 93.0607 163.318 92.987L163.265 93.3495C163.347 92.8963 163.471 92.4505 163.635 92.0172C163.76 91.6513 163.888 91.2786 164.048 90.9264C164.099 90.751 164.113 90.5677 164.088 90.3873C164.063 90.2068 163.999 90.033 163.901 89.8759C163.804 89.7212 163.676 89.5859 163.523 89.4776C163.37 89.3693 163.196 89.2902 163.011 89.2448C162.825 89.1993 162.632 89.1885 162.442 89.2129C162.253 89.2372 162.07 89.2963 161.904 89.3867L161.609 89.5998C161.431 89.7665 161.301 89.9739 161.234 90.2015V90.2032Z" fill="black"/>
<path d="M149.802 83.9548C149.372 85.2155 149.564 88.1368 152.022 88.4294C155.279 88.4692 155.536 84.9462 154.479 83.2685C153.613 81.8953 150.989 81.2828 149.802 83.9548Z" fill="black"/>
<path d="M177.755 84.0616C178.161 85.3944 177.809 88.4362 175.119 88.6425C171.572 88.5539 171.464 84.8672 172.697 83.1582C173.706 81.7595 176.595 81.2254 177.755 84.0616Z" fill="black"/>
<path d="M159.807 102.71C161.305 103.144 162.885 103.28 164.443 103.108C166.174 102.98 167.86 102.531 169.403 101.787C169.734 101.602 169.975 101.303 170.073 100.954C170.171 100.605 170.118 100.234 169.926 99.9212C169.725 99.6147 169.405 99.3927 169.033 99.3015C168.662 99.2103 168.266 99.2571 167.93 99.432C167.791 99.5025 167.651 99.5701 167.508 99.6337C167.508 99.6337 167.169 99.7769 167.35 99.703C167.513 99.6371 167.269 99.7325 167.24 99.7428C166.907 99.8629 166.567 99.9674 166.223 100.056C165.87 100.147 165.512 100.223 165.151 100.283C165.065 100.298 164.98 100.311 164.894 100.325C164.865 100.329 164.591 100.369 164.766 100.346C164.941 100.322 164.667 100.356 164.637 100.359C164.529 100.371 164.422 100.381 164.313 100.39C163.621 100.45 162.925 100.455 162.232 100.405C162.11 100.396 161.629 100.335 161.969 100.387C161.818 100.364 161.665 100.342 161.517 100.315C161.2 100.256 160.888 100.178 160.583 100.081C160.21 99.9871 159.812 100.035 159.476 100.213C159.14 100.391 158.893 100.686 158.788 101.033C158.694 101.381 158.748 101.75 158.938 102.063C159.127 102.375 159.439 102.607 159.807 102.711V102.71Z" fill="black"/>
<path d="M100.918 70.2585C100.037 70.2585 99.1759 69.9396 98.4435 69.3422C97.7112 68.7448 97.1404 67.8957 96.8034 66.9023C96.4663 65.9088 96.3781 64.8157 96.5499 63.761C96.7218 62.7064 97.1459 61.7376 97.7687 60.9773C98.3915 60.2169 99.185 59.6991 100.049 59.4893C100.913 59.2796 101.808 59.3872 102.622 59.7987C103.436 60.2102 104.131 60.9071 104.62 61.8012C105.11 62.6952 105.371 63.7464 105.371 64.8217C105.37 66.2631 104.9 67.645 104.065 68.6643C103.23 69.6835 102.098 70.2569 100.918 70.2585ZM100.918 59.9001C100.12 59.9001 99.341 60.1888 98.678 60.7296C98.0151 61.2703 97.4984 62.039 97.1933 62.9383C96.8881 63.8376 96.8083 64.8271 96.9639 65.7818C97.1194 66.7365 97.5034 67.6135 98.0671 68.3018C98.6309 68.99 99.3492 69.4588 100.131 69.6487C100.913 69.8386 101.724 69.7411 102.46 69.3686C103.197 68.9961 103.827 68.3653 104.27 67.556C104.712 66.7466 104.949 65.7951 104.949 64.8217C104.948 63.5169 104.523 62.2659 103.767 61.3432C103.011 60.4206 101.986 59.9016 100.918 59.9001Z" fill="#4DD0E1"/>
<path d="M100.497 66.7974C100.402 66.7976 100.309 66.7599 100.233 66.69L100.228 66.6856L99.2309 65.7545C99.1376 65.6673 99.0766 65.5383 99.0612 65.3961C99.0458 65.2539 99.0773 65.11 99.1488 64.9962C99.2203 64.8823 99.3259 64.8078 99.4424 64.789C99.5589 64.7702 99.6767 64.8087 99.77 64.896L100.416 65.5006L101.942 63.0701C101.977 63.0137 102.021 62.9664 102.072 62.9309C102.122 62.8954 102.178 62.8723 102.235 62.863C102.293 62.8537 102.351 62.8584 102.408 62.8767C102.464 62.8951 102.516 62.9267 102.563 62.9699L102.563 62.9701L102.553 62.9861L102.563 62.9701C102.656 63.0574 102.717 63.1863 102.732 63.3285C102.748 63.4706 102.716 63.6144 102.645 63.7283L100.85 66.5858C100.809 66.6516 100.755 66.7049 100.694 66.7415C100.633 66.7781 100.566 66.797 100.498 66.7967L100.497 66.7974Z" fill="#4DD0E1"/>
<path d="M113.66 70.2585C112.779 70.2585 111.918 69.9396 111.186 69.3422C110.453 68.7448 109.883 67.8957 109.546 66.9023C109.209 65.9088 109.12 64.8157 109.292 63.761C109.464 62.7064 109.888 61.7376 110.511 60.9773C111.134 60.2169 111.927 59.6991 112.791 59.4893C113.655 59.2796 114.55 59.3872 115.364 59.7987C116.178 60.2102 116.873 60.9071 117.363 61.8012C117.852 62.6952 118.113 63.7464 118.113 64.8217C118.112 66.2631 117.642 67.6451 116.807 68.6643C115.973 69.6836 114.841 70.2569 113.66 70.2585ZM113.66 59.9001C112.863 59.9001 112.083 60.1888 111.42 60.7296C110.757 61.2703 110.241 62.039 109.936 62.9383C109.63 63.8376 109.551 64.8271 109.706 65.7818C109.862 66.7365 110.246 67.6135 110.809 68.3018C111.373 68.99 112.091 69.4588 112.873 69.6487C113.655 69.8386 114.466 69.7411 115.203 69.3686C115.939 68.9961 116.569 68.3653 117.012 67.556C117.455 66.7466 117.691 65.7951 117.691 64.8217C117.69 63.5169 117.265 62.2659 116.509 61.3432C115.753 60.4206 114.729 59.9016 113.66 59.9001Z" fill="#E6E6E6"/>
<path d="M115.263 66.7028C115.209 66.768 115.137 66.8046 115.061 66.8046C114.986 66.8046 114.913 66.768 114.86 66.7028L113.791 65.3982C113.767 65.3691 113.735 65.3528 113.701 65.3528C113.668 65.3528 113.635 65.3691 113.612 65.3982L112.543 66.7028C112.49 66.768 112.417 66.8047 112.341 66.8047C112.266 66.8047 112.193 66.768 112.14 66.7028C112.086 66.6375 112.056 66.549 112.056 66.4567C112.056 66.3644 112.086 66.2759 112.14 66.2106L113.208 64.906C113.232 64.8769 113.246 64.8375 113.246 64.7963C113.246 64.7552 113.232 64.7158 113.208 64.6867L112.14 63.382C112.086 63.3168 112.056 63.2283 112.056 63.136C112.056 63.0437 112.086 62.9552 112.14 62.8899C112.193 62.8247 112.266 62.788 112.341 62.788C112.417 62.788 112.489 62.8247 112.543 62.8899L113.612 64.1946C113.635 64.2237 113.668 64.24 113.701 64.2399C113.735 64.2399 113.767 64.2236 113.791 64.1946L114.86 62.89C114.913 62.8247 114.986 62.788 115.061 62.788C115.137 62.788 115.209 62.8247 115.263 62.89C115.316 62.9552 115.346 63.0438 115.346 63.1361C115.346 63.2284 115.316 63.3169 115.263 63.3822L114.194 64.6868C114.171 64.7159 114.157 64.7553 114.157 64.7964C114.157 64.8376 114.171 64.877 114.194 64.9061L115.263 66.2107C115.316 66.276 115.346 66.3645 115.346 66.4568C115.346 66.549 115.316 66.6375 115.263 66.7028Z" fill="#E6E6E6"/>
<path d="M100.918 87.5194C100.037 87.5194 99.1759 87.2005 98.4435 86.6031C97.7112 86.0057 97.1404 85.1566 96.8034 84.1632C96.4663 83.1697 96.3781 82.0766 96.5499 81.0219C96.7218 79.9673 97.1459 78.9986 97.7687 78.2382C98.3915 77.4779 99.185 76.96 100.049 76.7503C100.913 76.5405 101.808 76.6481 102.622 77.0596C103.436 77.4711 104.131 78.168 104.62 79.0621C105.11 79.9562 105.371 81.0073 105.371 82.0826C105.37 83.524 104.9 84.906 104.065 85.9252C103.23 86.9445 102.098 87.5178 100.918 87.5194ZM100.918 77.1611C100.12 77.1611 99.341 77.4497 98.678 77.9905C98.0151 78.5313 97.4984 79.2999 97.1933 80.1992C96.8881 81.0985 96.8083 82.0881 96.9639 83.0428C97.1194 83.9974 97.5034 84.8744 98.0671 85.5627C98.6309 86.251 99.3492 86.7197 100.131 86.9096C100.913 87.0995 101.724 87.002 102.46 86.6295C103.197 86.257 103.827 85.6262 104.27 84.8169C104.712 84.0075 104.949 83.056 104.949 82.0826C104.948 80.7778 104.523 79.5268 103.767 78.6042C103.011 77.6815 101.986 77.1625 100.918 77.1611Z" fill="#4DD0E1"/>
<path d="M100.497 84.0583C100.402 84.0585 100.309 84.0208 100.233 83.9509L100.228 83.9466L99.2309 83.0155C99.1376 82.9282 99.0766 82.7992 99.0612 82.657C99.0458 82.5148 99.0773 82.3709 99.1488 82.2571C99.2203 82.1432 99.3259 82.0687 99.4424 82.0499C99.5589 82.0312 99.6767 82.0696 99.77 82.1569L100.416 82.7615L101.942 80.331C101.977 80.2747 102.021 80.2274 102.072 80.1918C102.122 80.1563 102.178 80.1332 102.235 80.1239C102.293 80.1146 102.351 80.1193 102.408 80.1376C102.464 80.156 102.516 80.1877 102.563 80.2309L102.563 80.231L102.553 80.247L102.563 80.231C102.656 80.3184 102.717 80.4473 102.732 80.5894C102.748 80.7316 102.716 80.8753 102.645 80.9892L100.85 83.8467C100.809 83.9126 100.755 83.9658 100.694 84.0024C100.633 84.039 100.566 84.0579 100.498 84.0577L100.497 84.0583Z" fill="#4DD0E1"/>
<path d="M113.66 87.5194C112.779 87.5194 111.918 87.2005 111.186 86.6031C110.453 86.0057 109.883 85.1566 109.546 84.1632C109.209 83.1697 109.12 82.0766 109.292 81.0219C109.464 79.9673 109.888 78.9986 110.511 78.2382C111.134 77.4779 111.927 76.96 112.791 76.7503C113.655 76.5405 114.55 76.6481 115.364 77.0596C116.178 77.4711 116.873 78.168 117.363 79.0621C117.852 79.9562 118.113 81.0073 118.113 82.0826C118.112 83.524 117.642 84.906 116.807 85.9252C115.973 86.9445 114.841 87.5178 113.66 87.5194ZM113.66 77.1611C112.863 77.1611 112.083 77.4497 111.42 77.9905C110.757 78.5313 110.241 79.2999 109.936 80.1992C109.63 81.0985 109.551 82.0881 109.706 83.0428C109.862 83.9974 110.246 84.8744 110.809 85.5627C111.373 86.251 112.091 86.7197 112.873 86.9096C113.655 87.0995 114.466 87.002 115.203 86.6295C115.939 86.257 116.569 85.6262 117.012 84.8169C117.455 84.0075 117.691 83.056 117.691 82.0826C117.69 80.7778 117.265 79.5268 116.509 78.6042C115.753 77.6815 114.729 77.1625 113.66 77.1611Z" fill="#E6E6E6"/>
<path d="M115.263 83.9637C115.209 84.0289 115.137 84.0655 115.061 84.0655C114.986 84.0655 114.913 84.0289 114.86 83.9637L113.791 82.6591C113.767 82.6301 113.735 82.6138 113.701 82.6138C113.668 82.6137 113.635 82.6301 113.612 82.6591L112.543 83.9637C112.49 84.029 112.417 84.0656 112.341 84.0656C112.266 84.0656 112.193 84.029 112.14 83.9637C112.086 83.8984 112.056 83.8099 112.056 83.7176C112.056 83.6253 112.086 83.5368 112.14 83.4715L113.208 82.1669C113.232 82.1378 113.246 82.0984 113.246 82.0573C113.246 82.0162 113.232 81.9767 113.209 81.9476L112.14 80.643C112.086 80.5777 112.056 80.4892 112.056 80.3969C112.056 80.3046 112.086 80.2161 112.14 80.1509C112.193 80.0856 112.266 80.049 112.341 80.049C112.417 80.049 112.489 80.0856 112.543 80.1509L113.612 81.4556C113.635 81.4846 113.668 81.5009 113.701 81.5009C113.735 81.5009 113.767 81.4846 113.791 81.4555L114.86 80.1509C114.913 80.0856 114.986 80.049 115.061 80.049C115.137 80.049 115.209 80.0856 115.263 80.1509C115.316 80.2162 115.346 80.3047 115.346 80.397C115.346 80.4893 115.316 80.5778 115.263 80.6431L114.194 81.9477C114.171 81.9768 114.157 82.0163 114.157 82.0574C114.157 82.0985 114.171 82.1379 114.194 82.167L115.263 83.4716C115.316 83.537 115.346 83.6254 115.346 83.7177C115.346 83.8099 115.316 83.8984 115.263 83.9637Z" fill="#E6E6E6"/>
<path d="M100.918 104.78C100.037 104.78 99.1759 104.462 98.4435 103.864C97.7112 103.267 97.1404 102.418 96.8034 101.424C96.4663 100.431 96.3781 99.3375 96.5499 98.2829C96.7218 97.2282 97.1459 96.2595 97.7687 95.4992C98.3915 94.7388 99.185 94.221 100.049 94.0112C100.913 93.8014 101.808 93.9091 102.622 94.3206C103.436 94.7321 104.131 95.4289 104.62 96.323C105.11 97.2171 105.371 98.2683 105.371 99.3436C105.37 100.785 104.9 102.167 104.065 103.186C103.23 104.205 102.098 104.779 100.918 104.78ZM100.918 94.422C100.12 94.422 99.341 94.7106 98.678 95.2514C98.0151 95.7922 97.4984 96.5609 97.1933 97.4602C96.8881 98.3595 96.8083 99.349 96.9639 100.304C97.1194 101.258 97.5034 102.135 98.0671 102.824C98.6309 103.512 99.3492 103.981 100.131 104.171C100.913 104.36 101.724 104.263 102.46 103.89C103.197 103.518 103.827 102.887 104.27 102.078C104.712 101.268 104.949 100.317 104.949 99.3436C104.948 98.0387 104.523 96.7878 103.767 95.8651C103.011 94.9425 101.986 94.4235 100.918 94.422Z" fill="#E6E6E6"/>
<path d="M100.497 101.319C100.402 101.319 100.309 101.282 100.233 101.212L100.228 101.207L99.2309 100.276C99.1376 100.189 99.0766 100.06 99.0612 99.9179C99.0458 99.7757 99.0773 99.6319 99.1488 99.518C99.2203 99.4042 99.3259 99.3297 99.4424 99.3109C99.5589 99.2921 99.6767 99.3306 99.77 99.4178L100.416 100.022L101.942 97.5919C101.977 97.5356 102.021 97.4883 102.072 97.4528C102.122 97.4172 102.178 97.3942 102.235 97.3849C102.293 97.3756 102.351 97.3802 102.408 97.3986C102.464 97.4169 102.516 97.4486 102.563 97.4918L102.563 97.4919L102.553 97.508L102.563 97.4919C102.656 97.5793 102.717 97.7082 102.732 97.8503C102.748 97.9925 102.716 98.1363 102.645 98.2501L100.85 101.108C100.809 101.173 100.755 101.227 100.694 101.263C100.633 101.3 100.566 101.319 100.498 101.319L100.497 101.319Z" fill="#E6E6E6"/>
<path d="M113.66 104.78C112.779 104.78 111.918 104.462 111.186 103.864C110.453 103.267 109.883 102.418 109.546 101.424C109.209 100.431 109.12 99.3375 109.292 98.2829C109.464 97.2282 109.888 96.2595 110.511 95.4992C111.134 94.7388 111.927 94.221 112.791 94.0112C113.655 93.8014 114.55 93.9091 115.364 94.3206C116.178 94.7321 116.873 95.4289 117.363 96.323C117.852 97.2171 118.113 98.2683 118.113 99.3436C118.112 100.785 117.642 102.167 116.807 103.186C115.973 104.205 114.841 104.779 113.66 104.78ZM113.66 94.422C112.863 94.422 112.083 94.7106 111.42 95.2514C110.757 95.7922 110.241 96.5609 109.936 97.4602C109.63 98.3595 109.551 99.349 109.706 100.304C109.862 101.258 110.246 102.135 110.809 102.824C111.373 103.512 112.091 103.981 112.873 104.171C113.655 104.36 114.466 104.263 115.203 103.89C115.939 103.518 116.569 102.887 117.012 102.078C117.455 101.268 117.691 100.317 117.691 99.3436C117.69 98.0387 117.265 96.7878 116.509 95.8651C115.753 94.9424 114.729 94.4235 113.66 94.422Z" fill="#E6E6E6"/>
<path d="M115.263 101.225C115.209 101.29 115.137 101.326 115.061 101.326C114.986 101.326 114.913 101.29 114.86 101.225L113.791 99.9201C113.767 99.891 113.735 99.8747 113.701 99.8747C113.668 99.8747 113.635 99.891 113.612 99.92L112.543 101.225C112.49 101.29 112.417 101.327 112.341 101.327C112.266 101.327 112.193 101.29 112.14 101.225C112.086 101.159 112.056 101.071 112.056 100.979C112.056 100.886 112.086 100.798 112.14 100.732L113.208 99.4278C113.232 99.3987 113.246 99.3593 113.246 99.3182C113.246 99.2771 113.232 99.2377 113.208 99.2086L112.14 97.9039C112.086 97.8386 112.056 97.7501 112.056 97.6578C112.056 97.5656 112.086 97.477 112.14 97.4118C112.193 97.3465 112.266 97.3099 112.341 97.3099C112.417 97.3099 112.489 97.3465 112.543 97.4118L113.612 98.7165C113.635 98.7455 113.668 98.7618 113.701 98.7618C113.735 98.7618 113.767 98.7455 113.791 98.7164L114.86 97.4118C114.913 97.3468 114.986 97.3103 115.061 97.3104C115.137 97.3105 115.209 97.3471 115.262 97.4123C115.316 97.4775 115.346 97.5659 115.346 97.6581C115.346 97.7502 115.316 97.8387 115.263 97.904L114.194 99.2086C114.171 99.2377 114.157 99.2772 114.157 99.3183C114.157 99.3594 114.171 99.3989 114.194 99.428L115.263 100.733C115.316 100.798 115.346 100.886 115.346 100.979C115.346 101.071 115.316 101.159 115.263 101.225Z" fill="#E6E6E6"/>
<path d="M61.5835 66.1386H26.8693C26.4219 66.138 25.993 65.9205 25.6769 65.5341C25.3607 65.1477 25.1831 64.6238 25.1831 64.0776C25.1831 63.5314 25.3607 63.0075 25.6769 62.6211C25.993 62.2346 26.4219 62.0172 26.8693 62.0166H61.5835C62.0309 62.0172 62.4598 62.2346 62.7759 62.6211C63.0921 63.0075 63.2697 63.5314 63.2697 64.0776C63.2697 64.6238 63.0921 65.1477 62.7759 65.5341C62.4598 65.9205 62.0309 66.138 61.5835 66.1386Z" fill="#4DD0E1"/>
<path d="M83.0157 67.8962H23.4153C23.3567 67.8962 23.3006 67.8679 23.2592 67.8173C23.2178 67.7668 23.1945 67.6982 23.1945 67.6267C23.1945 67.5553 23.2178 67.4867 23.2592 67.4362C23.3006 67.3857 23.3567 67.3573 23.4153 67.3573H83.0157C83.0742 67.3573 83.1304 67.3857 83.1718 67.4362C83.2132 67.4867 83.2364 67.5553 83.2364 67.6267C83.2364 67.6982 83.2132 67.7668 83.1718 67.8173C83.1304 67.8679 83.0742 67.8962 83.0157 67.8962Z" fill="black"/>
<path d="M61.5835 83.3995H26.8694C26.4216 83.3995 25.9922 83.1824 25.6756 82.7959C25.359 82.4094 25.1812 81.8851 25.1812 81.3385C25.1812 80.7919 25.359 80.2677 25.6756 79.8812C25.9922 79.4947 26.4216 79.2775 26.8694 79.2775H61.5835C62.0309 79.2781 62.4598 79.4955 62.7759 79.882C63.0921 80.2684 63.2697 80.7923 63.2697 81.3385C63.2697 81.8847 63.0921 82.4086 62.7759 82.795C62.4598 83.1815 62.0309 83.3989 61.5835 83.3995Z" fill="#4DD0E1"/>
<path d="M83.0157 85.1572H23.4153C23.3567 85.1572 23.3006 85.1288 23.2592 85.0783C23.2178 85.0277 23.1945 84.9592 23.1945 84.8877C23.1945 84.8162 23.2178 84.7477 23.2592 84.6972C23.3006 84.6466 23.3567 84.6182 23.4153 84.6182H83.0157C83.0742 84.6182 83.1304 84.6466 83.1718 84.6972C83.2132 84.7477 83.2364 84.8162 83.2364 84.8877C83.2364 84.9592 83.2132 85.0277 83.1718 85.0783C83.1304 85.1288 83.0742 85.1572 83.0157 85.1572Z" fill="black"/>
<path d="M61.5835 100.66H26.8694C26.4216 100.66 25.9922 100.443 25.6756 100.057C25.359 99.6703 25.1812 99.146 25.1812 98.5994C25.1812 98.0528 25.359 97.5286 25.6756 97.1421C25.9922 96.7556 26.4216 96.5384 26.8694 96.5384H61.5835C62.0309 96.5391 62.4598 96.7565 62.7759 97.1429C63.0921 97.5294 63.2697 98.0532 63.2697 98.5994C63.2697 99.1456 63.0921 99.6695 62.7759 100.056C62.4598 100.442 62.0309 100.66 61.5835 100.66Z" fill="#F2F2F2"/>
<path d="M83.0157 102.418H23.4153C23.3567 102.418 23.3006 102.39 23.2592 102.339C23.2178 102.289 23.1945 102.22 23.1945 102.149C23.1945 102.077 23.2178 102.009 23.2592 101.958C23.3006 101.907 23.3567 101.879 23.4153 101.879H83.0157C83.0742 101.879 83.1304 101.907 83.1718 101.958C83.2132 102.009 83.2364 102.077 83.2364 102.149C83.2364 102.22 83.2132 102.289 83.1718 102.339C83.1304 102.39 83.0742 102.418 83.0157 102.418Z" fill="black"/>
</g>
<defs>
<clipPath id="clip0_121_14">
<rect width="211" height="186" fill="white" transform="translate(15 20)"/>
</clipPath>
</defs>
</svg>
