<svg width="280" height="209" viewBox="0 0 280 209" fill="none" xmlns="http://www.w3.org/2000/svg">
<g clip-path="url(#clip0_121_18)">
<path d="M69.1227 41.0451C55.7518 45.8106 47.1973 58.6748 47.1973 73.2075C47.1973 94.5099 60.1774 107.974 80.7549 107.974C87.3279 107.974 93.0646 106.661 97.8492 104.213C101.255 105.639 103.826 106.651 108.235 108.295C107.125 104.006 106.59 101.824 105.62 98.3741C111.259 92.353 114.312 83.7399 114.312 73.2075C114.312 54.6859 100.522 39.0823 80.7498 39.0823C76.7939 39.064 72.8633 39.7276 69.1227 41.0451Z" fill="white"/>
<path d="M95.8647 135.074C93.5161 135.003 91.4628 134.945 89.817 134.904C89.4445 134.895 89.0747 134.971 88.7341 135.125C88.3935 135.28 88.0906 135.51 87.8472 135.798C87.6037 136.087 87.4258 136.427 87.3261 136.794C87.2264 137.162 87.2075 137.547 87.2707 137.923C89.5875 151.795 92.0372 166.286 95.1416 184.521C95.2368 185.084 95.5117 185.6 95.9233 185.986C96.335 186.373 96.8602 186.609 97.4169 186.658C109.708 187.73 150.879 189.513 160.444 189.762C161.207 189.782 161.96 189.579 162.615 189.178C166.774 186.63 183.086 177.077 191.471 171.495C191.471 171.495 190.965 168.423 190.736 167.524C190.281 167.751 189.796 167.978 189.297 168.189C188.36 168.584 187.356 168.785 186.343 168.781C185.329 168.776 184.327 168.567 183.394 168.164C181.746 170.037 179.945 171.763 178.009 173.322C177.649 173.618 176.455 174.516 175.481 173.671C174.842 173.116 174.991 171.846 175.307 171.352C176.824 168.968 177.472 167.201 179.152 165.004C176.366 166.776 173.686 168.849 170.911 170.648C170.008 171.233 169.256 171.741 168.203 171.552C167.731 171.475 167.303 171.222 167.002 170.841C166.702 170.46 166.55 169.979 166.576 169.49C166.63 168.968 166.815 168.469 167.113 168.042C166.342 168.474 165.515 168.792 164.656 168.985C164.393 169.053 164.117 169.054 163.853 168.989C163.588 168.923 163.344 168.792 163.141 168.607C162.937 168.422 162.781 168.189 162.685 167.929C162.59 167.668 162.558 167.388 162.593 167.112C162.608 166.519 162.828 165.95 163.214 165.508L163.662 164.926L163.079 165.052C162.655 165.157 162.21 165.129 161.801 164.973C161.392 164.818 161.038 164.541 160.784 164.178C160.359 163.536 160.627 162.455 160.814 162.067C161.12 161.543 161.5 161.069 161.942 160.66C162.452 160.142 164.667 158.409 165.243 157.98C165.513 157.78 165.783 157.583 166.052 157.389C165.678 154.968 165.092 151.393 164.763 149.102C164.536 147.494 163.694 142.597 162.725 136.879L162.538 137.297C161.274 140.744 158.616 147.174 156.137 151.257C156.137 151.257 155.471 152.476 154.629 154.017C153.771 148.956 152.92 143.963 152.078 139.037C151.977 138.452 151.683 137.921 151.245 137.533C150.807 137.145 150.251 136.923 149.672 136.905C141.42 136.635 111.821 135.554 95.8647 135.074Z" fill="white"/>
<path d="M225.719 112.772C226.006 113.573 226.253 114.351 226.451 115.083C230.046 128.42 231.507 137.503 233.641 152.104C233.911 154.98 233.733 157.882 233.115 160.701C232.3 163.701 229.707 165.926 226.868 167.054C224.029 168.182 220.923 168.249 217.893 168.565C214.053 168.965 197.275 169.156 194.728 169.195C194.677 167.785 193.586 159.513 191.061 154.533C189.369 154.581 188.245 155.047 186.237 154.541C183.385 153.828 181.993 152.529 179.121 151.893C176.871 151.396 174.565 152.348 172.508 153.419C170.267 154.586 168.109 155.913 166.051 157.392C165.677 154.97 165.09 151.396 164.762 149.105C164.535 147.497 163.694 142.605 162.725 136.892L162.537 137.299C160.359 143.088 157.714 148.681 154.628 154.019C153.796 149.116 152.896 143.805 152.076 139.037C151.975 138.452 151.681 137.921 151.243 137.533C150.805 137.145 150.249 136.923 149.67 136.905C147.866 136.846 145.042 136.749 141.564 136.625C143.127 130.457 144.073 125.188 145.164 119.061C145.968 114.555 146.762 109.635 148.258 105.32C149.052 102.795 150.511 100.543 152.475 98.8117C153.785 97.623 155.272 96.6555 156.879 95.9455L165.733 92.5413C165.835 92.6727 165.936 92.8 166.041 92.9184C168.207 95.4721 171.423 96.9808 174.707 97.509C178.349 98.0628 182.061 97.9136 185.651 97.0693C191.027 95.781 195.459 94.6149 200.203 91.8465C200.277 91.8082 201.669 91.0187 201.473 91.1258C206.199 92.9034 211.807 94.9279 215.929 98.2219C217.643 99.5269 219.178 101.061 220.494 102.784C222.69 105.843 224.449 109.206 225.719 112.772Z" fill="white"/>
<path d="M170.134 90.9126L171.705 90.2008C175.468 91.0146 179.377 90.7709 183.016 89.4956C186.336 88.2772 189.339 86.2978 191.795 83.7089C192.738 82.7836 193.616 81.7928 194.424 80.7434L194.438 80.7951C194.965 83.053 195.751 85.2393 196.779 87.3087C197.249 88.2813 199.373 90.1387 201.017 91.3855C200.667 91.5852 200.243 91.8258 200.202 91.8465C195.461 94.6149 191.026 95.7784 185.65 97.0693C182.06 97.9143 178.348 98.064 174.705 97.5106C171.421 96.9823 168.205 95.4737 166.039 92.92C166.001 92.8781 165.965 92.8346 165.929 92.7912C167.574 92.0653 168.507 91.6468 170.134 90.9126Z" fill="white"/>
<path d="M159.976 54.1499C162.69 51.7235 165.768 49.3162 168.19 48.1144C168.638 47.8924 169.211 48.1894 169.39 48.8904C169.752 50.3132 169.153 52.3438 170.213 51.948C172.05 51.262 177.567 47.5365 181.842 45.8276L186.076 47.4744C186.744 47.8279 187.378 48.2452 187.969 48.7207C188.9 49.5139 189.732 50.4213 190.447 51.4224C191.854 53.3366 193.638 56.4858 195.838 61.5777L197.237 60.6216C198.633 59.1456 201.102 59.0695 202.772 60.2119C203.584 60.8212 204.239 61.6243 204.679 62.5513C205.119 63.4784 205.331 64.5014 205.297 65.5314C205.204 67.5981 204.514 69.5901 203.314 71.255C201.774 73.4525 199.685 75.1858 197.266 76.2734C195.84 79.0322 193.992 81.5401 191.793 83.7022C189.336 86.2911 186.333 88.2705 183.014 89.4889C179.196 90.8261 175.086 91.0279 171.161 90.0709C169.047 89.5707 167.021 88.7396 165.155 87.6067C163.005 86.2236 161.127 84.441 159.618 82.3508C157.728 79.8688 156.257 77.0816 155.265 74.1041C154.325 71.4081 153.677 68.6149 153.333 65.7745C153.113 64.2126 153.002 62.884 152.942 61.9026C152.942 61.9026 152.935 61.7846 152.922 61.586L155.844 58.1284C156.973 56.9478 158.414 55.5458 159.976 54.1499Z" fill="white"/>
<path d="M162.595 167.29C162.592 167.23 162.592 167.171 162.595 167.113C162.609 166.52 162.83 165.952 163.216 165.51L163.664 164.928L163.081 165.054C162.657 165.158 162.212 165.131 161.803 164.975C161.394 164.819 161.04 164.542 160.785 164.179C160.361 163.538 160.629 162.457 160.816 162.069C161.122 161.545 161.501 161.071 161.943 160.661C162.454 160.144 164.669 158.411 165.245 157.981C167.544 156.265 169.974 154.739 172.511 153.418C174.569 152.347 176.874 151.395 179.124 151.892C181.996 152.528 183.388 153.826 186.24 154.54C188.248 155.046 189.372 154.58 191.064 154.534C192.721 157.802 193.762 162.489 194.295 165.723L193.944 165.83C193.223 166.14 191.399 167.297 189.299 168.188C188.362 168.583 187.358 168.784 186.345 168.779C185.331 168.775 184.329 168.565 183.396 168.162C181.748 170.036 179.947 171.762 178.011 173.321C177.651 173.616 176.457 174.514 175.483 173.669C174.844 173.114 174.993 171.845 175.309 171.35C176.826 168.967 177.474 167.199 179.154 165.003C176.368 166.774 173.688 168.848 170.913 170.646C170.01 171.231 169.258 171.739 168.205 171.55C167.733 171.473 167.305 171.22 167.004 170.839C166.704 170.459 166.552 169.977 166.578 169.489C166.633 168.966 166.819 168.468 167.117 168.04C166.593 168.289 166.282 168.437 166.282 168.437C165.772 168.705 165.224 168.891 164.658 168.987C164.369 169.032 164.073 169.011 163.792 168.926C163.51 168.841 163.251 168.695 163.031 168.496C162.76 168.154 162.607 167.73 162.595 167.29Z" fill="white"/>
<path d="M91.6428 64.1102C84.3351 64.1102 71.8283 64.135 66.2433 64.1288C67.4188 68.3712 69.2264 74.9205 70.5481 79.6341C76.1533 79.6181 90.0071 79.5788 93.1996 79.5705C93.4294 79.5703 93.6523 79.4905 93.8321 79.344C94.0119 79.1975 94.1379 78.9931 94.1895 78.7639C94.7796 76.1652 96.479 68.6071 97.1894 65.3906C97.223 65.2382 97.2227 65.08 97.1886 64.9277C97.1544 64.7754 97.0873 64.6328 96.9921 64.5106C96.897 64.3884 96.7762 64.2896 96.6387 64.2216C96.5012 64.1535 96.3506 64.1179 96.1978 64.1174C95.2235 64.1133 93.6243 64.1133 91.6428 64.1102Z" fill="#4DD0E1"/>
<path d="M204.887 46.6714C204.044 41.1802 202.039 35.6744 198.386 32.7901L195.025 29.8929C193.828 28.735 189.505 23.9742 180.058 23.3519C168.86 22.6136 160.627 26.4907 157.164 30.6291L156.981 34.487C152.286 39.0641 149.823 47.1898 151.539 58.2557C151.604 58.9604 151.678 59.6557 151.762 60.337C151.856 61.1074 151.964 61.8607 152.079 62.5907C152.161 62.4924 155.848 58.131 155.848 58.131C158.932 54.8923 164.376 50.0084 168.191 48.1149C168.639 47.8929 169.212 48.1899 169.391 48.8909C169.753 50.3137 169.154 52.3443 170.214 51.9485C172.051 51.2625 177.568 47.537 181.843 45.8281L186.077 47.4749C186.745 47.8285 187.379 48.2457 187.97 48.7212C188.901 49.5144 189.733 50.4218 190.448 51.4229C191.855 53.3371 193.639 56.4863 195.839 61.5782L197.238 60.6221C198.634 59.1461 201.103 59.07 202.773 60.2124C203.247 60.5389 203.665 60.9436 204.01 61.4101C204.925 58.9236 205.411 54.1711 205.358 52.0096C205.314 50.2217 205.157 48.4385 204.887 46.6714Z" fill="#4DD0E1"/>
<path d="M200.877 90.044C199.232 91.035 197.53 91.9232 195.78 92.7038C193.473 93.6578 191.101 94.438 188.683 95.0381C186.139 95.7854 183.532 96.2863 180.896 96.5343C178.292 96.7599 175.669 96.5432 173.134 95.8928C170.57 95.2247 168.278 93.742 166.589 91.6576C166.36 91.4266 166.052 91.297 165.731 91.297C165.41 91.297 165.101 91.4266 164.873 91.6576C164.652 91.8943 164.529 92.2087 164.529 92.5356C164.529 92.8626 164.652 93.177 164.873 93.4136C168.295 97.8148 174.036 99.1278 179.274 99.0777C182.205 98.9902 185.117 98.5562 187.951 97.7842C190.531 97.1773 193.07 96.3997 195.551 95.4561C197.812 94.5346 200.002 93.442 202.104 92.1874C203.462 91.3974 202.24 89.2509 200.879 90.043L200.877 90.044Z" fill="black"/>
<path d="M157.895 113.665C158.387 119.119 159.434 124.551 160.33 129.945C161.3 135.777 162.325 141.601 163.279 147.437C163.838 150.86 164.35 154.294 164.881 157.723C164.969 158.039 165.174 158.307 165.454 158.469C165.733 158.632 166.063 158.675 166.374 158.59C166.68 158.496 166.939 158.284 167.096 158C167.254 157.716 167.299 157.38 167.221 157.063C166.362 151.499 165.488 145.939 164.545 140.391C163.452 133.954 162.344 127.519 161.341 121.067C161.108 119.567 160.88 118.071 160.672 116.566C160.65 116.411 160.629 116.259 160.609 116.106C160.598 116.033 160.544 115.625 160.565 115.784C160.585 115.933 160.536 115.558 160.527 115.486C160.508 115.341 160.49 115.196 160.473 115.051C160.416 114.589 160.364 114.126 160.321 113.663C160.312 113.336 160.182 113.025 159.956 112.794C159.73 112.563 159.427 112.43 159.107 112.421C158.786 112.423 158.479 112.555 158.252 112.787C158.025 113.02 157.896 113.334 157.894 113.663L157.895 113.665Z" fill="black"/>
<path d="M143.128 135.362C144.811 128.408 145.909 121.342 147.249 114.318C147.878 111.028 148.531 107.575 149.872 104.498C151.138 101.66 153.257 99.311 155.92 97.7936C157.617 96.7801 159.608 96.2177 161.442 95.5125L167.333 93.2475C167.638 93.1524 167.896 92.941 168.054 92.6569C168.212 92.3727 168.257 92.0375 168.181 91.7203C168.093 91.4041 167.887 91.136 167.608 90.9738C167.328 90.8116 166.998 90.7682 166.688 90.8532L161.268 92.9371C159.467 93.6293 157.621 94.2538 155.858 95.0427C154.321 95.8043 152.894 96.7771 151.615 97.9343C150.391 98.983 149.359 100.246 148.567 101.664C146.854 104.665 146.039 108.192 145.328 111.556C144.569 115.15 143.992 118.782 143.334 122.396C142.584 126.52 141.771 130.63 140.786 134.703C140.411 136.255 142.751 136.916 143.126 135.363L143.128 135.362Z" fill="black"/>
<path d="M157.184 151.886C159.867 147.437 161.913 142.513 163.707 137.629C163.79 137.312 163.747 136.974 163.589 136.688C163.43 136.402 163.168 136.192 162.859 136.102C162.549 136.022 162.221 136.067 161.942 136.229C161.664 136.39 161.458 136.656 161.366 136.969C159.706 141.719 157.604 146.295 155.088 150.633C154.265 151.997 156.364 153.245 157.183 151.886H157.184Z" fill="black"/>
<path d="M193.27 81.1236C193.516 82.2804 193.853 83.4148 194.278 84.5154C194.692 85.7148 195.191 86.8816 195.771 88.0066C196.27 88.8045 196.888 89.5177 197.602 90.1206C198.493 90.9514 199.44 91.7192 200.406 92.4559C200.684 92.62 201.015 92.6653 201.325 92.5819C201.636 92.4986 201.902 92.2932 202.066 92.0105C202.221 91.7243 202.262 91.3881 202.181 91.0717C202.1 90.7553 201.903 90.483 201.631 90.3115C200.831 89.7015 200.056 89.0527 199.318 88.3646C198.979 88.0475 198.645 87.721 198.334 87.3739C198.263 87.2952 198.195 87.215 198.127 87.1349C198.07 87.0686 197.965 86.9233 198.071 87.0728C197.981 86.9479 197.901 86.8166 197.829 86.6801C196.808 84.7243 196.061 82.631 195.611 80.4619C195.569 80.3047 195.497 80.1575 195.399 80.0288C195.301 79.9001 195.179 79.7924 195.04 79.7119C194.902 79.6313 194.749 79.5795 194.591 79.5594C194.433 79.5393 194.272 79.5512 194.118 79.5946C193.965 79.6379 193.821 79.7118 193.695 79.812C193.569 79.9122 193.464 80.0368 193.385 80.1787C193.307 80.3205 193.256 80.4768 193.236 80.6387C193.217 80.8006 193.228 80.9648 193.271 81.1221L193.27 81.1236Z" fill="black"/>
<path d="M166.723 93.7804C168.594 92.9552 170.457 92.1134 172.321 91.2712C172.598 91.1041 172.799 90.8318 172.88 90.5135C172.962 90.1952 172.917 89.8568 172.756 89.5722C172.587 89.2951 172.321 89.0946 172.012 89.0118C171.703 88.929 171.376 88.9701 171.095 89.1267C169.232 89.9695 167.369 90.8107 165.498 91.6359C165.221 91.8028 165.02 92.0751 164.938 92.3935C164.856 92.7119 164.901 93.0504 165.063 93.3349C165.232 93.6117 165.498 93.8119 165.807 93.8947C166.115 93.9775 166.443 93.9366 166.723 93.7804Z" fill="black"/>
<path d="M198.098 61.5017C198.678 60.9817 199.418 60.6865 200.189 60.6676C200.959 60.6487 201.712 60.9073 202.316 61.3982C203.717 62.4997 204.231 64.4605 204.052 66.1926C203.625 70.347 200.165 73.5215 196.681 75.1947C196.405 75.3628 196.205 75.6351 196.123 75.953C196.042 76.2708 196.086 76.6087 196.246 76.8937C196.413 77.1726 196.679 77.3746 196.988 77.4576C197.298 77.5406 197.627 77.4982 197.906 77.3392C201.538 75.5931 204.634 72.5934 205.971 68.6557C207.241 64.9168 206.148 60.0836 202.23 58.561C201.244 58.1757 200.172 58.0826 199.138 58.2923C198.103 58.5021 197.147 59.0062 196.379 59.7468C195.264 60.8689 196.98 62.6243 198.096 61.5027L198.098 61.5017Z" fill="black"/>
<path d="M151.731 61.9047C152.329 71.434 155.342 81.7279 163.124 87.6962C170.473 93.3308 181.285 93.189 188.751 87.9145C192.747 85.0612 196.029 81.282 198.327 76.8849C199.063 75.4761 196.969 74.2205 196.231 75.6318C194.337 79.2243 191.753 82.388 188.634 84.933C185.438 87.5381 181.544 89.0887 177.468 89.3793C173.392 89.67 169.326 88.687 165.808 86.5606C162.02 84.2061 159.169 80.2348 157.367 76.1533C155.395 71.6875 154.466 66.7761 154.161 61.9047C154.154 61.5777 154.023 61.2662 153.797 61.035C153.571 60.8037 153.267 60.6705 152.947 60.663C152.626 60.6658 152.319 60.7976 152.092 61.0298C151.865 61.2621 151.737 61.5762 151.734 61.9047H151.731Z" fill="black"/>
<path d="M205.387 61.1219C206.459 57.2872 206.809 53.2793 206.419 49.311C206.043 45.0733 205.134 40.7875 203.201 36.9906C202.248 35.0305 200.9 33.2995 199.244 31.9121C199.012 31.6887 198.705 31.5643 198.386 31.5643C198.068 31.5643 197.761 31.6887 197.528 31.9121C197.303 32.146 197.176 32.4614 197.176 32.7901C197.176 33.1188 197.303 33.4342 197.528 33.6681C200.377 35.9538 201.924 39.4734 202.871 42.963C203.878 46.558 204.289 50.3004 204.087 54.0345C203.977 56.2106 203.628 58.3671 203.047 60.4633C202.594 61.9962 204.936 62.6517 205.387 61.1234V61.1219Z" fill="black"/>
<path d="M150.325 58.2552C150.46 59.7235 150.64 61.1864 150.864 62.644C150.948 62.956 151.148 63.2222 151.421 63.3859C151.558 63.4682 151.71 63.522 151.868 63.5442C152.026 63.5664 152.187 63.5565 152.341 63.5152C152.495 63.4738 152.64 63.4017 152.767 63.3031C152.894 63.2045 153.001 63.0813 153.081 62.9404C153.229 62.6456 153.272 62.3076 153.203 61.9838C153.13 61.512 153.062 61.0396 153.001 60.5668L153.045 60.8968C152.93 60.0184 152.832 59.1378 152.751 58.2552C152.743 57.9275 152.617 57.6145 152.397 57.3757C152.228 57.2014 152.011 57.0827 151.775 57.0345C151.54 56.9863 151.295 57.0109 151.073 57.1052C150.851 57.1994 150.661 57.359 150.528 57.5638C150.395 57.7685 150.324 58.0092 150.324 58.2552H150.325Z" fill="black"/>
<path d="M156.123 33.6086C151.477 38.1789 149.817 44.9735 149.793 51.3805C149.803 53.8089 150 56.2328 150.384 58.6292C150.472 58.9456 150.678 59.2139 150.957 59.3762C151.236 59.5385 151.567 59.5817 151.877 59.4963C152.183 59.402 152.442 59.1907 152.6 58.9064C152.758 58.622 152.802 58.2864 152.725 57.9691C151.747 51.5631 151.904 44.3847 155.26 38.6761C155.968 37.4575 156.836 36.3436 157.839 35.365C158.967 34.2553 157.249 32.5009 156.123 33.6091V33.6086Z" fill="black"/>
<path d="M196.631 29.0144C195.549 27.928 194.376 26.94 193.126 26.0618C190.76 24.4852 188.132 23.366 185.372 22.76C181.571 21.9517 177.667 21.7801 173.812 22.252C170.418 22.6019 167.097 23.4763 163.96 24.8455C161.333 25.9383 158.975 27.6133 157.057 29.7501C156.039 30.9535 157.749 32.7177 158.773 31.5065C160.277 29.7944 162.112 28.4203 164.162 27.4711C166.897 26.1502 169.815 25.2701 172.813 24.8621C178.96 23.9432 185.811 24.3964 191.224 27.7629C191.713 28.0671 192.189 28.3922 192.651 28.7381C192.752 28.813 192.851 28.8889 192.948 28.9658C193.059 29.0522 192.917 28.9415 192.904 28.9311C192.954 28.9725 193.005 29.0139 193.058 29.0563C193.225 29.1955 193.392 29.3341 193.555 29.4774C194.026 29.8913 194.468 30.3321 194.918 30.7708C196.051 31.8708 197.77 30.1179 196.634 29.0149L196.631 29.0144Z" fill="black"/>
<path d="M156.705 59.0085C158.379 57.2557 160.149 55.5939 161.985 54.0196C163.824 52.3834 165.808 50.9257 167.911 49.6654C168.126 49.5672 168.334 49.4529 168.534 49.3235C168.759 49.1419 168.65 49.3364 168.509 49.2671C168.512 49.2671 168.095 49.2847 168.208 49.1765C168.223 49.3337 168.25 49.4894 168.289 49.6422C168.319 49.95 168.313 50.263 168.316 50.5708C168.327 51.6542 168.45 53.0319 169.757 53.2171C170.571 53.333 171.425 52.7753 172.122 52.4007C173.043 51.9067 173.942 51.3753 174.852 50.8523C177.202 49.4072 179.647 48.1297 182.169 47.029C182.474 46.933 182.732 46.7213 182.889 46.4373C183.047 46.1533 183.092 45.8184 183.016 45.5012C182.929 45.185 182.723 44.9168 182.443 44.7545C182.164 44.5923 181.834 44.549 181.523 44.6341C179.136 45.647 176.818 46.8236 174.585 48.1558C173.598 48.7218 172.617 49.2991 171.626 49.8558C171.243 50.071 170.858 50.2837 170.467 50.4829C170.325 50.5553 170.182 50.6231 170.039 50.6934C169.968 50.7281 169.76 50.7969 170.039 50.6965C169.951 50.7204 169.865 50.7512 169.781 50.7886L170.727 51.1963C170.78 51.3396 170.794 51.3639 170.769 51.2687C170.812 51.2056 170.772 51.4333 170.758 51.1746C170.744 50.9159 170.747 50.6629 170.744 50.4068C170.76 49.7871 170.698 49.1678 170.561 48.564C170.477 48.2224 170.32 47.904 170.101 47.6318C169.883 47.3596 169.608 47.1403 169.297 46.9896C168.975 46.8563 168.626 46.804 168.28 46.8372C167.935 46.8704 167.602 46.9882 167.309 47.1805C165.132 48.3945 163.084 49.8363 161.198 51.4829C159.02 53.2815 156.947 55.2085 154.989 57.2541C153.896 58.3975 155.611 60.155 156.705 59.01L156.705 59.0085Z" fill="black"/>
<path d="M185.466 48.5484C187.627 49.7094 189.186 51.5714 190.51 53.6988C192.142 56.4216 193.574 59.2653 194.793 62.2063C194.957 62.4889 195.223 62.6942 195.534 62.7775C195.845 62.8609 196.175 62.8157 196.454 62.6517C196.726 62.48 196.922 62.2077 197.004 61.8914C197.085 61.575 197.044 61.2389 196.889 60.9527C195.639 57.9251 194.158 55.0031 192.459 52.2139C190.962 49.8527 189.154 47.7284 186.69 46.4055C185.308 45.6636 184.08 47.806 185.466 48.5495V48.5484Z" fill="black"/>
<path d="M190.858 170.422C183.552 175.282 175.983 179.735 168.46 184.232C167.004 185.102 165.549 185.972 164.093 186.842C162.913 187.55 161.713 188.545 160.296 188.516C157.991 188.469 155.687 188.368 153.384 188.281C145.971 188 138.559 187.684 131.148 187.332C123.268 186.966 115.388 186.579 107.512 186.111C104.607 185.939 101.701 185.759 98.7987 185.53C98.2751 185.534 97.7526 185.479 97.2409 185.365C96.1074 184.993 96.1792 183.403 96.0123 182.422C95.4757 179.271 94.9401 176.121 94.4055 172.97C92.5357 161.956 90.6777 150.94 88.8316 139.922C88.7345 139.339 88.6373 138.756 88.5398 138.174C88.403 137.731 88.4314 137.251 88.6197 136.829C89.0192 136.104 89.728 136.146 90.4399 136.164C91.7953 136.198 93.151 136.236 94.5071 136.277C98.0555 136.38 101.604 136.492 105.152 136.612C113.505 136.888 121.857 137.174 130.209 137.471C136.495 137.692 142.78 137.911 149.066 138.128C149.723 138.15 150.368 138.163 150.734 138.829C150.951 139.383 151.078 139.97 151.113 140.565C151.25 141.366 151.387 142.167 151.524 142.969C152.071 146.17 152.616 149.372 153.157 152.574C154.262 159.086 155.372 165.596 156.487 172.104C157.041 175.309 157.601 178.512 158.166 181.714C158.254 182.03 158.46 182.298 158.739 182.46C159.018 182.622 159.349 182.666 159.659 182.581C159.966 182.487 160.225 182.276 160.383 181.992C160.541 181.707 160.585 181.371 160.506 181.054C158.153 167.75 155.939 154.422 153.659 141.106C153.411 139.66 153.355 138.04 152.344 136.9C151.955 136.492 151.488 136.17 150.972 135.956C150.455 135.741 149.901 135.639 149.344 135.654C148.234 135.618 147.123 135.58 146.013 135.541C142.775 135.43 139.536 135.316 136.297 135.201C127.81 134.903 119.324 134.609 110.837 134.318C103.864 134.083 96.8825 133.759 89.905 133.667C89.2672 133.649 88.6353 133.796 88.0672 134.093C87.499 134.39 87.0128 134.828 86.6529 135.367C85.8469 136.58 86.037 137.866 86.2641 139.224C86.707 141.875 87.1509 144.525 87.5959 147.175C88.5326 152.754 89.473 158.333 90.4172 163.911C91.4709 170.135 92.5274 176.359 93.5869 182.583C93.8346 184.04 93.8978 185.623 94.952 186.749C95.7519 187.605 96.7773 187.849 97.8846 187.939C99.1203 188.043 100.358 188.133 101.595 188.219C108.997 188.729 116.41 189.102 123.82 189.466C131.954 189.866 140.09 190.231 148.227 190.561C151.23 190.683 154.235 190.798 157.24 190.904C158.259 190.938 159.279 190.978 160.299 190.999C162.126 191.036 163.505 190.078 165.005 189.176C172.387 184.745 179.802 180.374 187.092 175.785C188.768 174.731 190.436 173.664 192.086 172.566C193.391 171.699 192.176 169.548 190.861 170.422H190.858Z" fill="black"/>
<path d="M101.178 182.211C114.459 183.018 127.74 183.833 141.03 184.453C144.987 184.638 148.944 184.805 152.902 184.955C154.464 185.014 154.462 182.531 152.902 182.472C139.346 181.96 125.801 181.213 112.26 180.399C108.566 180.177 104.872 179.953 101.178 179.727C99.6183 179.632 99.6234 182.115 101.178 182.21V182.211Z" fill="black"/>
<path d="M204.796 123.759C206.962 132.125 208.934 140.54 210.711 149.006C211.039 150.568 213.379 149.907 213.051 148.346C211.276 139.885 209.304 131.469 207.136 123.099C206.736 121.555 204.394 122.21 204.796 123.759Z" fill="black"/>
<path d="M194.616 150.432C201.16 151.031 207.812 150.303 214.353 149.934C215.906 149.846 215.916 147.362 214.353 147.451C207.814 147.82 201.16 148.548 194.616 147.949C194.295 147.951 193.987 148.083 193.76 148.315C193.533 148.547 193.405 148.862 193.402 149.19C193.409 149.518 193.539 149.83 193.765 150.061C193.991 150.293 194.296 150.425 194.616 150.432Z" fill="black"/>
<path d="M68.8002 39.849C61.3044 42.5254 54.9633 47.8068 50.8807 54.7739C46.7842 61.8147 45.4089 70.0112 46.2245 78.1079C46.9369 85.1777 49.2673 92.0353 53.7253 97.5577C57.9436 102.783 63.878 106.289 70.2644 107.941C73.9628 108.87 77.7647 109.296 81.572 109.209C86.3007 109.191 90.9897 108.324 95.4258 106.648C96.4572 106.242 97.4685 105.788 98.4595 105.285L97.5241 105.41C100.958 106.847 104.424 108.192 107.909 109.492C108.807 109.827 109.623 108.82 109.402 107.965C108.546 104.654 107.712 101.336 106.788 98.044L106.475 99.252C110.848 94.5533 113.554 88.5224 114.725 82.1791C115.897 75.8248 115.878 69.1317 114.091 62.8985C112.534 57.4485 109.708 52.466 105.857 48.3782C101.912 44.2419 97.0178 41.1826 91.6205 39.4796C85.0556 37.4351 78.0671 37.2802 71.4218 39.0321C70.5364 39.267 69.6622 39.5401 68.7976 39.8454C67.3313 40.3627 67.9608 42.7628 69.4428 42.2397C76.294 39.8385 83.7052 39.6758 90.6508 41.7741C96.2617 43.4911 101.291 46.781 105.169 51.2713C108.948 55.7104 111.492 61.1065 112.535 66.8957C113.1 70.18 113.246 73.5254 112.97 76.8482C112.731 80.4898 111.994 84.079 110.78 87.511C109.704 90.5477 108.14 93.3793 106.152 95.8892C105.912 96.1885 105.665 96.4829 105.412 96.7723C105.058 97.0976 104.753 97.4757 104.509 97.8939C104.284 98.416 104.522 98.9649 104.664 99.4776C104.79 99.9318 104.915 100.386 105.038 100.841C105.471 102.441 105.884 104.045 106.296 105.65C106.551 106.641 106.806 107.632 107.062 108.623L108.555 107.096C106.292 106.251 104.033 105.396 101.789 104.499C100.819 104.111 99.8516 103.715 98.8872 103.313C98.6544 103.198 98.4146 103.098 98.1692 103.014C97.7546 102.938 97.3273 103.029 96.977 103.269C96.4926 103.511 96.0027 103.742 95.5057 103.955C90.9633 105.813 86.1125 106.755 81.2206 106.728C74.0135 106.797 66.7544 105.15 60.8044 100.899C55.3346 96.9901 51.5926 91.0172 49.8113 84.4229C47.7262 76.693 47.8455 68.1798 50.7275 60.6811C53.6994 53.0335 59.4187 46.8395 66.712 43.3697C67.6044 42.9459 68.5175 42.576 69.4453 42.2423C69.7514 42.148 70.0102 41.9367 70.168 41.6524C70.3259 41.368 70.3707 41.0324 70.2932 40.7151C70.205 40.3993 69.999 40.1316 69.7198 39.9696C69.4405 39.8076 69.1103 39.7643 68.8002 39.849Z" fill="black"/>
<path d="M70.1982 65.3611C77.7111 65.4755 85.2316 65.3492 92.7455 65.3524C93.5579 65.3524 94.3702 65.3534 95.1826 65.3555C95.494 65.4042 95.8108 65.4054 96.1225 65.3591C96.298 65.2851 96.0942 65.4357 96.0826 65.3265L96.0073 65.207C96.0295 65.0249 96.0258 65.0124 95.9961 65.1697C95.9099 65.3994 95.8565 65.6405 95.8374 65.8858C95.2903 68.3501 94.7392 70.8133 94.184 73.2752C93.9228 74.4383 93.6609 75.6013 93.3983 76.7643L93.1055 78.0577C93.0828 78.1571 92.9169 78.5896 93.0813 78.3682C93.2218 78.1772 93.2254 78.3987 93.1237 78.3299C93.0732 78.2937 92.8593 78.3299 92.7936 78.3299C90.9157 78.3354 89.0375 78.3421 87.159 78.35C83.0565 78.3656 78.9544 78.3935 74.8519 78.3945C73.29 78.3945 73.2875 80.8779 74.8519 80.8779C78.6273 80.8779 82.4032 80.8515 86.1776 80.837C88.2614 80.8291 90.3449 80.8217 92.428 80.8148C92.8798 80.8462 93.3338 80.8178 93.7785 80.7304C94.1853 80.6082 94.5515 80.3742 94.8374 80.0538C95.1233 79.7335 95.3179 79.3391 95.4 78.9135C95.6528 77.8891 95.8657 76.8533 96.0978 75.8243C96.7001 73.1485 97.3001 70.4723 97.8977 67.7959C98.1627 66.609 98.7881 65.0683 98.0873 63.9508C97.3739 62.8126 96.1524 62.8747 94.991 62.8716C90.6427 62.8607 86.2899 62.8716 81.939 62.8799C78.0261 62.8861 74.1096 62.9373 70.1967 62.8799C68.6343 62.8561 68.6338 65.3394 70.1967 65.3632L70.1982 65.3611Z" fill="black"/>
<path d="M73.7582 72.805C78.7638 72.805 83.7734 72.7786 88.7815 72.7646C89.5447 72.7618 90.3078 72.7599 91.0709 72.7589C92.6328 72.7589 92.6353 70.2756 91.0709 70.2756C86.2519 70.2756 81.4329 70.3035 76.6139 70.3159C75.6617 70.3183 74.7098 70.3202 73.7582 70.3216C72.1964 70.3216 72.1938 72.805 73.7582 72.805Z" fill="black"/>
<path d="M76.7469 68.0685C77.0179 70.5715 77.2176 73.0869 77.5346 75.5827C77.5428 75.9094 77.6733 76.2203 77.8991 76.4514C78.1249 76.6825 78.4289 76.816 78.7481 76.8244C79.3356 76.7975 80.0491 76.2729 79.9616 75.5827C79.6446 73.0854 79.4448 70.5715 79.1738 68.0685C79.1664 67.7416 79.0361 67.4302 78.8102 67.199C78.5842 66.9677 78.2798 66.8345 77.9604 66.8268C77.6396 66.8303 77.3329 66.9623 77.1061 67.1944C76.8793 67.4265 76.7503 67.7403 76.7469 68.0685Z" fill="black"/>
<path d="M85.7802 68.0685C85.5779 70.6481 85.3661 73.2277 85.1967 75.8093C85.1983 76.1381 85.3267 76.453 85.5539 76.6855C85.7811 76.918 86.0888 77.0493 86.4102 77.051C86.7297 77.0436 87.0342 76.9104 87.2603 76.6791C87.4863 76.4478 87.6164 76.1363 87.6236 75.8093C87.793 73.2277 88.0049 70.6481 88.2071 68.0685C88.2057 67.7397 88.0773 67.4247 87.8501 67.1922C87.6228 66.9596 87.315 66.8283 86.9937 66.8268C86.6743 66.8348 86.3702 66.9682 86.1443 67.1994C85.9184 67.4305 85.788 67.7417 85.7802 68.0685Z" fill="black"/>
<path d="M61.7034 61.3019C62.3101 61.3019 62.9133 61.3045 63.518 61.3061C63.7921 61.342 64.0696 61.342 64.3437 61.3061C64.2319 61.4613 64.1445 60.9506 64.1955 61.3025C64.3169 61.8686 64.4724 62.4265 64.6612 62.973C65.1088 64.583 65.555 66.1934 65.9996 67.8041C67.0587 71.6306 68.1204 75.4561 69.1849 79.2808C69.5975 80.7549 70.0135 82.2277 70.4328 83.6991C70.6451 84.4384 70.7968 85.2641 71.3661 85.812C72.0376 86.4576 72.883 86.4328 73.7329 86.4364L83.6581 86.4545C86.6581 86.4597 89.6581 86.4645 92.6581 86.469C94.2194 86.469 94.2219 83.9857 92.6581 83.9857C86.645 83.9857 80.6319 83.9753 74.6188 83.9546C74.0868 83.9054 73.5516 83.9045 73.0195 83.9521C72.6595 84.0219 73.242 83.9453 73.0893 84.1223C73.1095 84.0985 73.021 83.8894 73.0094 83.8491C72.9305 83.579 72.8523 83.309 72.7748 83.0389C72.3455 81.5448 71.9264 80.0486 71.5077 78.5513C70.4291 74.7032 69.3597 70.8528 68.2996 67.0002C67.8179 65.2587 67.3354 63.5169 66.852 61.7748C66.6376 61.0044 66.4941 60.113 65.9419 59.5139C65.364 58.8895 64.6015 58.8212 63.8128 58.8196C63.11 58.8196 62.4072 58.815 61.7044 58.815C60.1425 58.815 60.14 61.2983 61.7044 61.2983L61.7034 61.3019Z" fill="black"/>
<path d="M75.4606 88.2363C75.794 88.2296 76.1253 88.2915 76.4349 88.4185C76.7444 88.5454 77.0258 88.7348 77.2624 88.9754C77.4989 89.2159 77.6857 89.5026 77.8117 89.8186C77.9377 90.1345 78.0003 90.4732 77.9958 90.8143C78.0241 91.1638 77.9782 91.5154 77.8613 91.8451C77.7444 92.1747 77.5591 92.4745 77.3183 92.724C77.0775 92.9735 76.7868 93.1668 76.4661 93.2906C76.1455 93.4143 75.8025 93.4656 75.4606 93.441C73.8699 93.441 72.9255 92.4239 72.9255 90.8143C72.9206 90.4731 72.9829 90.1343 73.1088 89.8182C73.2346 89.5021 73.4215 89.2152 73.6581 88.9745C73.8947 88.7339 74.1762 88.5446 74.4859 88.4177C74.7956 88.2909 75.1271 88.2292 75.4606 88.2363Z" fill="black"/>
<path d="M89.9379 88.2363C90.2713 88.2295 90.6026 88.2915 90.9121 88.4185C91.2217 88.5454 91.5031 88.7348 91.7396 88.9753C91.9761 89.2159 92.163 89.5026 92.289 89.8186C92.415 90.1345 92.4775 90.4731 92.473 90.8143C92.5013 91.1639 92.4555 91.5155 92.3385 91.8452C92.2215 92.1748 92.0363 92.4747 91.7954 92.7242C91.5545 92.9738 91.2638 93.167 90.943 93.2907C90.6223 93.4144 90.2792 93.4657 89.9373 93.441C88.3467 93.441 87.4022 92.4239 87.4022 90.8143C87.3973 90.473 87.4597 90.1342 87.5856 89.818C87.7115 89.5019 87.8983 89.215 88.135 88.9743C88.3716 88.7337 88.6533 88.5444 88.963 88.4176C89.2728 88.2908 89.6043 88.2291 89.9379 88.2363Z" fill="black"/>
<path d="M162.755 163.858C162.496 163.896 162.231 163.846 162.001 163.716C161.664 163.48 161.757 163.09 161.859 162.733C161.934 162.474 161.889 162.635 161.859 162.696C161.912 162.584 161.974 162.476 162.044 162.375C162.201 162.163 162.374 161.965 162.562 161.781C162.811 161.522 163.073 161.277 163.348 161.047C164.875 159.754 166.472 158.551 168.132 157.444C170.422 155.914 172.91 154.299 175.526 153.43C176.787 152.966 178.155 152.905 179.451 153.253C180.582 153.604 181.684 154.045 182.747 154.571C184.083 155.231 185.505 155.689 186.969 155.934C188.337 156.117 189.655 155.833 191.019 155.778C192.575 155.715 192.583 153.232 191.019 153.295C189.726 153.347 188.423 153.676 187.13 153.467C185.74 153.175 184.395 152.695 183.13 152.039C181.825 151.375 180.438 150.897 179.006 150.618C177.39 150.41 175.749 150.634 174.242 151.268C171.166 152.556 168.254 154.221 165.568 156.225C163.882 157.339 162.301 158.611 160.846 160.026C159.796 161.131 158.98 162.622 159.469 164.213C159.992 165.916 161.828 166.541 163.399 166.252C163.708 166.163 163.97 165.952 164.128 165.666C164.287 165.381 164.33 165.043 164.247 164.725C164.155 164.412 163.949 164.146 163.671 163.985C163.392 163.823 163.064 163.778 162.754 163.858L162.755 163.858Z" fill="black"/>
<path d="M171.386 157.502C169.145 158.912 166.995 160.47 164.949 162.164C163.18 163.602 160.741 165.518 161.518 168.18C161.657 168.683 161.932 169.136 162.31 169.487C162.689 169.838 163.157 170.073 163.66 170.165C164.815 170.386 165.854 169.995 166.89 169.509C167.166 169.341 167.367 169.068 167.448 168.751C167.53 168.433 167.486 168.095 167.326 167.81C167.158 167.531 166.892 167.329 166.583 167.246C166.274 167.163 165.945 167.206 165.666 167.364C165.373 167.506 165.069 167.621 164.756 167.705C164.566 167.768 164.364 167.781 164.168 167.743C164.114 167.73 163.86 167.624 163.943 167.667C164.011 167.702 163.899 167.615 163.878 167.572C163.797 167.38 163.776 167.166 163.816 166.961C163.801 167.074 163.862 166.786 163.877 166.745C163.848 166.828 163.985 166.538 164.028 166.472C164.096 166.365 164.237 166.055 164.358 165.989C164.286 166.028 164.156 166.226 164.308 166.064C164.358 166.007 164.409 165.948 164.462 165.891C164.578 165.765 164.699 165.644 164.822 165.524C166.361 164.088 168.005 162.774 169.738 161.592C170.678 160.916 171.63 160.254 172.615 159.648C173.952 158.826 172.733 156.678 171.39 157.504L171.386 157.502Z" fill="black"/>
<path d="M175.353 160.068C173.52 161.249 171.756 162.531 169.994 163.815C168.386 164.984 166.638 166.077 165.766 167.976C164.937 169.779 165.564 171.928 167.485 172.635C169.547 173.395 171.453 171.793 173.063 170.692C175.172 169.248 177.228 167.724 179.37 166.331C180.684 165.475 179.468 163.325 178.145 164.186C176.132 165.495 174.196 166.919 172.22 168.284C171.293 169.014 170.301 169.655 169.259 170.198C168.795 170.401 168.117 170.43 167.876 169.969C167.606 169.452 167.984 168.875 168.379 168.335C169.088 167.506 169.919 166.796 170.843 166.23C172.734 164.857 174.617 163.474 176.58 162.211C177.898 161.361 176.681 159.21 175.355 160.066L175.353 160.068Z" fill="black"/>
<path d="M177.746 164.864C176.901 166.111 176.126 167.407 175.426 168.745C174.735 169.99 173.715 171.172 173.833 172.693C173.848 173.115 173.959 173.528 174.158 173.899C174.357 174.269 174.638 174.587 174.978 174.827C175.327 175.053 175.722 175.195 176.132 175.242C176.543 175.29 176.959 175.241 177.348 175.1C177.95 174.87 178.506 174.529 178.989 174.096C179.617 173.578 180.233 173.047 180.839 172.502C182.127 171.339 183.343 170.095 184.479 168.777C184.7 168.541 184.823 168.226 184.823 167.899C184.823 167.572 184.7 167.258 184.479 167.021C184.25 166.791 183.942 166.662 183.621 166.662C183.3 166.662 182.992 166.791 182.762 167.021C181.897 168.026 180.987 168.986 180.032 169.904C179.536 170.378 179.03 170.84 178.512 171.291C178.262 171.509 178.011 171.725 177.757 171.938C177.618 172.056 177.477 172.173 177.336 172.29C177.28 172.346 177.218 172.397 177.152 172.442C177.229 172.402 177.392 172.267 177.217 172.39C177.053 172.504 176.883 172.61 176.708 172.707C176.528 172.805 176.809 172.703 176.602 172.743C176.53 172.757 176.461 172.784 176.389 172.795C176.558 172.766 176.432 172.817 176.379 172.78C176.391 172.788 176.646 172.88 176.362 172.776C176.356 172.776 176.191 172.699 176.283 172.748C176.421 172.823 176.206 172.604 176.341 172.824C176.266 172.702 176.274 172.59 176.297 172.765C176.281 172.716 176.268 172.667 176.258 172.617C176.24 172.526 176.241 172.552 176.262 172.694L176.255 172.59C176.255 172.487 176.255 172.383 176.258 172.28C176.262 172.045 176.265 172.264 176.253 172.312C176.265 172.266 176.27 172.218 176.284 172.172C176.297 172.127 176.311 172.083 176.32 172.039C176.363 171.832 176.313 172.059 176.287 172.102C176.37 171.967 176.449 171.831 176.532 171.696C176.891 171.12 177.229 170.531 177.558 169.937C178.247 168.619 179.01 167.344 179.844 166.116C180.004 165.831 180.048 165.494 179.966 165.176C179.885 164.858 179.684 164.585 179.408 164.417C179.129 164.259 178.8 164.216 178.491 164.299C178.181 164.382 177.915 164.584 177.748 164.863L177.746 164.864Z" fill="black"/>
<path d="M183.786 169.631C185.899 170.253 188.16 170.083 190.162 169.152C191.669 168.488 193.053 167.569 194.554 166.903C194.83 166.735 195.031 166.463 195.112 166.145C195.194 165.827 195.15 165.489 194.989 165.204C194.821 164.926 194.555 164.725 194.246 164.642C193.937 164.559 193.609 164.601 193.329 164.759C191.996 165.35 190.76 166.167 189.436 166.782C187.88 167.566 186.096 167.728 184.43 167.236C182.93 166.779 182.289 169.175 183.785 169.631H183.786Z" fill="black"/>
<path d="M188.849 153.266C190.785 155.833 191.663 159.176 192.38 162.287C192.723 163.774 193.009 165.274 193.239 166.785C193.285 167.087 193.328 167.389 193.369 167.691C193.326 167.372 193.382 167.799 193.389 167.857C193.404 167.975 193.418 168.093 193.431 168.212C193.467 168.538 193.503 168.866 193.516 169.195C193.521 169.522 193.65 169.835 193.877 170.067C194.103 170.299 194.409 170.431 194.729 170.436C200.218 170.355 205.707 170.287 211.194 170.126C213.776 170.05 216.347 169.942 218.919 169.707C221.513 169.471 224.173 169.314 226.655 168.449C228.803 167.745 230.732 166.477 232.251 164.772C233.579 163.182 234.413 161.223 234.647 159.145C234.972 157.047 235.067 154.918 234.931 152.797C234.725 150.242 234.212 147.681 233.827 145.148C233.459 142.728 233.074 140.311 232.672 137.897C231.907 133.362 231.038 128.844 230.019 124.363C228.943 119.633 227.918 114.786 226.054 110.305C224.19 105.825 221.671 101.521 218.007 98.3368C214.25 95.0717 209.81 93.008 205.237 91.2339C204.159 90.8154 203.075 90.4113 201.991 90.0062C201.681 89.9216 201.351 89.9651 201.071 90.1273C200.792 90.2895 200.586 90.5574 200.498 90.8733C200.42 91.1906 200.464 91.5268 200.622 91.8115C200.78 92.0961 201.039 92.3073 201.346 92.4006C205.628 94.0044 209.992 95.5912 213.817 98.1888C215.786 99.5147 217.559 101.121 219.084 102.96C220.461 104.703 221.643 106.599 222.608 108.611C224.729 112.835 225.844 117.36 226.956 121.946C228.014 126.312 228.941 130.708 229.737 135.134C230.585 139.829 231.309 144.547 232.009 149.266C232.179 150.414 232.419 151.771 232.501 152.723C232.573 153.67 232.587 154.621 232.543 155.569C232.476 157.377 232.391 159.391 231.713 161.089C230.013 165.354 225.111 166.625 221.091 167.025C218.31 167.304 215.545 167.499 212.755 167.595C207.039 167.788 201.32 167.864 195.602 167.942L194.731 167.954L195.944 169.195C195.823 167.393 195.57 165.603 195.186 163.84C194.707 161.121 193.97 158.456 192.985 155.883C192.478 154.505 191.791 153.204 190.945 152.013C190.775 151.737 190.509 151.537 190.201 151.454C189.892 151.372 189.565 151.412 189.284 151.568C189.008 151.735 188.807 152.008 188.726 152.326C188.644 152.644 188.689 152.982 188.849 153.267L188.849 153.266Z" fill="black"/>
<path d="M171.106 70.2947C170.941 70.7472 170.801 71.209 170.687 71.6776C170.494 72.4278 170.245 73.3746 170.852 74.0016C170.994 74.1423 171.158 74.2574 171.337 74.3421C171.502 74.4304 171.678 74.4956 171.86 74.5361C172.032 74.5721 172.208 74.5895 172.384 74.5878C172.459 74.5842 172.533 74.5749 172.608 74.5733C172.929 74.5691 173.236 74.4395 173.467 74.2112C173.638 74.0375 173.754 73.816 173.801 73.5747C173.848 73.3335 173.824 73.0833 173.732 72.8561C173.64 72.6288 173.484 72.4347 173.283 72.2983C173.083 72.1619 172.848 72.0894 172.608 72.09C172.466 72.1025 172.324 72.1049 172.183 72.0972L172.505 72.1412C172.425 72.1281 172.346 72.105 172.272 72.0724L172.561 72.1976C172.48 72.1585 172.403 72.1117 172.33 72.0579L172.575 72.2524C172.572 72.2494 172.569 72.2461 172.566 72.2426L172.756 72.494C172.751 72.4879 172.747 72.4811 172.744 72.4739L172.866 72.7708C172.859 72.7513 172.854 72.731 172.852 72.7103L172.895 73.0404C172.89 72.9562 172.893 72.8717 172.906 72.7884L172.863 73.1185C172.927 72.7107 173.02 72.3082 173.142 71.9146C173.234 71.5928 173.327 71.2679 173.446 70.9549C173.488 70.7951 173.499 70.6282 173.478 70.464C173.457 70.2998 173.405 70.1415 173.323 69.9983C173.243 69.8575 173.136 69.7342 173.009 69.6356C172.882 69.537 172.737 69.4649 172.583 69.4236C172.429 69.3822 172.268 69.3723 172.11 69.3945C171.952 69.4167 171.8 69.4705 171.663 69.5528L171.418 69.7469C171.269 69.8987 171.161 70.0875 171.106 70.2947H171.106Z" fill="black"/>
<path d="M161.437 64.9126C161.111 66.0705 161.344 68.725 163.394 68.933C166.104 68.8916 166.229 65.6788 165.308 64.1769C164.554 62.9471 162.356 62.452 161.437 64.9126Z" fill="black"/>
<path d="M184.68 64.3446C185.051 65.5485 184.834 68.3246 182.603 68.5771C179.651 68.5812 179.468 65.2277 180.452 63.643C181.257 62.3455 183.645 61.7909 184.68 64.3446Z" fill="black"/>
<path d="M170.189 81.7383C171.445 82.1 172.76 82.1881 174.051 81.997C175.488 81.8467 176.88 81.4037 178.147 80.6942C178.425 80.528 178.627 80.2556 178.708 79.937C178.79 79.6184 178.745 79.2796 178.582 78.9952C178.42 78.7108 178.153 78.5042 177.842 78.4206C177.531 78.3371 177.2 78.3835 176.922 78.5498C176.795 78.6248 176.669 78.6962 176.537 78.7634C176.478 78.7934 176.418 78.8229 176.358 78.8519C176.335 78.8628 176.139 78.9554 176.273 78.8938C176.425 78.824 176.135 78.9497 176.135 78.9497C176.071 78.975 176.007 79.0014 175.942 79.0232C175.811 79.0711 175.679 79.1163 175.546 79.1587C175.26 79.2498 174.968 79.3268 174.675 79.392C174.518 79.4265 174.361 79.4577 174.202 79.4857C174.132 79.4981 174.062 79.509 173.992 79.5203C173.755 79.5591 174.093 79.5136 173.944 79.5265C173.361 79.5898 172.773 79.6107 172.187 79.5892C172.057 79.5819 171.926 79.5717 171.796 79.5586C171.648 79.5431 171.627 79.5369 171.788 79.5617C171.726 79.5519 171.665 79.5426 171.604 79.5322C171.343 79.4864 171.086 79.4234 170.833 79.3434C170.523 79.2589 170.193 79.3024 169.913 79.4646C169.634 79.6268 169.429 79.8946 169.34 80.2105C169.262 80.5278 169.306 80.8641 169.464 81.1489C169.622 81.4336 169.881 81.6448 170.188 81.7383H170.189Z" fill="black"/>
</g>
<defs>
<clipPath id="clip0_121_18">
<rect width="189" height="169" fill="white" transform="translate(46 22)"/>
</clipPath>
</defs>
</svg>
