<svg width="128" height="72" viewBox="0 0 128 72" fill="none" xmlns="http://www.w3.org/2000/svg">
<rect width="128" height="72" fill="#E5E5E5"/>
<g clip-path="url(#clip0)">
<rect width="128" height="72" fill="#4DD0E1"/>
<path d="M32.3841 32.208C32.3841 26.784 28.4001 22.512 22.5921 22.512C19.9041 22.512 17.5041 23.52 15.7761 25.296V23.184H9.48813V48H15.7761V33.456C15.7761 30.144 17.9361 28.128 20.9601 28.128C24.0321 28.128 26.0961 30.24 26.0961 33.456V48H32.3841V32.208ZM35.6185 41.04C35.6185 45.408 39.2665 48.624 44.2105 48.624C47.5225 48.624 50.2585 47.28 51.9865 45.072C52.8505 46.896 54.6745 48 57.0745 48H60.0025V42.576H58.7065C57.7945 42.576 57.3145 42.048 57.3145 41.136V31.392C57.3145 26.112 53.3785 22.656 47.4265 22.656C43.6345 22.656 40.3225 23.856 37.4425 25.968L40.0825 30.432C42.2905 28.944 44.4025 28.224 46.6585 28.224C49.5865 28.224 51.2185 29.712 51.2185 32.16V33.12L43.9225 33.648C38.6425 34.032 35.6185 36.576 35.6185 41.04ZM41.6185 40.992C41.6185 39.36 42.6745 38.496 44.7865 38.304L51.2185 37.728V39.312C51.2185 41.808 48.7225 43.824 45.6025 43.824C43.2505 43.824 41.6185 42.72 41.6185 40.992ZM88.666 23.184H82.426V25.344C80.266 23.568 77.53 22.512 74.602 22.512C67.402 22.512 61.546 28.224 61.546 35.376C61.546 42.528 67.354 48.24 74.602 48.24C77.53 48.24 80.218 47.184 82.378 45.456V48.48C82.378 51.264 80.842 52.8 77.866 52.8H72.346V58.08H79.306C84.97 58.08 88.666 54.432 88.666 48.96V23.184ZM67.786 35.376C67.786 31.296 71.098 27.984 75.13 27.984C79.21 27.984 82.474 31.248 82.474 35.376C82.474 39.456 79.258 42.72 75.13 42.72C71.05 42.72 67.786 39.456 67.786 35.376ZM119.373 35.616C119.373 28.368 113.277 22.56 105.741 22.56C98.2525 22.56 92.1085 28.416 92.1085 35.616C92.1085 42.816 98.2525 48.672 105.741 48.672C113.277 48.672 119.373 42.816 119.373 35.616ZM113.133 35.616C113.133 39.792 109.869 43.104 105.741 43.104C101.661 43.104 98.3485 39.792 98.3485 35.616C98.3485 31.44 101.661 28.128 105.741 28.128C109.869 28.128 113.133 31.44 113.133 35.616Z" fill="white"/>
</g>
<defs>
<clipPath id="clip0">
<rect width="128" height="72" fill="white"/>
</clipPath>
</defs>
</svg>
